%
M48
M72
T01C0.0200
T02C0.0236
T03C0.0320
T04C0.0354
T05C0.0400
T06C0.0472
T07C0.0512
T08C0.1500
%
T01
X3050Y5100
X4750Y5550
X5250Y5550
X5750Y5550
X6250Y5550
X6750Y5550
X10825Y6850
X11325Y6850
X13050Y7150
X13050Y7650
X13050Y8150
X12800Y8650
X12800Y9150
X12750Y9750
X12750Y10250
X9575Y11100
X8500Y11800
X8050Y11750
X7650Y11750
X7250Y11750
X6875Y11800
X7125Y12175
X7250Y12550
X6875Y12550
X7650Y12550
X7625Y12175
X8050Y12150
X8050Y12550
X8500Y12550
X8500Y12550
X8500Y12175
X10700Y12350
X11200Y12350
X11700Y12350
X11700Y11850
X11200Y11850
X10700Y11850
X12450Y11475
X15375Y11750
X15750Y11750
X16150Y11750
X16550Y11750
X16925Y11750
X16925Y12150
X16550Y12150
X16550Y12550
X16925Y12550
X16150Y12550
X15750Y12550
X15375Y12550
X15375Y12150
X15750Y12150
X16150Y12150
X18700Y12350
X19200Y12350
X19700Y12350
X19700Y11850
X19200Y11850
X18700Y11850
X18700Y12850
X19200Y12850
X19700Y12850
X24075Y12475
X24450Y12475
X24825Y12475
X25200Y12475
X25575Y12475
X25575Y12100
X25200Y12100
X25200Y11725
X25575Y11725
X24825Y11725
X24450Y11725
X24450Y12100
X24825Y12100
X24075Y12100
X24075Y11725
X27504Y12501
X28004Y12501
X28504Y12501
X28629Y11501
X32375Y11750
X32750Y11750
X33150Y11750
X33525Y11750
X33550Y12150
X33150Y12175
X33150Y12550
X33525Y12550
X32750Y12550
X32375Y12550
X32375Y12175
X32750Y12175
X35065Y12824
X35565Y12824
X36940Y12699
X37700Y11670
X36440Y11574
X37650Y10560
X39105Y10390
X38775Y9935
X40960Y9170
X41700Y8750
X37150Y8650
X35575Y9225
X32325Y7475
X33950Y7350
X34450Y7350
X34450Y6850
X33950Y6850
X37820Y6680
X39350Y6980
X40790Y7250
X41260Y7260
X40810Y6790
X41140Y6460
X43850Y7000
X45000Y6650
X46620Y6940
X46800Y6500
X48560Y6460
X49680Y6630
X50426Y6940
X51800Y7100
X53620Y7390
X53850Y6950
X55000Y6950
X55410Y6630
X56850Y6460
X57630Y6770
X59540Y6780
X59520Y7240
X58873Y7390
X59580Y8240
X62050Y8450
X59110Y8940
X57450Y9350
X55710Y9520
X53070Y9170
X52510Y9520
X52127Y9867
X51630Y9940
X49810Y9230
X50900Y8600
X49988Y8050
X49200Y8050
X48391Y7700
X46300Y8200
X46825Y8871
X47400Y8890
X48290Y9340
X48040Y9990
X46230Y9680
X47580Y11140
X49520Y11470
X50550Y11030
X51470Y10720
X56680Y12170
X61110Y11270
X61730Y11120
X63150Y10450
X65490Y10810
X66770Y10260
X68127Y10171
X66110Y9600
X66712Y9099
X70530Y8930
X70990Y8910
X72363Y8947
X72980Y8770
X72452Y8363
X72610Y7730
X71385Y7825
X72775Y7102
X71450Y6650
X69460Y6500
X68710Y6190
X67720Y6100
X65950Y6650
X68450Y7150
X72818Y5890
X73755Y5580
X72960Y5260
X71450Y4650
X70810Y4160
X71450Y2650
X70370Y2610
X66160Y3020
X64960Y3140
X64390Y2610
X62670Y3210
X61549Y3588
X60937Y3229
X61461Y2571
X63680Y3840
X65950Y4650
X64450Y5150
X65750Y5260
X62700Y5740
X61680Y5740
X61270Y5490
X60581Y5280
X61290Y5030
X62080Y5120
X58850Y5350
X57040Y5740
X54350Y5550
X54100Y4700
X54640Y4250
X53890Y3940
X54415Y3797
X56430Y3880
X56590Y4530
X51740Y4250
X51110Y3940
X51730Y4710
X47830Y4940
X47340Y4818
X46640Y5080
X47345Y5317
X47870Y5400
X46500Y5650
X45260Y5580
X45500Y5150
X43980Y5420
X41500Y5150
X38920Y5580
X37840Y5230
X37860Y4760
X38540Y4080
X39090Y3970
X37890Y3770
X37480Y3460
X36750Y3650
X41770Y3170
X45500Y4500
X47045Y4408
X48110Y2860
X50570Y5740
X55350Y7850
X54753Y7966
X54210Y8020
X53050Y8270
X56480Y7700
X61350Y7350
X62350Y9350
X59350Y10350
X66150Y12450
X68150Y12450
X68480Y11430
X70607Y10470
X71150Y10160
X72950Y9650
X71470Y9390
X74525Y8638
X75839Y8459
X76090Y7760
X75650Y6950
X76180Y5260
X77090Y5260
X77310Y9700
X75839Y9586
X75650Y10450
X73160Y11360
X74000Y11650
X73680Y11990
X75150Y12450
X68910Y14020
X69850Y15650
X66150Y15650
X60150Y15150
X59150Y15150
X59650Y14650
X59150Y14150
X60150Y14150
X58150Y13650
X58150Y14650
X56150Y14650
X55650Y14650
X55650Y15150
X56150Y15150
X56150Y15650
X55650Y15650
X54150Y15150
X53150Y15150
X53650Y14650
X53150Y14150
X54150Y14150
X52150Y13650
X52150Y14650
X50150Y14650
X49650Y14650
X49650Y15150
X50150Y15150
X50150Y15650
X49650Y15650
X48150Y15150
X47150Y15150
X47650Y14650
X47150Y14150
X48150Y14150
X46150Y13650
X46150Y14650
X44150Y14650
X43650Y14650
X43650Y15150
X44150Y15150
X44150Y15650
X43650Y15650
X41463Y15650
X40900Y15150
X41463Y14650
X40900Y14150
X40275Y14650
X37700Y15100
X37700Y15600
X37700Y16100
X35650Y16150
X35650Y15650
X35650Y16650
X34550Y16900
X34050Y16900
X32300Y16900
X31800Y16900
X29700Y17650
X29200Y17650
X29200Y17150
X27150Y16650
X27150Y16150
X27150Y15650
X29200Y15600
X30200Y15600
X30200Y15100
X29200Y15100
X29200Y16100
X30200Y16100
X26050Y16900
X25550Y16900
X23800Y16900
X23300Y16900
X21200Y17650
X20700Y17650
X20700Y17150
X18650Y16650
X18650Y16150
X20700Y16100
X20700Y15600
X20700Y15100
X21700Y15600
X21700Y16100
X17550Y16900
X17050Y16900
X15300Y16900
X14800Y16900
X12700Y17650
X12200Y17650
X12200Y17150
X11050Y17150
X10675Y17400
X11050Y17650
X11050Y18150
X10550Y18150
X10550Y18650
X11050Y18650
X12200Y18650
X12700Y18650
X12700Y18150
X12200Y18150
X8950Y17025
X8450Y17025
X8450Y16650
X8950Y16650
X10150Y16650
X10150Y16150
X10150Y15650
X12200Y15600
X12700Y15600
X12700Y15100
X12200Y15100
X12200Y16100
X12700Y16100
X6700Y16650
X6200Y16650
X6200Y17025
X6700Y17025
X4200Y17150
X4200Y17650
X3700Y17650
X3700Y18150
X4200Y18150
X4200Y18650
X4200Y16650
X4200Y16150
X3950Y15400
X3875Y13675
X3875Y12550
X3875Y11925
X10700Y12850
X11200Y12850
X11700Y12850
X20875Y10250
X20675Y8400
X20925Y7900
X22425Y8150
X21175Y7400
X21175Y6775
X24175Y7400
X25700Y7350
X26200Y7350
X26200Y6850
X25700Y6850
X29825Y7850
X27825Y8975
X17575Y7350
X17075Y7350
X15675Y7275
X17075Y6850
X17575Y6850
X22750Y5425
X28150Y3700
X30825Y5475
X15250Y5175
X14750Y5175
X14250Y5175
X13750Y5175
X13250Y5175
X9075Y6975
X8575Y6975
X8575Y7475
X9075Y7475
X7000Y7675
X5750Y8300
X5250Y8300
X4750Y8300
X3750Y8050
X3750Y7425
X3750Y8675
X4750Y8800
X5250Y8800
X5750Y8800
X3750Y9300
X3750Y9925
X10825Y8725
X40213Y15650
X40900Y16150
X37700Y17150
X37700Y17650
X38200Y17650
X38200Y18150
X37700Y18150
X36550Y18150
X36050Y18150
X36050Y18650
X36550Y18650
X37700Y18650
X38200Y18650
X37650Y19650
X36650Y19650
X36650Y20150
X37150Y20150
X37650Y20150
X37650Y20650
X37150Y20650
X36650Y20650
X43650Y20650
X44150Y20650
X44650Y20650
X44650Y20150
X44150Y20150
X43650Y20150
X43650Y19650
X44150Y19650
X44650Y19650
X49650Y19650
X50150Y19650
X50650Y19650
X50650Y20150
X50150Y20150
X49650Y20150
X49650Y20650
X50150Y20650
X50650Y20650
X55650Y20650
X56150Y20650
X56650Y20650
X56650Y20150
X56150Y20150
X55650Y20150
X55650Y19650
X56150Y19650
X56650Y19650
X58150Y15650
X59650Y15650
X53650Y15650
X52150Y15650
X47650Y15650
X46150Y15650
X42378Y12887
X29700Y18150
X29200Y18150
X28050Y18150
X27550Y18150
X27550Y18650
X28050Y18650
X29200Y18650
X29700Y18650
X29150Y19650
X28150Y19650
X28150Y20150
X28650Y20150
X29150Y20150
X29150Y20650
X28650Y20650
X28150Y20650
X21200Y18650
X20700Y18650
X19550Y18650
X19050Y18650
X19050Y18150
X19550Y18150
X20700Y18150
X21200Y18150
X20650Y19650
X19650Y19650
X19650Y20150
X20150Y20150
X20650Y20150
X20650Y20650
X20150Y20650
X19650Y20650
X12150Y20650
X11650Y20650
X11650Y20150
X12150Y20150
X12150Y19650
T02
X8775Y14525
X10275Y14150
X6650Y14525
X5150Y14525
X14025Y14400
X15275Y14400
X17150Y14400
X18775Y13900
X21650Y13275
X22900Y13275
X22775Y14275
X23775Y14400
X25775Y14400
X27275Y14025
X31150Y14275
X32150Y14400
X33986Y14400
X35780Y13952
X31150Y13275
X38963Y11713
X45025Y10650
X49025Y11025
X52650Y8900
X36025Y5650
X35275Y5400
X33025Y7275
X27149Y5774
X24900Y7150
X19775Y6275
X16400Y7025
X19150Y8150
X20025Y8900
X16650Y9775
X9025Y9900
X7900Y9525
X4150Y10900
X5650Y11400
X14275Y12275
X25275Y9900
X33525Y9775
X11650Y7400
X7775Y7775
X11400Y5900
X8150Y4900
X11275Y3775
X15400Y3775
T03
X41900Y10275
X41900Y11275
T04
X67961Y4650
X69339Y4650
T05
X72650Y4150
X73650Y4150
X74650Y4150
X75650Y4150
X76650Y4150
X78650Y4150
X79650Y4150
X80650Y4150
X80650Y3150
X79650Y3150
X78650Y3150
X76650Y3150
X75650Y3150
X74650Y3150
X73650Y3150
X72650Y3150
X80150Y10650
X80150Y11650
X38150Y9650
X38150Y8650
X38150Y7650
T06
X35284Y18150
X33906Y18150
X32528Y18150
X31150Y18150
X26784Y18150
X25406Y18150
X24028Y18150
X22650Y18150
X18284Y18150
X16906Y18150
X15528Y18150
X14150Y18150
X9784Y18150
X8406Y18150
X7028Y18150
X5650Y18150
X63150Y18150
X64528Y18150
X67150Y18150
X68528Y18150
X71150Y18150
X72528Y18150
X75150Y18150
X76528Y18150
X79150Y18150
X80528Y18150
T07
X59619Y18150
X57650Y18150
X53619Y18150
X51650Y18150
X47619Y18150
X45650Y18150
X41619Y18150
X39650Y18150
T08
X3650Y3650
X3650Y20150
X82650Y20150
X82650Y3650
M30
