G75*
G70*
%OFA0B0*%
%FSLAX24Y24*%
%IPPOS*%
%LPD*%
%AMOC8*
5,1,8,0,0,1.08239X$1,22.5*
%
%ADD10C,0.0040*%
%ADD11C,0.0060*%
%ADD12C,0.0080*%
%ADD13C,0.0020*%
%ADD14C,0.0050*%
%ADD15R,0.0340X0.0300*%
%ADD16C,0.0100*%
%ADD17R,0.0200X0.0200*%
%ADD18R,0.0240X0.0230*%
D10*
X007327Y002329D02*
X007327Y002789D01*
X007557Y002789D01*
X007633Y002713D01*
X007633Y002559D01*
X007557Y002483D01*
X007327Y002483D01*
X007173Y002636D02*
X006866Y002636D01*
X006866Y002713D02*
X006943Y002789D01*
X007096Y002789D01*
X007173Y002713D01*
X007173Y002636D01*
X007096Y002483D02*
X006943Y002483D01*
X006866Y002559D01*
X006866Y002713D01*
X006713Y002789D02*
X006636Y002789D01*
X006483Y002636D01*
X006483Y002483D02*
X006483Y002789D01*
X007787Y002789D02*
X007787Y002483D01*
X007787Y002636D02*
X007940Y002789D01*
X008017Y002789D01*
X008247Y002789D02*
X008401Y002789D01*
X008478Y002713D01*
X008478Y002483D01*
X008247Y002483D01*
X008171Y002559D01*
X008247Y002636D01*
X008478Y002636D01*
X008631Y002789D02*
X008861Y002789D01*
X008938Y002713D01*
X008938Y002559D01*
X008861Y002483D01*
X008631Y002483D01*
X008631Y002329D02*
X008631Y002789D01*
X009091Y002789D02*
X009322Y002789D01*
X009398Y002713D01*
X009398Y002559D01*
X009322Y002483D01*
X009091Y002483D01*
X009091Y002329D02*
X009091Y002789D01*
X009552Y002789D02*
X009552Y002483D01*
X009552Y002636D02*
X009705Y002789D01*
X009782Y002789D01*
X009935Y002713D02*
X009935Y002559D01*
X010012Y002483D01*
X010166Y002483D01*
X010242Y002559D01*
X010242Y002713D01*
X010166Y002789D01*
X010012Y002789D01*
X009935Y002713D01*
X010396Y002559D02*
X010473Y002559D01*
X010473Y002483D01*
X010396Y002483D01*
X010396Y002559D01*
X010626Y002559D02*
X010703Y002483D01*
X010933Y002483D01*
X011086Y002559D02*
X011163Y002483D01*
X011317Y002483D01*
X011393Y002559D01*
X011393Y002713D01*
X011317Y002789D01*
X011163Y002789D01*
X011086Y002713D01*
X011086Y002559D01*
X010933Y002789D02*
X010703Y002789D01*
X010626Y002713D01*
X010626Y002559D01*
X011547Y002483D02*
X011547Y002789D01*
X011624Y002789D01*
X011700Y002713D01*
X011777Y002789D01*
X011854Y002713D01*
X011854Y002483D01*
X011700Y002483D02*
X011700Y002713D01*
X013849Y002636D02*
X014079Y002636D01*
X014156Y002713D01*
X014156Y002866D01*
X014079Y002943D01*
X013849Y002943D01*
X013849Y002483D01*
X014002Y002636D02*
X014156Y002483D01*
X014309Y002559D02*
X014309Y002713D01*
X014386Y002789D01*
X014539Y002789D01*
X014616Y002713D01*
X014616Y002636D01*
X014309Y002636D01*
X014309Y002559D02*
X014386Y002483D01*
X014539Y002483D01*
X014770Y002483D02*
X015000Y002483D01*
X015076Y002559D01*
X015076Y002713D01*
X015000Y002789D01*
X014770Y002789D01*
X014770Y002329D01*
X015230Y002483D02*
X015230Y002943D01*
X015460Y002943D01*
X015537Y002866D01*
X015537Y002713D01*
X015460Y002636D01*
X015230Y002636D01*
X015383Y002636D02*
X015537Y002483D01*
X015690Y002559D02*
X015767Y002636D01*
X015997Y002636D01*
X015997Y002713D02*
X015997Y002483D01*
X015767Y002483D01*
X015690Y002559D01*
X015767Y002789D02*
X015921Y002789D01*
X015997Y002713D01*
X016151Y002789D02*
X016381Y002789D01*
X016458Y002713D01*
X016458Y002559D01*
X016381Y002483D01*
X016151Y002483D01*
X016151Y002329D02*
X016151Y002789D01*
X017072Y002943D02*
X017072Y002483D01*
X017378Y002483D02*
X017378Y002943D01*
X017225Y002789D01*
X017072Y002943D01*
X017532Y002713D02*
X017609Y002789D01*
X017762Y002789D01*
X017839Y002713D01*
X017839Y002636D01*
X017532Y002636D01*
X017532Y002559D02*
X017532Y002713D01*
X017532Y002559D02*
X017609Y002483D01*
X017762Y002483D01*
X017992Y002483D02*
X018146Y002483D01*
X018069Y002483D02*
X018069Y002943D01*
X017992Y002943D01*
X018299Y002789D02*
X018606Y002789D01*
X018299Y002483D01*
X018606Y002483D01*
X018760Y002483D02*
X018913Y002483D01*
X018836Y002483D02*
X018836Y002789D01*
X018760Y002789D01*
X018836Y002943D02*
X018836Y003020D01*
X019527Y002943D02*
X019527Y002636D01*
X019680Y002483D01*
X019834Y002636D01*
X019834Y002943D01*
X019987Y002866D02*
X020064Y002943D01*
X020218Y002943D01*
X020294Y002866D01*
X020294Y002789D01*
X019987Y002483D01*
X020294Y002483D01*
X020448Y002483D02*
X020524Y002483D01*
X020524Y002559D01*
X020448Y002559D01*
X020448Y002483D01*
X020678Y002559D02*
X020985Y002866D01*
X020985Y002559D01*
X020908Y002483D01*
X020755Y002483D01*
X020678Y002559D01*
X020678Y002866D01*
X020755Y002943D01*
X020908Y002943D01*
X020985Y002866D01*
X022059Y002943D02*
X022059Y002483D01*
X022366Y002483D01*
X022520Y002483D02*
X022673Y002483D01*
X022596Y002483D02*
X022596Y002789D01*
X022520Y002789D01*
X022596Y002943D02*
X022596Y003020D01*
X022826Y002713D02*
X022903Y002789D01*
X023133Y002789D01*
X023287Y002713D02*
X023364Y002789D01*
X023517Y002789D01*
X023594Y002713D01*
X023594Y002636D01*
X023287Y002636D01*
X023287Y002559D02*
X023287Y002713D01*
X023287Y002559D02*
X023364Y002483D01*
X023517Y002483D01*
X023747Y002483D02*
X023747Y002789D01*
X023977Y002789D01*
X024054Y002713D01*
X024054Y002483D01*
X024208Y002559D02*
X024208Y002713D01*
X024284Y002789D01*
X024515Y002789D01*
X024668Y002713D02*
X024745Y002789D01*
X024898Y002789D01*
X024975Y002713D01*
X024975Y002636D01*
X024668Y002636D01*
X024668Y002559D02*
X024668Y002713D01*
X024668Y002559D02*
X024745Y002483D01*
X024898Y002483D01*
X025128Y002483D02*
X025128Y002559D01*
X025205Y002559D01*
X025205Y002483D01*
X025128Y002483D01*
X025128Y002713D02*
X025128Y002789D01*
X025205Y002789D01*
X025205Y002713D01*
X025128Y002713D01*
X024515Y002483D02*
X024284Y002483D01*
X024208Y002559D01*
X025819Y002559D02*
X025896Y002483D01*
X026049Y002483D01*
X026126Y002559D01*
X026126Y002713D01*
X025972Y002713D01*
X025819Y002866D02*
X025819Y002559D01*
X026279Y002483D02*
X026279Y002943D01*
X026510Y002943D01*
X026586Y002866D01*
X026586Y002713D01*
X026510Y002636D01*
X026279Y002636D01*
X026126Y002866D02*
X026049Y002943D01*
X025896Y002943D01*
X025819Y002866D01*
X026740Y002943D02*
X026740Y002483D01*
X027047Y002483D01*
X023133Y002483D02*
X022903Y002483D01*
X022826Y002559D01*
X022826Y002713D01*
X052173Y004602D02*
X052702Y004073D01*
X053927Y005298D02*
X053398Y005827D01*
X066721Y005274D02*
X066721Y005274D01*
X066721Y005273D02*
X066722Y005260D01*
X066727Y005247D01*
X066734Y005235D01*
X066744Y005225D01*
X066756Y005218D01*
X066769Y005214D01*
X066782Y005212D01*
X066782Y005213D02*
X067152Y005213D01*
X066936Y005428D02*
X066936Y005439D01*
X066934Y005456D01*
X066929Y005473D01*
X066921Y005488D01*
X066910Y005501D01*
X066897Y005512D01*
X066882Y005520D01*
X066865Y005525D01*
X066848Y005527D01*
X066782Y005527D01*
X066768Y005529D01*
X066756Y005533D01*
X066744Y005540D01*
X066734Y005550D01*
X066727Y005562D01*
X066723Y005574D01*
X066721Y005588D01*
X066723Y005603D01*
X066728Y005617D01*
X066735Y005629D01*
X066746Y005640D01*
X066758Y005647D01*
X066772Y005652D01*
X066787Y005654D01*
X067157Y005654D01*
X067152Y005654D02*
X067648Y005654D01*
X067670Y005652D01*
X067692Y005647D01*
X067713Y005638D01*
X067732Y005627D01*
X067749Y005612D01*
X067764Y005595D01*
X067775Y005576D01*
X067784Y005555D01*
X067789Y005533D01*
X067791Y005511D01*
X067792Y005511D02*
X067792Y005301D01*
X067152Y005654D02*
X067152Y002150D01*
X070149Y002150D01*
X070149Y003574D01*
X070518Y003574D01*
X070519Y003574D02*
X070532Y003573D01*
X070545Y003568D01*
X070557Y003561D01*
X070567Y003551D01*
X070574Y003539D01*
X070579Y003526D01*
X070580Y003513D01*
X070579Y003513D02*
X070579Y003513D01*
X070577Y003498D01*
X070572Y003484D01*
X070565Y003472D01*
X070554Y003461D01*
X070542Y003454D01*
X070528Y003449D01*
X070513Y003447D01*
X070452Y003447D01*
X070452Y003446D02*
X070435Y003444D01*
X070418Y003439D01*
X070403Y003431D01*
X070390Y003420D01*
X070379Y003407D01*
X070371Y003392D01*
X070366Y003375D01*
X070364Y003358D01*
X070364Y003347D01*
X070366Y003330D01*
X070371Y003313D01*
X070379Y003298D01*
X070390Y003285D01*
X070403Y003274D01*
X070418Y003266D01*
X070435Y003261D01*
X070452Y003259D01*
X070518Y003259D01*
X070532Y003257D01*
X070544Y003253D01*
X070556Y003246D01*
X070566Y003236D01*
X070573Y003224D01*
X070577Y003212D01*
X070579Y003198D01*
X070577Y003183D01*
X070572Y003169D01*
X070565Y003157D01*
X070554Y003146D01*
X070542Y003139D01*
X070528Y003134D01*
X070513Y003132D01*
X070171Y003132D01*
X069713Y002895D02*
X069801Y004236D01*
X069803Y004248D01*
X069809Y004259D01*
X069817Y004268D01*
X069827Y004275D01*
X069838Y004279D01*
X069850Y004280D01*
X069851Y004280D02*
X070127Y004280D01*
X069431Y004225D02*
X069519Y002889D01*
X069519Y002890D02*
X069522Y002871D01*
X069529Y002854D01*
X069538Y002838D01*
X069551Y002824D01*
X069566Y002813D01*
X069582Y002805D01*
X069600Y002800D01*
X069619Y002799D01*
X069637Y002801D01*
X069655Y002807D01*
X069671Y002816D01*
X069685Y002828D01*
X069697Y002843D01*
X069706Y002859D01*
X069711Y002877D01*
X069713Y002895D01*
X069519Y002619D02*
X069497Y002621D01*
X069476Y002626D01*
X069456Y002634D01*
X069438Y002645D01*
X069421Y002659D01*
X069407Y002676D01*
X069396Y002694D01*
X069388Y002714D01*
X069383Y002735D01*
X069381Y002757D01*
X069381Y002773D01*
X069315Y004219D01*
X069316Y004233D01*
X069320Y004247D01*
X069328Y004258D01*
X069338Y004268D01*
X069350Y004275D01*
X069363Y004279D01*
X069377Y004280D01*
X069391Y004277D01*
X069404Y004271D01*
X069414Y004263D01*
X069423Y004251D01*
X069429Y004239D01*
X069431Y004225D01*
X069078Y004252D02*
X069161Y002679D01*
X069160Y002679D02*
X069158Y002666D01*
X069152Y002653D01*
X069143Y002642D01*
X069132Y002634D01*
X069119Y002629D01*
X069105Y002627D01*
X069091Y002629D01*
X069078Y002634D01*
X069067Y002642D01*
X069058Y002653D01*
X069052Y002666D01*
X069050Y002679D01*
X068995Y003877D01*
X068995Y003905D01*
X068993Y003929D01*
X068988Y003952D01*
X068980Y003974D01*
X068969Y003995D01*
X068954Y004014D01*
X068938Y004030D01*
X068919Y004045D01*
X068898Y004056D01*
X068876Y004064D01*
X068853Y004069D01*
X068829Y004071D01*
X068829Y004070D02*
X068482Y004070D01*
X068458Y004068D01*
X068434Y004063D01*
X068411Y004055D01*
X068390Y004043D01*
X068370Y004028D01*
X068353Y004011D01*
X068338Y003991D01*
X068326Y003970D01*
X068318Y003947D01*
X068313Y003923D01*
X068311Y003899D01*
X068244Y002674D01*
X068245Y002674D02*
X068242Y002661D01*
X068236Y002648D01*
X068227Y002638D01*
X068216Y002630D01*
X068203Y002625D01*
X068189Y002624D01*
X068176Y002627D01*
X068163Y002633D01*
X068153Y002642D01*
X068145Y002653D01*
X068140Y002666D01*
X068139Y002680D01*
X068140Y002679D02*
X068222Y004264D01*
X068222Y004263D02*
X068224Y004284D01*
X068229Y004304D01*
X068237Y004323D01*
X068247Y004341D01*
X068261Y004357D01*
X068277Y004371D01*
X068295Y004381D01*
X068314Y004389D01*
X068334Y004394D01*
X068355Y004396D01*
X068934Y004396D01*
X068957Y004394D01*
X068978Y004389D01*
X068999Y004380D01*
X069019Y004368D01*
X069036Y004354D01*
X069050Y004337D01*
X069062Y004317D01*
X069071Y004296D01*
X069076Y004275D01*
X069078Y004252D01*
X067985Y004219D02*
X067919Y002773D01*
X067919Y002757D01*
X067917Y002735D01*
X067912Y002714D01*
X067904Y002694D01*
X067893Y002676D01*
X067879Y002659D01*
X067862Y002645D01*
X067844Y002634D01*
X067824Y002626D01*
X067803Y002621D01*
X067781Y002619D01*
X067174Y002619D01*
X067588Y002895D02*
X067499Y004236D01*
X067497Y004248D01*
X067491Y004259D01*
X067483Y004268D01*
X067473Y004275D01*
X067462Y004279D01*
X067450Y004280D01*
X067174Y004280D01*
X067869Y004225D02*
X067781Y002889D01*
X067781Y002890D02*
X067778Y002871D01*
X067771Y002854D01*
X067762Y002838D01*
X067749Y002824D01*
X067734Y002813D01*
X067718Y002805D01*
X067700Y002800D01*
X067681Y002799D01*
X067663Y002801D01*
X067645Y002807D01*
X067629Y002816D01*
X067615Y002828D01*
X067603Y002843D01*
X067594Y002859D01*
X067589Y002877D01*
X067587Y002895D01*
X067152Y003132D02*
X066782Y003132D01*
X066769Y003133D01*
X066756Y003138D01*
X066744Y003145D01*
X066734Y003155D01*
X066727Y003167D01*
X066722Y003180D01*
X066721Y003193D01*
X066721Y003193D01*
X066723Y003208D01*
X066728Y003222D01*
X066735Y003234D01*
X066746Y003245D01*
X066758Y003252D01*
X066772Y003257D01*
X066787Y003259D01*
X066848Y003259D01*
X066865Y003261D01*
X066882Y003266D01*
X066897Y003274D01*
X066910Y003285D01*
X066921Y003298D01*
X066929Y003313D01*
X066934Y003330D01*
X066936Y003347D01*
X066936Y003358D01*
X066934Y003375D01*
X066929Y003392D01*
X066921Y003407D01*
X066910Y003420D01*
X066897Y003431D01*
X066882Y003439D01*
X066865Y003444D01*
X066848Y003446D01*
X066848Y003447D02*
X066782Y003447D01*
X066782Y003446D02*
X066768Y003448D01*
X066756Y003452D01*
X066744Y003459D01*
X066734Y003469D01*
X066727Y003481D01*
X066723Y003493D01*
X066721Y003507D01*
X066723Y003522D01*
X066728Y003536D01*
X066735Y003548D01*
X066746Y003559D01*
X066758Y003566D01*
X066772Y003571D01*
X066787Y003573D01*
X066787Y003574D02*
X067130Y003574D01*
X067869Y004225D02*
X067871Y004239D01*
X067877Y004251D01*
X067886Y004263D01*
X067896Y004271D01*
X067909Y004277D01*
X067923Y004280D01*
X067937Y004279D01*
X067950Y004275D01*
X067962Y004268D01*
X067972Y004258D01*
X067980Y004247D01*
X067984Y004233D01*
X067985Y004219D01*
X070149Y003574D02*
X070149Y005654D01*
X070518Y005654D01*
X070519Y005655D02*
X070532Y005654D01*
X070545Y005649D01*
X070557Y005642D01*
X070567Y005632D01*
X070574Y005620D01*
X070579Y005607D01*
X070580Y005594D01*
X070579Y005594D02*
X070579Y005594D01*
X070577Y005579D01*
X070572Y005565D01*
X070565Y005553D01*
X070554Y005542D01*
X070542Y005535D01*
X070528Y005530D01*
X070513Y005528D01*
X070513Y005527D02*
X070452Y005527D01*
X070435Y005525D01*
X070418Y005520D01*
X070403Y005512D01*
X070390Y005501D01*
X070379Y005488D01*
X070371Y005473D01*
X070366Y005456D01*
X070364Y005439D01*
X070364Y005428D01*
X070366Y005411D01*
X070371Y005394D01*
X070379Y005379D01*
X070390Y005366D01*
X070403Y005355D01*
X070418Y005347D01*
X070435Y005342D01*
X070452Y005340D01*
X070518Y005340D01*
X070532Y005338D01*
X070544Y005334D01*
X070556Y005327D01*
X070566Y005317D01*
X070573Y005305D01*
X070577Y005293D01*
X070579Y005279D01*
X070577Y005264D01*
X070572Y005250D01*
X070565Y005238D01*
X070554Y005227D01*
X070542Y005220D01*
X070528Y005215D01*
X070513Y005213D01*
X070171Y005213D01*
X069508Y005285D02*
X069508Y005516D01*
X069510Y005538D01*
X069515Y005559D01*
X069523Y005579D01*
X069534Y005597D01*
X069548Y005614D01*
X069565Y005628D01*
X069583Y005639D01*
X069603Y005647D01*
X069624Y005652D01*
X069646Y005654D01*
X070149Y005654D01*
X066936Y005428D02*
X066934Y005411D01*
X066929Y005394D01*
X066921Y005379D01*
X066910Y005366D01*
X066897Y005355D01*
X066882Y005347D01*
X066865Y005342D01*
X066848Y005340D01*
X066787Y005340D01*
X066772Y005338D01*
X066758Y005333D01*
X066746Y005326D01*
X066735Y005315D01*
X066728Y005303D01*
X066723Y005289D01*
X066721Y005274D01*
X069519Y002619D02*
X070127Y002619D01*
X057930Y012870D02*
X056926Y012870D01*
X056335Y012870D02*
X055370Y012870D01*
X055370Y015115D01*
X055685Y015430D01*
X057615Y015430D02*
X057930Y015115D01*
X057930Y012870D01*
X056985Y012979D02*
X057051Y013000D01*
X057115Y013025D01*
X057178Y013053D01*
X057240Y013084D01*
X057300Y013119D01*
X057357Y013158D01*
X057412Y013200D01*
X057465Y013244D01*
X057515Y013292D01*
X057563Y013342D01*
X057607Y013395D01*
X057649Y013451D01*
X057687Y013509D01*
X057722Y013568D01*
X057753Y013630D01*
X057781Y013693D01*
X057805Y013758D01*
X057825Y013824D01*
X057842Y013891D01*
X057855Y013959D01*
X057864Y014028D01*
X057869Y014097D01*
X057870Y014166D01*
X057867Y014235D01*
X057860Y014304D01*
X057850Y014373D01*
X057835Y014440D01*
X057817Y014507D01*
X057795Y014573D01*
X057769Y014637D01*
X057740Y014699D01*
X057707Y014760D01*
X057670Y014819D01*
X057631Y014876D01*
X057588Y014930D01*
X057542Y014982D01*
X057494Y015032D01*
X057442Y015078D01*
X057388Y015121D01*
X057332Y015162D01*
X057274Y015198D01*
X057213Y015232D01*
X057151Y015262D01*
X057087Y015289D01*
X057021Y015312D01*
X056955Y015331D01*
X056315Y015321D02*
X056249Y015300D01*
X056185Y015275D01*
X056122Y015247D01*
X056060Y015216D01*
X056000Y015181D01*
X055943Y015142D01*
X055888Y015100D01*
X055835Y015056D01*
X055785Y015008D01*
X055737Y014958D01*
X055693Y014905D01*
X055651Y014849D01*
X055613Y014791D01*
X055578Y014732D01*
X055547Y014670D01*
X055519Y014607D01*
X055495Y014542D01*
X055475Y014476D01*
X055458Y014409D01*
X055445Y014341D01*
X055436Y014272D01*
X055431Y014203D01*
X055430Y014134D01*
X055433Y014065D01*
X055440Y013996D01*
X055450Y013927D01*
X055465Y013860D01*
X055483Y013793D01*
X055505Y013727D01*
X055531Y013663D01*
X055560Y013601D01*
X055593Y013540D01*
X055630Y013481D01*
X055669Y013424D01*
X055712Y013370D01*
X055758Y013318D01*
X055806Y013268D01*
X055858Y013222D01*
X055912Y013179D01*
X055968Y013138D01*
X056026Y013102D01*
X056087Y013068D01*
X056149Y013038D01*
X056213Y013011D01*
X056279Y012988D01*
X056345Y012969D01*
X051930Y012870D02*
X050926Y012870D01*
X050335Y012870D02*
X049370Y012870D01*
X049370Y015115D01*
X049685Y015430D01*
X051615Y015430D02*
X051930Y015115D01*
X051930Y012870D01*
X050985Y012979D02*
X051051Y013000D01*
X051115Y013025D01*
X051178Y013053D01*
X051240Y013084D01*
X051300Y013119D01*
X051357Y013158D01*
X051412Y013200D01*
X051465Y013244D01*
X051515Y013292D01*
X051563Y013342D01*
X051607Y013395D01*
X051649Y013451D01*
X051687Y013509D01*
X051722Y013568D01*
X051753Y013630D01*
X051781Y013693D01*
X051805Y013758D01*
X051825Y013824D01*
X051842Y013891D01*
X051855Y013959D01*
X051864Y014028D01*
X051869Y014097D01*
X051870Y014166D01*
X051867Y014235D01*
X051860Y014304D01*
X051850Y014373D01*
X051835Y014440D01*
X051817Y014507D01*
X051795Y014573D01*
X051769Y014637D01*
X051740Y014699D01*
X051707Y014760D01*
X051670Y014819D01*
X051631Y014876D01*
X051588Y014930D01*
X051542Y014982D01*
X051494Y015032D01*
X051442Y015078D01*
X051388Y015121D01*
X051332Y015162D01*
X051274Y015198D01*
X051213Y015232D01*
X051151Y015262D01*
X051087Y015289D01*
X051021Y015312D01*
X050955Y015331D01*
X050315Y015321D02*
X050249Y015300D01*
X050185Y015275D01*
X050122Y015247D01*
X050060Y015216D01*
X050000Y015181D01*
X049943Y015142D01*
X049888Y015100D01*
X049835Y015056D01*
X049785Y015008D01*
X049737Y014958D01*
X049693Y014905D01*
X049651Y014849D01*
X049613Y014791D01*
X049578Y014732D01*
X049547Y014670D01*
X049519Y014607D01*
X049495Y014542D01*
X049475Y014476D01*
X049458Y014409D01*
X049445Y014341D01*
X049436Y014272D01*
X049431Y014203D01*
X049430Y014134D01*
X049433Y014065D01*
X049440Y013996D01*
X049450Y013927D01*
X049465Y013860D01*
X049483Y013793D01*
X049505Y013727D01*
X049531Y013663D01*
X049560Y013601D01*
X049593Y013540D01*
X049630Y013481D01*
X049669Y013424D01*
X049712Y013370D01*
X049758Y013318D01*
X049806Y013268D01*
X049858Y013222D01*
X049912Y013179D01*
X049968Y013138D01*
X050026Y013102D01*
X050087Y013068D01*
X050149Y013038D01*
X050213Y013011D01*
X050279Y012988D01*
X050345Y012969D01*
X045930Y012870D02*
X044926Y012870D01*
X044335Y012870D02*
X043370Y012870D01*
X043370Y015115D01*
X043685Y015430D01*
X045615Y015430D02*
X045930Y015115D01*
X045930Y012870D01*
X044985Y012979D02*
X045051Y013000D01*
X045115Y013025D01*
X045178Y013053D01*
X045240Y013084D01*
X045300Y013119D01*
X045357Y013158D01*
X045412Y013200D01*
X045465Y013244D01*
X045515Y013292D01*
X045563Y013342D01*
X045607Y013395D01*
X045649Y013451D01*
X045687Y013509D01*
X045722Y013568D01*
X045753Y013630D01*
X045781Y013693D01*
X045805Y013758D01*
X045825Y013824D01*
X045842Y013891D01*
X045855Y013959D01*
X045864Y014028D01*
X045869Y014097D01*
X045870Y014166D01*
X045867Y014235D01*
X045860Y014304D01*
X045850Y014373D01*
X045835Y014440D01*
X045817Y014507D01*
X045795Y014573D01*
X045769Y014637D01*
X045740Y014699D01*
X045707Y014760D01*
X045670Y014819D01*
X045631Y014876D01*
X045588Y014930D01*
X045542Y014982D01*
X045494Y015032D01*
X045442Y015078D01*
X045388Y015121D01*
X045332Y015162D01*
X045274Y015198D01*
X045213Y015232D01*
X045151Y015262D01*
X045087Y015289D01*
X045021Y015312D01*
X044955Y015331D01*
X044315Y015321D02*
X044249Y015300D01*
X044185Y015275D01*
X044122Y015247D01*
X044060Y015216D01*
X044000Y015181D01*
X043943Y015142D01*
X043888Y015100D01*
X043835Y015056D01*
X043785Y015008D01*
X043737Y014958D01*
X043693Y014905D01*
X043651Y014849D01*
X043613Y014791D01*
X043578Y014732D01*
X043547Y014670D01*
X043519Y014607D01*
X043495Y014542D01*
X043475Y014476D01*
X043458Y014409D01*
X043445Y014341D01*
X043436Y014272D01*
X043431Y014203D01*
X043430Y014134D01*
X043433Y014065D01*
X043440Y013996D01*
X043450Y013927D01*
X043465Y013860D01*
X043483Y013793D01*
X043505Y013727D01*
X043531Y013663D01*
X043560Y013601D01*
X043593Y013540D01*
X043630Y013481D01*
X043669Y013424D01*
X043712Y013370D01*
X043758Y013318D01*
X043806Y013268D01*
X043858Y013222D01*
X043912Y013179D01*
X043968Y013138D01*
X044026Y013102D01*
X044087Y013068D01*
X044149Y013038D01*
X044213Y013011D01*
X044279Y012988D01*
X044345Y012969D01*
X037680Y014290D02*
X037010Y013620D01*
X036774Y013620D01*
X036026Y013620D02*
X035790Y013620D01*
X035120Y014290D01*
X035120Y016180D01*
X036026Y016180D01*
X036774Y016180D02*
X037680Y016180D01*
X037680Y014290D01*
X036026Y013739D02*
X035962Y013761D01*
X035899Y013788D01*
X035837Y013818D01*
X035778Y013851D01*
X035720Y013887D01*
X035664Y013927D01*
X035611Y013970D01*
X035560Y014015D01*
X035512Y014063D01*
X035467Y014114D01*
X035424Y014168D01*
X035385Y014224D01*
X035348Y014281D01*
X035315Y014341D01*
X035286Y014403D01*
X035260Y014466D01*
X035237Y014530D01*
X035218Y014596D01*
X035203Y014663D01*
X035192Y014730D01*
X035184Y014798D01*
X035180Y014866D01*
X035180Y014934D01*
X035184Y015002D01*
X035192Y015070D01*
X035203Y015137D01*
X035218Y015204D01*
X035237Y015270D01*
X035260Y015334D01*
X035286Y015397D01*
X035315Y015459D01*
X035348Y015519D01*
X035385Y015576D01*
X035424Y015632D01*
X035467Y015686D01*
X035512Y015737D01*
X035560Y015785D01*
X035611Y015830D01*
X035664Y015873D01*
X035720Y015913D01*
X035778Y015949D01*
X035837Y015982D01*
X035899Y016012D01*
X035962Y016039D01*
X036026Y016061D01*
X036774Y016061D02*
X036838Y016039D01*
X036901Y016012D01*
X036963Y015982D01*
X037022Y015949D01*
X037080Y015913D01*
X037136Y015873D01*
X037189Y015830D01*
X037240Y015785D01*
X037288Y015737D01*
X037333Y015686D01*
X037376Y015632D01*
X037415Y015576D01*
X037452Y015519D01*
X037485Y015459D01*
X037514Y015397D01*
X037540Y015334D01*
X037563Y015270D01*
X037582Y015204D01*
X037597Y015137D01*
X037608Y015070D01*
X037616Y015002D01*
X037620Y014934D01*
X037620Y014866D01*
X037616Y014798D01*
X037608Y014730D01*
X037597Y014663D01*
X037582Y014596D01*
X037563Y014530D01*
X037540Y014466D01*
X037514Y014403D01*
X037485Y014341D01*
X037452Y014281D01*
X037415Y014224D01*
X037376Y014168D01*
X037333Y014114D01*
X037288Y014063D01*
X037240Y014015D01*
X037189Y013970D01*
X037136Y013927D01*
X037080Y013887D01*
X037022Y013851D01*
X036963Y013818D01*
X036901Y013788D01*
X036838Y013761D01*
X036774Y013739D01*
X029180Y014290D02*
X028510Y013620D01*
X028274Y013620D01*
X027526Y013620D02*
X027290Y013620D01*
X026620Y014290D01*
X026620Y016180D01*
X027526Y016180D01*
X028274Y016180D02*
X029180Y016180D01*
X029180Y014290D01*
X027526Y013739D02*
X027462Y013761D01*
X027399Y013788D01*
X027337Y013818D01*
X027278Y013851D01*
X027220Y013887D01*
X027164Y013927D01*
X027111Y013970D01*
X027060Y014015D01*
X027012Y014063D01*
X026967Y014114D01*
X026924Y014168D01*
X026885Y014224D01*
X026848Y014281D01*
X026815Y014341D01*
X026786Y014403D01*
X026760Y014466D01*
X026737Y014530D01*
X026718Y014596D01*
X026703Y014663D01*
X026692Y014730D01*
X026684Y014798D01*
X026680Y014866D01*
X026680Y014934D01*
X026684Y015002D01*
X026692Y015070D01*
X026703Y015137D01*
X026718Y015204D01*
X026737Y015270D01*
X026760Y015334D01*
X026786Y015397D01*
X026815Y015459D01*
X026848Y015519D01*
X026885Y015576D01*
X026924Y015632D01*
X026967Y015686D01*
X027012Y015737D01*
X027060Y015785D01*
X027111Y015830D01*
X027164Y015873D01*
X027220Y015913D01*
X027278Y015949D01*
X027337Y015982D01*
X027399Y016012D01*
X027462Y016039D01*
X027526Y016061D01*
X028274Y016061D02*
X028338Y016039D01*
X028401Y016012D01*
X028463Y015982D01*
X028522Y015949D01*
X028580Y015913D01*
X028636Y015873D01*
X028689Y015830D01*
X028740Y015785D01*
X028788Y015737D01*
X028833Y015686D01*
X028876Y015632D01*
X028915Y015576D01*
X028952Y015519D01*
X028985Y015459D01*
X029014Y015397D01*
X029040Y015334D01*
X029063Y015270D01*
X029082Y015204D01*
X029097Y015137D01*
X029108Y015070D01*
X029116Y015002D01*
X029120Y014934D01*
X029120Y014866D01*
X029116Y014798D01*
X029108Y014730D01*
X029097Y014663D01*
X029082Y014596D01*
X029063Y014530D01*
X029040Y014466D01*
X029014Y014403D01*
X028985Y014341D01*
X028952Y014281D01*
X028915Y014224D01*
X028876Y014168D01*
X028833Y014114D01*
X028788Y014063D01*
X028740Y014015D01*
X028689Y013970D01*
X028636Y013927D01*
X028580Y013887D01*
X028522Y013851D01*
X028463Y013818D01*
X028401Y013788D01*
X028338Y013761D01*
X028274Y013739D01*
X020680Y014290D02*
X020010Y013620D01*
X019774Y013620D01*
X019026Y013620D02*
X018790Y013620D01*
X018120Y014290D01*
X018120Y016180D01*
X019026Y016180D01*
X019774Y016180D02*
X020680Y016180D01*
X020680Y014290D01*
X019026Y013739D02*
X018962Y013761D01*
X018899Y013788D01*
X018837Y013818D01*
X018778Y013851D01*
X018720Y013887D01*
X018664Y013927D01*
X018611Y013970D01*
X018560Y014015D01*
X018512Y014063D01*
X018467Y014114D01*
X018424Y014168D01*
X018385Y014224D01*
X018348Y014281D01*
X018315Y014341D01*
X018286Y014403D01*
X018260Y014466D01*
X018237Y014530D01*
X018218Y014596D01*
X018203Y014663D01*
X018192Y014730D01*
X018184Y014798D01*
X018180Y014866D01*
X018180Y014934D01*
X018184Y015002D01*
X018192Y015070D01*
X018203Y015137D01*
X018218Y015204D01*
X018237Y015270D01*
X018260Y015334D01*
X018286Y015397D01*
X018315Y015459D01*
X018348Y015519D01*
X018385Y015576D01*
X018424Y015632D01*
X018467Y015686D01*
X018512Y015737D01*
X018560Y015785D01*
X018611Y015830D01*
X018664Y015873D01*
X018720Y015913D01*
X018778Y015949D01*
X018837Y015982D01*
X018899Y016012D01*
X018962Y016039D01*
X019026Y016061D01*
X019774Y016061D02*
X019838Y016039D01*
X019901Y016012D01*
X019963Y015982D01*
X020022Y015949D01*
X020080Y015913D01*
X020136Y015873D01*
X020189Y015830D01*
X020240Y015785D01*
X020288Y015737D01*
X020333Y015686D01*
X020376Y015632D01*
X020415Y015576D01*
X020452Y015519D01*
X020485Y015459D01*
X020514Y015397D01*
X020540Y015334D01*
X020563Y015270D01*
X020582Y015204D01*
X020597Y015137D01*
X020608Y015070D01*
X020616Y015002D01*
X020620Y014934D01*
X020620Y014866D01*
X020616Y014798D01*
X020608Y014730D01*
X020597Y014663D01*
X020582Y014596D01*
X020563Y014530D01*
X020540Y014466D01*
X020514Y014403D01*
X020485Y014341D01*
X020452Y014281D01*
X020415Y014224D01*
X020376Y014168D01*
X020333Y014114D01*
X020288Y014063D01*
X020240Y014015D01*
X020189Y013970D01*
X020136Y013927D01*
X020080Y013887D01*
X020022Y013851D01*
X019963Y013818D01*
X019901Y013788D01*
X019838Y013761D01*
X019774Y013739D01*
X012180Y014290D02*
X011510Y013620D01*
X011274Y013620D01*
X010526Y013620D02*
X010290Y013620D01*
X009620Y014290D01*
X009620Y016180D01*
X010526Y016180D01*
X011274Y016180D02*
X012180Y016180D01*
X012180Y014290D01*
X010526Y013739D02*
X010462Y013761D01*
X010399Y013788D01*
X010337Y013818D01*
X010278Y013851D01*
X010220Y013887D01*
X010164Y013927D01*
X010111Y013970D01*
X010060Y014015D01*
X010012Y014063D01*
X009967Y014114D01*
X009924Y014168D01*
X009885Y014224D01*
X009848Y014281D01*
X009815Y014341D01*
X009786Y014403D01*
X009760Y014466D01*
X009737Y014530D01*
X009718Y014596D01*
X009703Y014663D01*
X009692Y014730D01*
X009684Y014798D01*
X009680Y014866D01*
X009680Y014934D01*
X009684Y015002D01*
X009692Y015070D01*
X009703Y015137D01*
X009718Y015204D01*
X009737Y015270D01*
X009760Y015334D01*
X009786Y015397D01*
X009815Y015459D01*
X009848Y015519D01*
X009885Y015576D01*
X009924Y015632D01*
X009967Y015686D01*
X010012Y015737D01*
X010060Y015785D01*
X010111Y015830D01*
X010164Y015873D01*
X010220Y015913D01*
X010278Y015949D01*
X010337Y015982D01*
X010399Y016012D01*
X010462Y016039D01*
X010526Y016061D01*
X011274Y016061D02*
X011338Y016039D01*
X011401Y016012D01*
X011463Y015982D01*
X011522Y015949D01*
X011580Y015913D01*
X011636Y015873D01*
X011689Y015830D01*
X011740Y015785D01*
X011788Y015737D01*
X011833Y015686D01*
X011876Y015632D01*
X011915Y015576D01*
X011952Y015519D01*
X011985Y015459D01*
X012014Y015397D01*
X012040Y015334D01*
X012063Y015270D01*
X012082Y015204D01*
X012097Y015137D01*
X012108Y015070D01*
X012116Y015002D01*
X012120Y014934D01*
X012120Y014866D01*
X012116Y014798D01*
X012108Y014730D01*
X012097Y014663D01*
X012082Y014596D01*
X012063Y014530D01*
X012040Y014466D01*
X012014Y014403D01*
X011985Y014341D01*
X011952Y014281D01*
X011915Y014224D01*
X011876Y014168D01*
X011833Y014114D01*
X011788Y014063D01*
X011740Y014015D01*
X011689Y013970D01*
X011636Y013927D01*
X011580Y013887D01*
X011522Y013851D01*
X011463Y013818D01*
X011401Y013788D01*
X011338Y013761D01*
X011274Y013739D01*
D11*
X007775Y008925D02*
X006775Y008925D01*
X006758Y008923D01*
X006741Y008919D01*
X006725Y008912D01*
X006711Y008902D01*
X006698Y008889D01*
X006688Y008875D01*
X006681Y008859D01*
X006677Y008842D01*
X006675Y008825D01*
X006675Y008225D01*
X006677Y008208D01*
X006681Y008191D01*
X006688Y008175D01*
X006698Y008161D01*
X006711Y008148D01*
X006725Y008138D01*
X006741Y008131D01*
X006758Y008127D01*
X006775Y008125D01*
X007775Y008125D01*
X007792Y008127D01*
X007809Y008131D01*
X007825Y008138D01*
X007839Y008148D01*
X007852Y008161D01*
X007862Y008175D01*
X007869Y008191D01*
X007873Y008208D01*
X007875Y008225D01*
X007875Y008825D01*
X007873Y008842D01*
X007869Y008859D01*
X007862Y008875D01*
X007852Y008889D01*
X007839Y008902D01*
X007825Y008912D01*
X007809Y008919D01*
X007792Y008923D01*
X007775Y008925D01*
X015550Y008700D02*
X015550Y008100D01*
X015552Y008083D01*
X015556Y008066D01*
X015563Y008050D01*
X015573Y008036D01*
X015586Y008023D01*
X015600Y008013D01*
X015616Y008006D01*
X015633Y008002D01*
X015650Y008000D01*
X016650Y008000D01*
X016667Y008002D01*
X016684Y008006D01*
X016700Y008013D01*
X016714Y008023D01*
X016727Y008036D01*
X016737Y008050D01*
X016744Y008066D01*
X016748Y008083D01*
X016750Y008100D01*
X016750Y008700D01*
X016748Y008717D01*
X016744Y008734D01*
X016737Y008750D01*
X016727Y008764D01*
X016714Y008777D01*
X016700Y008787D01*
X016684Y008794D01*
X016667Y008798D01*
X016650Y008800D01*
X015650Y008800D01*
X015633Y008798D01*
X015616Y008794D01*
X015600Y008787D01*
X015586Y008777D01*
X015573Y008764D01*
X015563Y008750D01*
X015556Y008734D01*
X015552Y008717D01*
X015550Y008700D01*
X024175Y008575D02*
X024175Y007975D01*
X024177Y007958D01*
X024181Y007941D01*
X024188Y007925D01*
X024198Y007911D01*
X024211Y007898D01*
X024225Y007888D01*
X024241Y007881D01*
X024258Y007877D01*
X024275Y007875D01*
X025275Y007875D01*
X025292Y007877D01*
X025309Y007881D01*
X025325Y007888D01*
X025339Y007898D01*
X025352Y007911D01*
X025362Y007925D01*
X025369Y007941D01*
X025373Y007958D01*
X025375Y007975D01*
X025375Y008575D01*
X025373Y008592D01*
X025369Y008609D01*
X025362Y008625D01*
X025352Y008639D01*
X025339Y008652D01*
X025325Y008662D01*
X025309Y008669D01*
X025292Y008673D01*
X025275Y008675D01*
X024275Y008675D01*
X024258Y008673D01*
X024241Y008669D01*
X024225Y008662D01*
X024211Y008652D01*
X024198Y008639D01*
X024188Y008625D01*
X024181Y008609D01*
X024177Y008592D01*
X024175Y008575D01*
X032425Y008575D02*
X032425Y007975D01*
X032427Y007958D01*
X032431Y007941D01*
X032438Y007925D01*
X032448Y007911D01*
X032461Y007898D01*
X032475Y007888D01*
X032491Y007881D01*
X032508Y007877D01*
X032525Y007875D01*
X033525Y007875D01*
X033542Y007877D01*
X033559Y007881D01*
X033575Y007888D01*
X033589Y007898D01*
X033602Y007911D01*
X033612Y007925D01*
X033619Y007941D01*
X033623Y007958D01*
X033625Y007975D01*
X033625Y008575D01*
X033623Y008592D01*
X033619Y008609D01*
X033612Y008625D01*
X033602Y008639D01*
X033589Y008652D01*
X033575Y008662D01*
X033559Y008669D01*
X033542Y008673D01*
X033525Y008675D01*
X032525Y008675D01*
X032508Y008673D01*
X032491Y008669D01*
X032475Y008662D01*
X032461Y008652D01*
X032448Y008639D01*
X032438Y008625D01*
X032431Y008609D01*
X032427Y008592D01*
X032425Y008575D01*
X039881Y010085D02*
X039881Y010715D01*
X039881Y010734D01*
X039885Y010753D01*
X039891Y010771D01*
X039901Y010787D01*
X039913Y010802D01*
X039927Y010814D01*
X039944Y010824D01*
X039961Y010830D01*
X039980Y010834D01*
X039980Y010833D02*
X040570Y010833D01*
X040570Y010834D02*
X040589Y010830D01*
X040606Y010824D01*
X040623Y010814D01*
X040637Y010802D01*
X040649Y010787D01*
X040659Y010771D01*
X040665Y010753D01*
X040669Y010734D01*
X040669Y010715D01*
X040669Y010085D01*
X040670Y010085D02*
X040670Y010066D01*
X040666Y010047D01*
X040660Y010029D01*
X040651Y010013D01*
X040638Y009998D01*
X040624Y009986D01*
X040607Y009976D01*
X040589Y009970D01*
X040571Y009966D01*
X040570Y009967D02*
X039980Y009967D01*
X039980Y009966D02*
X039961Y009970D01*
X039944Y009976D01*
X039927Y009986D01*
X039913Y009998D01*
X039901Y010013D01*
X039891Y010029D01*
X039885Y010047D01*
X039881Y010066D01*
X039881Y010085D01*
X041300Y010275D02*
X041302Y010324D01*
X041308Y010372D01*
X041318Y010420D01*
X041332Y010467D01*
X041349Y010513D01*
X041370Y010557D01*
X041395Y010599D01*
X041423Y010639D01*
X041455Y010677D01*
X041489Y010712D01*
X041526Y010744D01*
X041565Y010773D01*
X041607Y010799D01*
X041651Y010821D01*
X041696Y010839D01*
X041743Y010854D01*
X041790Y010865D01*
X041839Y010872D01*
X041888Y010875D01*
X041937Y010874D01*
X041985Y010869D01*
X042034Y010860D01*
X042081Y010847D01*
X042127Y010830D01*
X042171Y010810D01*
X042214Y010786D01*
X042255Y010759D01*
X042293Y010728D01*
X042329Y010695D01*
X042361Y010659D01*
X042391Y010620D01*
X042418Y010579D01*
X042441Y010535D01*
X042460Y010490D01*
X042476Y010444D01*
X042488Y010397D01*
X042496Y010348D01*
X042500Y010299D01*
X042500Y010251D01*
X042496Y010202D01*
X042488Y010153D01*
X042476Y010106D01*
X042460Y010060D01*
X042441Y010015D01*
X042418Y009971D01*
X042391Y009930D01*
X042361Y009891D01*
X042329Y009855D01*
X042293Y009822D01*
X042255Y009791D01*
X042214Y009764D01*
X042171Y009740D01*
X042127Y009720D01*
X042081Y009703D01*
X042034Y009690D01*
X041985Y009681D01*
X041937Y009676D01*
X041888Y009675D01*
X041839Y009678D01*
X041790Y009685D01*
X041743Y009696D01*
X041696Y009711D01*
X041651Y009729D01*
X041607Y009751D01*
X041565Y009777D01*
X041526Y009806D01*
X041489Y009838D01*
X041455Y009873D01*
X041423Y009911D01*
X041395Y009951D01*
X041370Y009993D01*
X041349Y010037D01*
X041332Y010083D01*
X041318Y010130D01*
X041308Y010178D01*
X041302Y010226D01*
X041300Y010275D01*
X041074Y012094D02*
X041074Y012331D01*
X040601Y012331D02*
X040601Y012094D01*
X067880Y011500D02*
X067880Y007800D01*
X067882Y007777D01*
X067887Y007754D01*
X067896Y007732D01*
X067909Y007712D01*
X067924Y007694D01*
X067942Y007679D01*
X067962Y007666D01*
X067984Y007657D01*
X068007Y007652D01*
X068030Y007650D01*
X069270Y007650D01*
X069293Y007652D01*
X069316Y007657D01*
X069338Y007666D01*
X069358Y007679D01*
X069376Y007694D01*
X069391Y007712D01*
X069404Y007732D01*
X069413Y007754D01*
X069418Y007777D01*
X069420Y007800D01*
X069420Y011500D01*
X069418Y011523D01*
X069413Y011546D01*
X069404Y011568D01*
X069391Y011588D01*
X069376Y011606D01*
X069358Y011621D01*
X069338Y011634D01*
X069316Y011643D01*
X069293Y011648D01*
X069270Y011650D01*
X068850Y011650D01*
X068450Y011650D01*
X068030Y011650D01*
X068007Y011648D01*
X067984Y011643D01*
X067962Y011634D01*
X067942Y011621D01*
X067924Y011606D01*
X067909Y011588D01*
X067896Y011568D01*
X067887Y011546D01*
X067882Y011523D01*
X067880Y011500D01*
X068450Y011650D02*
X068452Y011623D01*
X068457Y011596D01*
X068467Y011570D01*
X068479Y011546D01*
X068495Y011524D01*
X068513Y011504D01*
X068535Y011487D01*
X068558Y011472D01*
X068583Y011462D01*
X068609Y011454D01*
X068636Y011450D01*
X068664Y011450D01*
X068691Y011454D01*
X068717Y011462D01*
X068742Y011472D01*
X068765Y011487D01*
X068787Y011504D01*
X068805Y011524D01*
X068821Y011546D01*
X068833Y011570D01*
X068843Y011596D01*
X068848Y011623D01*
X068850Y011650D01*
X073998Y011697D02*
X076302Y011697D01*
X076302Y007603D01*
X073998Y007603D01*
X073998Y011697D01*
X075737Y007987D02*
X075739Y008013D01*
X075745Y008039D01*
X075754Y008064D01*
X075767Y008087D01*
X075783Y008108D01*
X075802Y008126D01*
X075824Y008142D01*
X075847Y008154D01*
X075872Y008162D01*
X075898Y008167D01*
X075925Y008168D01*
X075951Y008165D01*
X075976Y008158D01*
X076001Y008148D01*
X076023Y008134D01*
X076044Y008117D01*
X076061Y008098D01*
X076076Y008076D01*
X076087Y008052D01*
X076095Y008026D01*
X076099Y008000D01*
X076099Y007974D01*
X076095Y007948D01*
X076087Y007922D01*
X076076Y007898D01*
X076061Y007876D01*
X076044Y007857D01*
X076023Y007840D01*
X076001Y007826D01*
X075976Y007816D01*
X075951Y007809D01*
X075925Y007806D01*
X075898Y007807D01*
X075872Y007812D01*
X075847Y007820D01*
X075824Y007832D01*
X075802Y007848D01*
X075783Y007866D01*
X075767Y007887D01*
X075754Y007910D01*
X075745Y007935D01*
X075739Y007961D01*
X075737Y007987D01*
X075900Y004650D02*
X075400Y004650D01*
X075150Y004400D01*
X075150Y002900D01*
X074900Y002650D01*
X074400Y002650D01*
X074150Y002900D01*
X074150Y004400D01*
X073900Y004650D01*
X073400Y004650D01*
X073150Y004400D01*
X072900Y004650D01*
X072400Y004650D01*
X072150Y004400D01*
X072150Y002900D01*
X072400Y002650D01*
X072900Y002650D01*
X073150Y002900D01*
X073150Y004400D01*
X074150Y004400D02*
X074400Y004650D01*
X074900Y004650D01*
X075150Y004400D01*
X075900Y004650D02*
X076150Y004400D01*
X076150Y002900D01*
X075900Y002650D01*
X075400Y002650D01*
X075150Y002900D01*
X076150Y002900D02*
X076400Y002650D01*
X076900Y002650D01*
X077150Y002900D01*
X077150Y004400D01*
X076900Y004650D01*
X076400Y004650D01*
X076150Y004400D01*
X074150Y002900D02*
X073900Y002650D01*
X073400Y002650D01*
X073150Y002900D01*
X073188Y019779D02*
X073188Y020420D01*
X073508Y020420D01*
X073615Y020313D01*
X073615Y020099D01*
X073508Y019993D01*
X073188Y019993D01*
X072970Y020099D02*
X072970Y020313D01*
X072864Y020420D01*
X072650Y020420D01*
X072543Y020313D01*
X072543Y020099D01*
X072650Y019993D01*
X072864Y019993D01*
X072970Y020099D01*
X072327Y019993D02*
X072220Y020099D01*
X072220Y020526D01*
X072114Y020420D02*
X072327Y020420D01*
X071896Y020420D02*
X071576Y020420D01*
X071469Y020313D01*
X071576Y020206D01*
X071789Y020206D01*
X071896Y020099D01*
X071789Y019993D01*
X071469Y019993D01*
X071252Y020313D02*
X070825Y020313D01*
X070607Y020420D02*
X070180Y019993D01*
X070607Y019993D01*
X070607Y020420D02*
X070180Y020420D01*
X069615Y020313D02*
X069615Y020099D01*
X069508Y019993D01*
X069188Y019993D01*
X069188Y019779D02*
X069188Y020420D01*
X069508Y020420D01*
X069615Y020313D01*
X068970Y020313D02*
X068970Y020099D01*
X068864Y019993D01*
X068650Y019993D01*
X068543Y020099D01*
X068543Y020313D01*
X068650Y020420D01*
X068864Y020420D01*
X068970Y020313D01*
X068327Y020420D02*
X068114Y020420D01*
X068220Y020526D02*
X068220Y020099D01*
X068327Y019993D01*
X067896Y020099D02*
X067789Y020206D01*
X067576Y020206D01*
X067469Y020313D01*
X067576Y020420D01*
X067896Y020420D01*
X067896Y020099D02*
X067789Y019993D01*
X067469Y019993D01*
X067252Y020313D02*
X066825Y020313D01*
X066607Y020420D02*
X066607Y019886D01*
X066500Y019779D01*
X066394Y019779D01*
X066287Y019993D02*
X066607Y019993D01*
X066287Y019993D02*
X066180Y020099D01*
X066180Y020420D01*
X065677Y020375D02*
X065677Y020162D01*
X065571Y020055D01*
X065250Y020055D01*
X065250Y019841D02*
X065250Y020482D01*
X065571Y020482D01*
X065677Y020375D01*
X065033Y020375D02*
X065033Y020162D01*
X064926Y020055D01*
X064713Y020055D01*
X064606Y020162D01*
X064606Y020375D01*
X064713Y020482D01*
X064926Y020482D01*
X065033Y020375D01*
X064390Y020482D02*
X064176Y020482D01*
X064283Y020589D02*
X064283Y020162D01*
X064390Y020055D01*
X063959Y020162D02*
X063852Y020269D01*
X063638Y020269D01*
X063532Y020375D01*
X063638Y020482D01*
X063959Y020482D01*
X063314Y020375D02*
X062887Y020375D01*
X062670Y020482D02*
X062243Y020055D01*
X062243Y020482D02*
X062670Y020055D01*
X063532Y020055D02*
X063852Y020055D01*
X063959Y020162D01*
X059681Y020118D02*
X059681Y020438D01*
X059575Y020545D01*
X059254Y020545D01*
X059254Y020118D01*
X059037Y020118D02*
X058716Y020118D01*
X058610Y020224D01*
X058716Y020331D01*
X059037Y020331D01*
X059037Y020438D02*
X059037Y020118D01*
X059037Y020438D02*
X058930Y020545D01*
X058716Y020545D01*
X058394Y020438D02*
X058180Y020438D01*
X058287Y020651D02*
X058287Y020118D01*
X058287Y020651D02*
X058394Y020758D01*
X055259Y020821D02*
X055259Y020180D01*
X054939Y020180D01*
X054832Y020287D01*
X054832Y020500D01*
X054939Y020607D01*
X055259Y020607D01*
X054615Y020500D02*
X054615Y020180D01*
X054188Y020180D02*
X054188Y020607D01*
X054508Y020607D01*
X054615Y020500D01*
X053970Y020500D02*
X053970Y020394D01*
X053543Y020394D01*
X053543Y020500D02*
X053543Y020287D01*
X053650Y020180D01*
X053864Y020180D01*
X052683Y020180D02*
X052576Y020287D01*
X052576Y020714D01*
X052469Y020607D02*
X052683Y020607D01*
X052252Y020500D02*
X052252Y020287D01*
X052145Y020180D01*
X051931Y020180D01*
X051825Y020287D01*
X051825Y020500D01*
X051931Y020607D01*
X052145Y020607D01*
X052252Y020500D01*
X051607Y020500D02*
X051607Y020180D01*
X051180Y020180D02*
X051180Y020821D01*
X051287Y020607D02*
X051500Y020607D01*
X051607Y020500D01*
X051287Y020607D02*
X051180Y020500D01*
X053543Y020500D02*
X053650Y020607D01*
X053864Y020607D01*
X053970Y020500D01*
X047646Y020670D02*
X047326Y020670D01*
X047219Y020563D01*
X047219Y020349D01*
X047326Y020243D01*
X047646Y020243D01*
X047646Y020883D01*
X047002Y020563D02*
X047002Y020456D01*
X046575Y020456D01*
X046575Y020349D02*
X046575Y020563D01*
X046681Y020670D01*
X046895Y020670D01*
X047002Y020563D01*
X046895Y020243D02*
X046681Y020243D01*
X046575Y020349D01*
X046357Y020349D02*
X046357Y020563D01*
X046250Y020670D01*
X045930Y020670D01*
X045930Y020883D02*
X045930Y020243D01*
X046250Y020243D01*
X046357Y020349D01*
X042328Y021295D02*
X042222Y021295D01*
X042008Y021081D01*
X042008Y020868D02*
X042008Y021295D01*
X041791Y021188D02*
X041791Y021081D01*
X041364Y021081D01*
X041364Y020974D02*
X041364Y021188D01*
X041470Y021295D01*
X041684Y021295D01*
X041791Y021188D01*
X041470Y020868D02*
X041364Y020974D01*
X041470Y020868D02*
X041684Y020868D01*
X041146Y020974D02*
X041146Y021295D01*
X041146Y020974D02*
X041039Y020868D01*
X040933Y020974D01*
X040826Y020868D01*
X040719Y020974D01*
X040719Y021295D01*
X040502Y021188D02*
X040502Y020974D01*
X040395Y020868D01*
X040181Y020868D01*
X040075Y020974D01*
X040075Y021188D01*
X040181Y021295D01*
X040395Y021295D01*
X040502Y021188D01*
X039857Y021188D02*
X039857Y020974D01*
X039750Y020868D01*
X039430Y020868D01*
X039430Y020654D02*
X039430Y021295D01*
X039750Y021295D01*
X039857Y021188D01*
X039644Y020526D02*
X039644Y020099D01*
X039857Y020313D02*
X039430Y020313D01*
X041493Y020375D02*
X041920Y020375D01*
X035403Y020545D02*
X035296Y020545D01*
X035082Y020331D01*
X035082Y020118D02*
X035082Y020545D01*
X034865Y020438D02*
X034758Y020545D01*
X034545Y020545D01*
X034438Y020438D01*
X034438Y020224D01*
X034545Y020118D01*
X034758Y020118D01*
X034865Y020224D01*
X034865Y020438D01*
X034222Y020545D02*
X034008Y020545D01*
X034115Y020651D02*
X034115Y020224D01*
X034222Y020118D01*
X033791Y020224D02*
X033791Y020438D01*
X033684Y020545D01*
X033470Y020545D01*
X033364Y020438D01*
X033364Y020224D01*
X033470Y020118D01*
X033684Y020118D01*
X033791Y020224D01*
X033146Y020118D02*
X033146Y020438D01*
X033039Y020545D01*
X032933Y020438D01*
X032933Y020118D01*
X032719Y020118D02*
X032719Y020545D01*
X032826Y020545D01*
X032933Y020438D01*
X031857Y020758D02*
X031430Y020758D01*
X031430Y020118D01*
X031857Y020118D01*
X031644Y020438D02*
X031430Y020438D01*
X026715Y020482D02*
X026608Y020482D01*
X026395Y020269D01*
X026395Y020482D02*
X026395Y020055D01*
X026177Y020162D02*
X026177Y020375D01*
X026071Y020482D01*
X025857Y020482D01*
X025750Y020375D01*
X025750Y020162D01*
X025857Y020055D01*
X026071Y020055D01*
X026177Y020162D01*
X025534Y020055D02*
X025427Y020162D01*
X025427Y020589D01*
X025321Y020482D02*
X025534Y020482D01*
X025103Y020375D02*
X024996Y020482D01*
X024783Y020482D01*
X024676Y020375D01*
X024676Y020162D01*
X024783Y020055D01*
X024996Y020055D01*
X025103Y020162D01*
X025103Y020375D01*
X024459Y020375D02*
X024459Y020055D01*
X024245Y020055D02*
X024245Y020375D01*
X024352Y020482D01*
X024459Y020375D01*
X024245Y020375D02*
X024138Y020482D01*
X024032Y020482D01*
X024032Y020055D01*
X023170Y020055D02*
X022743Y020055D01*
X022743Y020162D01*
X023170Y020589D01*
X023170Y020696D01*
X022743Y020696D01*
X018340Y020545D02*
X018233Y020545D01*
X018020Y020331D01*
X018020Y020118D02*
X018020Y020545D01*
X017802Y020438D02*
X017696Y020545D01*
X017482Y020545D01*
X017375Y020438D01*
X017375Y020224D01*
X017482Y020118D01*
X017696Y020118D01*
X017802Y020224D01*
X017802Y020438D01*
X017159Y020545D02*
X016946Y020545D01*
X017052Y020651D02*
X017052Y020224D01*
X017159Y020118D01*
X016728Y020224D02*
X016728Y020438D01*
X016621Y020545D01*
X016408Y020545D01*
X016301Y020438D01*
X016301Y020224D01*
X016408Y020118D01*
X016621Y020118D01*
X016728Y020224D01*
X016084Y020118D02*
X016084Y020438D01*
X015977Y020545D01*
X015870Y020438D01*
X015870Y020118D01*
X015657Y020118D02*
X015657Y020545D01*
X015763Y020545D01*
X015870Y020438D01*
X014795Y020651D02*
X014795Y020758D01*
X014795Y020651D02*
X014581Y020438D01*
X014581Y020118D01*
X014581Y020438D02*
X014368Y020651D01*
X014368Y020758D01*
X009715Y020545D02*
X009608Y020545D01*
X009395Y020331D01*
X009395Y020118D02*
X009395Y020545D01*
X009177Y020438D02*
X009071Y020545D01*
X008857Y020545D01*
X008750Y020438D01*
X008750Y020224D01*
X008857Y020118D01*
X009071Y020118D01*
X009177Y020224D01*
X009177Y020438D01*
X008534Y020545D02*
X008321Y020545D01*
X008427Y020651D02*
X008427Y020224D01*
X008534Y020118D01*
X008103Y020224D02*
X008103Y020438D01*
X007996Y020545D01*
X007783Y020545D01*
X007676Y020438D01*
X007676Y020224D01*
X007783Y020118D01*
X007996Y020118D01*
X008103Y020224D01*
X007459Y020118D02*
X007459Y020438D01*
X007352Y020545D01*
X007245Y020438D01*
X007245Y020118D01*
X007032Y020118D02*
X007032Y020545D01*
X007138Y020545D01*
X007245Y020438D01*
X006170Y020118D02*
X005743Y020758D01*
X006170Y020758D02*
X005743Y020118D01*
X074368Y019993D02*
X074688Y019993D01*
X074795Y020099D01*
X074795Y020313D01*
X074688Y020420D01*
X074368Y020420D01*
X074368Y020633D02*
X074368Y019993D01*
X075119Y020099D02*
X075226Y019993D01*
X075119Y020099D02*
X075119Y020526D01*
X075012Y020420D02*
X075226Y020420D01*
X075442Y020313D02*
X075549Y020420D01*
X075762Y020420D01*
X075869Y020313D01*
X075869Y020206D01*
X075442Y020206D01*
X075442Y020099D02*
X075442Y020313D01*
X075442Y020099D02*
X075549Y019993D01*
X075762Y019993D01*
X076086Y019993D02*
X076086Y020420D01*
X076193Y020420D01*
X076300Y020313D01*
X076407Y020420D01*
X076513Y020313D01*
X076513Y019993D01*
X076300Y019993D02*
X076300Y020313D01*
X076731Y020420D02*
X077051Y020420D01*
X077158Y020313D01*
X077158Y020099D01*
X077051Y019993D01*
X076731Y019993D01*
X076731Y019779D02*
X076731Y020420D01*
X078555Y020313D02*
X078555Y020099D01*
X078662Y019993D01*
X078875Y019993D01*
X078982Y020206D02*
X078555Y020206D01*
X078555Y020313D02*
X078662Y020420D01*
X078875Y020420D01*
X078982Y020313D01*
X078982Y020206D01*
X079200Y020420D02*
X079413Y020420D01*
X079306Y020526D02*
X079306Y020099D01*
X079413Y019993D01*
X079629Y020099D02*
X079629Y020313D01*
X079736Y020420D01*
X079950Y020420D01*
X080056Y020313D01*
X080056Y020206D01*
X079629Y020206D01*
X079629Y020099D02*
X079736Y019993D01*
X079950Y019993D01*
X080274Y019993D02*
X080274Y020420D01*
X080381Y020420D01*
X080487Y020313D01*
X080594Y020420D01*
X080701Y020313D01*
X080701Y019993D01*
X080487Y019993D02*
X080487Y020313D01*
X080918Y020420D02*
X081239Y020420D01*
X081345Y020313D01*
X081345Y020099D01*
X081239Y019993D01*
X080918Y019993D01*
X080918Y019779D02*
X080918Y020420D01*
D12*
X081217Y019489D02*
X078461Y019489D01*
X078461Y017048D01*
X081217Y017048D01*
X081217Y016733D01*
X078461Y016733D01*
X078461Y017048D01*
X077217Y017048D02*
X077217Y016733D01*
X074461Y016733D01*
X074461Y017048D01*
X077217Y017048D01*
X077217Y019489D01*
X074461Y019489D01*
X074461Y017048D01*
X073217Y017048D02*
X073217Y016733D01*
X070461Y016733D01*
X070461Y017048D01*
X073217Y017048D01*
X073217Y019489D01*
X070461Y019489D01*
X070461Y017048D01*
X069217Y017048D02*
X069217Y016733D01*
X066461Y016733D01*
X066461Y017048D01*
X069217Y017048D01*
X069217Y019489D01*
X066461Y019489D01*
X066461Y017048D01*
X065217Y017048D02*
X065217Y016733D01*
X062461Y016733D01*
X062461Y017048D01*
X065217Y017048D01*
X065217Y019489D01*
X062461Y019489D01*
X062461Y017048D01*
X060839Y017244D02*
X060839Y016851D01*
X056430Y016851D01*
X056430Y017244D01*
X060839Y017244D01*
X060839Y019804D01*
X056430Y019804D01*
X056430Y017244D01*
X054839Y017244D02*
X054839Y016851D01*
X050430Y016851D01*
X050430Y017244D01*
X054839Y017244D01*
X054839Y019804D01*
X050430Y019804D01*
X050430Y017244D01*
X048839Y017244D02*
X048839Y016851D01*
X044430Y016851D01*
X044430Y017244D01*
X048839Y017244D01*
X048839Y019804D01*
X044430Y019804D01*
X044430Y017244D01*
X042839Y017244D02*
X042839Y016851D01*
X038430Y016851D01*
X038430Y017244D01*
X042839Y017244D01*
X042839Y019804D01*
X038430Y019804D01*
X038430Y017244D01*
X036189Y017048D02*
X036189Y016733D01*
X030244Y016733D01*
X030244Y017048D01*
X036189Y017048D01*
X036189Y019489D01*
X030244Y019489D01*
X030244Y017048D01*
X027689Y017048D02*
X027689Y016733D01*
X021744Y016733D01*
X021744Y017048D01*
X027689Y017048D01*
X027689Y019489D01*
X021744Y019489D01*
X021744Y017048D01*
X019189Y017048D02*
X019189Y016733D01*
X013244Y016733D01*
X013244Y017048D01*
X019189Y017048D01*
X019189Y019489D01*
X013244Y019489D01*
X013244Y017048D01*
X010689Y017048D02*
X010689Y016733D01*
X004744Y016733D01*
X004744Y017048D01*
X010689Y017048D01*
X010689Y019489D01*
X004744Y019489D01*
X004744Y017048D01*
X037650Y009900D02*
X037650Y009400D01*
X037900Y009150D01*
X037650Y008900D01*
X037650Y008400D01*
X037900Y008150D01*
X037650Y007900D01*
X037650Y007400D01*
X037900Y007150D01*
X038400Y007150D01*
X038650Y007400D01*
X038650Y007900D01*
X038400Y008150D01*
X038650Y008400D01*
X038650Y008900D01*
X038400Y009150D01*
X038650Y009400D01*
X038650Y009900D01*
X038400Y010150D01*
X037900Y010150D01*
X037650Y009900D01*
X047335Y011256D02*
X047965Y011256D01*
X047965Y011257D02*
X047981Y011262D01*
X047997Y011270D01*
X048011Y011280D01*
X048023Y011292D01*
X048033Y011307D01*
X048040Y011323D01*
X048044Y011340D01*
X048045Y011357D01*
X048043Y011375D01*
X047335Y011257D02*
X047319Y011262D01*
X047303Y011270D01*
X047289Y011280D01*
X047277Y011292D01*
X047267Y011307D01*
X047260Y011323D01*
X047256Y011340D01*
X047255Y011357D01*
X047257Y011375D01*
X047257Y011925D02*
X047255Y011943D01*
X047256Y011960D01*
X047260Y011977D01*
X047267Y011993D01*
X047277Y012008D01*
X047289Y012020D01*
X047303Y012030D01*
X047319Y012038D01*
X047335Y012043D01*
X047335Y012044D02*
X047965Y012044D01*
X047965Y012043D02*
X047981Y012038D01*
X047997Y012030D01*
X048011Y012020D01*
X048023Y012008D01*
X048033Y011993D01*
X048040Y011977D01*
X048044Y011960D01*
X048045Y011943D01*
X048043Y011925D01*
X048940Y012682D02*
X046360Y012682D01*
X046360Y015121D01*
X048940Y015121D02*
X048940Y012682D01*
X052360Y012682D02*
X052360Y015121D01*
X054940Y015121D02*
X054940Y012682D01*
X052360Y012682D01*
X053335Y012044D02*
X053965Y012044D01*
X053965Y012043D02*
X053981Y012038D01*
X053997Y012030D01*
X054011Y012020D01*
X054023Y012008D01*
X054033Y011993D01*
X054040Y011977D01*
X054044Y011960D01*
X054045Y011943D01*
X054043Y011925D01*
X053335Y012043D02*
X053319Y012038D01*
X053303Y012030D01*
X053289Y012020D01*
X053277Y012008D01*
X053267Y011993D01*
X053260Y011977D01*
X053256Y011960D01*
X053255Y011943D01*
X053257Y011925D01*
X053257Y011375D02*
X053255Y011357D01*
X053256Y011340D01*
X053260Y011323D01*
X053267Y011307D01*
X053277Y011292D01*
X053289Y011280D01*
X053303Y011270D01*
X053319Y011262D01*
X053335Y011257D01*
X053335Y011256D02*
X053965Y011256D01*
X053965Y011257D02*
X053981Y011262D01*
X053997Y011270D01*
X054011Y011280D01*
X054023Y011292D01*
X054033Y011307D01*
X054040Y011323D01*
X054044Y011340D01*
X054045Y011357D01*
X054043Y011375D01*
X056456Y010095D02*
X056456Y009544D01*
X057244Y009544D02*
X057244Y010095D01*
X056456Y010095D01*
X056614Y009268D02*
X056850Y009032D01*
X057086Y009268D01*
X056614Y009268D01*
X056574Y009032D02*
X056850Y009032D01*
X057126Y009032D01*
X057244Y008756D02*
X057244Y008205D01*
X056456Y008205D01*
X056456Y008756D01*
X052711Y007261D02*
X052711Y007039D01*
X050261Y004589D01*
X050039Y004589D01*
X047589Y007039D01*
X047589Y007261D01*
X050039Y009711D01*
X050261Y009711D01*
X052711Y007261D01*
X044650Y005138D02*
X044650Y004162D01*
X044256Y003650D02*
X043044Y003650D01*
X042650Y004162D02*
X042650Y005150D01*
X043044Y005650D02*
X044256Y005650D01*
X043150Y004650D02*
X043152Y004694D01*
X043158Y004738D01*
X043168Y004781D01*
X043181Y004823D01*
X043198Y004864D01*
X043219Y004903D01*
X043243Y004940D01*
X043270Y004975D01*
X043300Y005007D01*
X043333Y005037D01*
X043369Y005063D01*
X043406Y005087D01*
X043446Y005106D01*
X043487Y005123D01*
X043530Y005135D01*
X043573Y005144D01*
X043617Y005149D01*
X043661Y005150D01*
X043705Y005147D01*
X043749Y005140D01*
X043792Y005129D01*
X043834Y005115D01*
X043874Y005097D01*
X043913Y005075D01*
X043949Y005051D01*
X043983Y005023D01*
X044015Y004992D01*
X044044Y004958D01*
X044070Y004922D01*
X044092Y004884D01*
X044111Y004844D01*
X044126Y004802D01*
X044138Y004760D01*
X044146Y004716D01*
X044150Y004672D01*
X044150Y004628D01*
X044146Y004584D01*
X044138Y004540D01*
X044126Y004498D01*
X044111Y004456D01*
X044092Y004416D01*
X044070Y004378D01*
X044044Y004342D01*
X044015Y004308D01*
X043983Y004277D01*
X043949Y004249D01*
X043913Y004225D01*
X043874Y004203D01*
X043834Y004185D01*
X043792Y004171D01*
X043749Y004160D01*
X043705Y004153D01*
X043661Y004150D01*
X043617Y004151D01*
X043573Y004156D01*
X043530Y004165D01*
X043487Y004177D01*
X043446Y004194D01*
X043406Y004213D01*
X043369Y004237D01*
X043333Y004263D01*
X043300Y004293D01*
X043270Y004325D01*
X043243Y004360D01*
X043219Y004397D01*
X043198Y004436D01*
X043181Y004477D01*
X043168Y004519D01*
X043158Y004562D01*
X043152Y004606D01*
X043150Y004650D01*
X059335Y011256D02*
X059965Y011256D01*
X059965Y011257D02*
X059981Y011262D01*
X059997Y011270D01*
X060011Y011280D01*
X060023Y011292D01*
X060033Y011307D01*
X060040Y011323D01*
X060044Y011340D01*
X060045Y011357D01*
X060043Y011375D01*
X059335Y011257D02*
X059319Y011262D01*
X059303Y011270D01*
X059289Y011280D01*
X059277Y011292D01*
X059267Y011307D01*
X059260Y011323D01*
X059256Y011340D01*
X059255Y011357D01*
X059257Y011375D01*
X059257Y011925D02*
X059255Y011943D01*
X059256Y011960D01*
X059260Y011977D01*
X059267Y011993D01*
X059277Y012008D01*
X059289Y012020D01*
X059303Y012030D01*
X059319Y012038D01*
X059335Y012043D01*
X059335Y012044D02*
X059965Y012044D01*
X059965Y012043D02*
X059981Y012038D01*
X059997Y012030D01*
X060011Y012020D01*
X060023Y012008D01*
X060033Y011993D01*
X060040Y011977D01*
X060044Y011960D01*
X060045Y011943D01*
X060043Y011925D01*
X060940Y012682D02*
X058360Y012682D01*
X058360Y015121D01*
X060940Y015121D02*
X060940Y012682D01*
X079650Y011900D02*
X079650Y011400D01*
X079900Y011150D01*
X079650Y010900D01*
X079650Y010400D01*
X079900Y010150D01*
X080400Y010150D01*
X080650Y010400D01*
X080650Y010900D01*
X080400Y011150D01*
X080650Y011400D01*
X080650Y011900D01*
X080400Y012150D01*
X079900Y012150D01*
X079650Y011900D01*
X081217Y017048D02*
X081217Y019489D01*
X042190Y015660D02*
X042190Y013300D01*
X039610Y013300D01*
X039610Y015660D01*
X076400Y004900D02*
X076900Y004900D01*
X078150Y004400D02*
X078400Y004650D01*
X078900Y004650D01*
X079150Y004400D01*
X079150Y002900D01*
X078900Y002650D01*
X078400Y002650D01*
X078150Y002900D01*
X078150Y004400D01*
X079150Y004400D02*
X079400Y004650D01*
X079900Y004650D01*
X080150Y004400D01*
X080150Y002900D01*
X079900Y002650D01*
X079400Y002650D01*
X079150Y002900D01*
X080150Y002900D02*
X080400Y002650D01*
X080900Y002650D01*
X081150Y002900D01*
X081150Y004400D01*
X080900Y004650D01*
X080400Y004650D01*
X080150Y004400D01*
X080400Y004782D02*
X080900Y004782D01*
D13*
X068020Y007650D02*
X068020Y011650D01*
D14*
X065662Y008634D02*
X060150Y008634D01*
X060150Y002965D01*
X060544Y002965D01*
X060308Y002863D02*
X060310Y002822D01*
X060315Y002781D01*
X060324Y002741D01*
X060336Y002702D01*
X060352Y002664D01*
X060371Y002627D01*
X060393Y002592D01*
X060418Y002560D01*
X060446Y002529D01*
X060477Y002501D01*
X060509Y002476D01*
X060544Y002454D01*
X060581Y002435D01*
X060619Y002419D01*
X060658Y002407D01*
X060698Y002398D01*
X060739Y002393D01*
X060780Y002391D01*
X060780Y002390D02*
X064402Y002390D01*
X064402Y002036D02*
X064443Y002034D01*
X064484Y002036D01*
X064525Y002042D01*
X064566Y002051D01*
X064605Y002063D01*
X064643Y002079D01*
X064680Y002098D01*
X064714Y002121D01*
X064747Y002146D01*
X064778Y002174D01*
X064805Y002205D01*
X064830Y002238D01*
X064852Y002273D01*
X064871Y002309D01*
X064887Y002348D01*
X064899Y002387D01*
X064908Y002428D01*
X064913Y002469D01*
X065268Y002689D02*
X065266Y002738D01*
X065260Y002788D01*
X065251Y002836D01*
X065237Y002884D01*
X065220Y002930D01*
X065199Y002975D01*
X065175Y003018D01*
X065148Y003059D01*
X065117Y003098D01*
X065083Y003134D01*
X065047Y003168D01*
X065008Y003199D01*
X064967Y003226D01*
X064924Y003250D01*
X064879Y003271D01*
X064833Y003288D01*
X064785Y003302D01*
X064737Y003311D01*
X064687Y003317D01*
X064638Y003319D01*
X060819Y003319D01*
X060820Y003319D02*
X060785Y003312D01*
X060751Y003302D01*
X060718Y003288D01*
X060687Y003270D01*
X060658Y003249D01*
X060632Y003225D01*
X060609Y003199D01*
X060589Y003169D01*
X060572Y003138D01*
X060559Y003105D01*
X060549Y003071D01*
X060544Y003036D01*
X060542Y003000D01*
X060544Y002965D01*
X060308Y002508D02*
X060310Y002467D01*
X060315Y002426D01*
X060324Y002386D01*
X060336Y002347D01*
X060352Y002309D01*
X060371Y002272D01*
X060393Y002237D01*
X060418Y002205D01*
X060446Y002174D01*
X060477Y002146D01*
X060509Y002121D01*
X060544Y002099D01*
X060581Y002080D01*
X060619Y002064D01*
X060658Y002052D01*
X060698Y002043D01*
X060739Y002038D01*
X060780Y002036D01*
X064402Y002036D01*
X065268Y002689D02*
X065662Y002689D01*
X065662Y008634D01*
X064913Y002824D02*
X064908Y002783D01*
X064899Y002742D01*
X064887Y002703D01*
X064871Y002664D01*
X064852Y002628D01*
X064830Y002593D01*
X064805Y002560D01*
X064778Y002529D01*
X064747Y002501D01*
X064714Y002476D01*
X064680Y002453D01*
X064643Y002434D01*
X064605Y002418D01*
X064566Y002406D01*
X064525Y002397D01*
X064484Y002391D01*
X064443Y002389D01*
X064402Y002391D01*
X064913Y000973D02*
X064908Y000932D01*
X064899Y000891D01*
X064887Y000852D01*
X064871Y000813D01*
X064852Y000777D01*
X064830Y000742D01*
X064805Y000709D01*
X064778Y000678D01*
X064747Y000650D01*
X064714Y000625D01*
X064680Y000602D01*
X064643Y000583D01*
X064605Y000567D01*
X064566Y000555D01*
X064525Y000546D01*
X064484Y000540D01*
X064443Y000538D01*
X064402Y000540D01*
X060780Y000540D01*
X060739Y000542D01*
X060698Y000547D01*
X060658Y000556D01*
X060619Y000568D01*
X060581Y000584D01*
X060544Y000603D01*
X060509Y000625D01*
X060477Y000650D01*
X060446Y000678D01*
X060418Y000709D01*
X060393Y000741D01*
X060371Y000776D01*
X060352Y000813D01*
X060336Y000851D01*
X060324Y000890D01*
X060315Y000930D01*
X060310Y000971D01*
X060308Y001012D01*
X034676Y005775D02*
X034124Y005775D01*
X031150Y006749D02*
X031150Y007301D01*
X026426Y005775D02*
X025874Y005775D01*
X023025Y006749D02*
X023025Y007301D01*
X017551Y005775D02*
X016999Y005775D01*
X014275Y006624D02*
X014275Y007176D01*
X009176Y005900D02*
X008624Y005900D01*
X005775Y006624D02*
X005775Y007176D01*
X009587Y009205D02*
X009587Y011095D01*
X011634Y011095D01*
X011713Y011016D01*
X011713Y009284D01*
X011634Y009205D01*
X009587Y009205D01*
X010169Y010150D02*
X010171Y010194D01*
X010177Y010237D01*
X010187Y010280D01*
X010201Y010321D01*
X010218Y010362D01*
X010239Y010400D01*
X010263Y010436D01*
X010291Y010470D01*
X010322Y010502D01*
X010355Y010530D01*
X010391Y010555D01*
X010429Y010577D01*
X010468Y010595D01*
X010510Y010610D01*
X010552Y010621D01*
X010595Y010628D01*
X010639Y010631D01*
X010683Y010630D01*
X010726Y010625D01*
X010769Y010616D01*
X010811Y010603D01*
X010852Y010587D01*
X010890Y010567D01*
X010927Y010543D01*
X010962Y010516D01*
X010994Y010486D01*
X011023Y010454D01*
X011049Y010418D01*
X011072Y010381D01*
X011091Y010342D01*
X011107Y010301D01*
X011119Y010259D01*
X011127Y010215D01*
X011131Y010172D01*
X011131Y010128D01*
X011127Y010085D01*
X011119Y010041D01*
X011107Y009999D01*
X011091Y009958D01*
X011072Y009919D01*
X011049Y009882D01*
X011023Y009846D01*
X010994Y009814D01*
X010962Y009784D01*
X010927Y009757D01*
X010891Y009733D01*
X010852Y009713D01*
X010811Y009697D01*
X010769Y009684D01*
X010726Y009675D01*
X010683Y009670D01*
X010639Y009669D01*
X010595Y009672D01*
X010552Y009679D01*
X010510Y009690D01*
X010468Y009705D01*
X010429Y009723D01*
X010391Y009745D01*
X010355Y009770D01*
X010322Y009798D01*
X010291Y009830D01*
X010263Y009864D01*
X010239Y009900D01*
X010218Y009938D01*
X010201Y009979D01*
X010187Y010020D01*
X010177Y010063D01*
X010171Y010106D01*
X010169Y010150D01*
X009185Y011284D02*
X006115Y011284D01*
X006115Y013016D01*
X009185Y013016D01*
X009185Y011284D01*
X006430Y011310D02*
X006430Y012990D01*
X006390Y012990D02*
X006390Y011310D01*
X006430Y011310D01*
X006350Y011310D02*
X006350Y012990D01*
X006390Y012990D01*
X006310Y012990D02*
X006310Y011310D01*
X006350Y011310D01*
X006270Y011310D02*
X006270Y012990D01*
X006310Y012990D01*
X006230Y012990D02*
X006230Y011310D01*
X006270Y011310D01*
X006190Y011290D02*
X006190Y012990D01*
X006230Y012990D01*
X006150Y013010D02*
X006150Y011290D01*
X006190Y011290D01*
X004926Y012275D02*
X004374Y012275D01*
X006130Y013010D02*
X006150Y013010D01*
X004275Y014249D02*
X004275Y014801D01*
X013025Y014301D02*
X013025Y013749D01*
X014615Y013016D02*
X014615Y011284D01*
X017685Y011284D01*
X017685Y013016D01*
X014615Y013016D01*
X014630Y013010D02*
X014650Y013010D01*
X014650Y011290D01*
X014690Y011290D01*
X014690Y012990D01*
X014730Y012990D01*
X014730Y011310D01*
X014770Y011310D01*
X014770Y012990D01*
X014810Y012990D01*
X014810Y011310D01*
X014850Y011310D01*
X014850Y012990D01*
X014890Y012990D01*
X014890Y011310D01*
X014930Y011310D01*
X014930Y012990D01*
X013676Y012150D02*
X013124Y012150D01*
X018212Y011220D02*
X018212Y009330D01*
X020259Y009330D01*
X020338Y009409D01*
X020338Y011141D01*
X020259Y011220D01*
X018212Y011220D01*
X018794Y010275D02*
X018796Y010319D01*
X018802Y010362D01*
X018812Y010405D01*
X018826Y010446D01*
X018843Y010487D01*
X018864Y010525D01*
X018888Y010561D01*
X018916Y010595D01*
X018947Y010627D01*
X018980Y010655D01*
X019016Y010680D01*
X019054Y010702D01*
X019093Y010720D01*
X019135Y010735D01*
X019177Y010746D01*
X019220Y010753D01*
X019264Y010756D01*
X019308Y010755D01*
X019351Y010750D01*
X019394Y010741D01*
X019436Y010728D01*
X019477Y010712D01*
X019515Y010692D01*
X019552Y010668D01*
X019587Y010641D01*
X019619Y010611D01*
X019648Y010579D01*
X019674Y010543D01*
X019697Y010506D01*
X019716Y010467D01*
X019732Y010426D01*
X019744Y010384D01*
X019752Y010340D01*
X019756Y010297D01*
X019756Y010253D01*
X019752Y010210D01*
X019744Y010166D01*
X019732Y010124D01*
X019716Y010083D01*
X019697Y010044D01*
X019674Y010007D01*
X019648Y009971D01*
X019619Y009939D01*
X019587Y009909D01*
X019552Y009882D01*
X019516Y009858D01*
X019477Y009838D01*
X019436Y009822D01*
X019394Y009809D01*
X019351Y009800D01*
X019308Y009795D01*
X019264Y009794D01*
X019220Y009797D01*
X019177Y009804D01*
X019135Y009815D01*
X019093Y009830D01*
X019054Y009848D01*
X019016Y009870D01*
X018980Y009895D01*
X018947Y009923D01*
X018916Y009955D01*
X018888Y009989D01*
X018864Y010025D01*
X018843Y010063D01*
X018826Y010104D01*
X018812Y010145D01*
X018802Y010188D01*
X018796Y010231D01*
X018794Y010275D01*
X023025Y010051D02*
X023025Y009499D01*
X026837Y009330D02*
X026837Y011220D01*
X028884Y011220D01*
X028963Y011141D01*
X028963Y009409D01*
X028884Y009330D01*
X026837Y009330D01*
X027419Y010275D02*
X027421Y010319D01*
X027427Y010362D01*
X027437Y010405D01*
X027451Y010446D01*
X027468Y010487D01*
X027489Y010525D01*
X027513Y010561D01*
X027541Y010595D01*
X027572Y010627D01*
X027605Y010655D01*
X027641Y010680D01*
X027679Y010702D01*
X027718Y010720D01*
X027760Y010735D01*
X027802Y010746D01*
X027845Y010753D01*
X027889Y010756D01*
X027933Y010755D01*
X027976Y010750D01*
X028019Y010741D01*
X028061Y010728D01*
X028102Y010712D01*
X028140Y010692D01*
X028177Y010668D01*
X028212Y010641D01*
X028244Y010611D01*
X028273Y010579D01*
X028299Y010543D01*
X028322Y010506D01*
X028341Y010467D01*
X028357Y010426D01*
X028369Y010384D01*
X028377Y010340D01*
X028381Y010297D01*
X028381Y010253D01*
X028377Y010210D01*
X028369Y010166D01*
X028357Y010124D01*
X028341Y010083D01*
X028322Y010044D01*
X028299Y010007D01*
X028273Y009971D01*
X028244Y009939D01*
X028212Y009909D01*
X028177Y009882D01*
X028141Y009858D01*
X028102Y009838D01*
X028061Y009822D01*
X028019Y009809D01*
X027976Y009800D01*
X027933Y009795D01*
X027889Y009794D01*
X027845Y009797D01*
X027802Y009804D01*
X027760Y009815D01*
X027718Y009830D01*
X027679Y009848D01*
X027641Y009870D01*
X027605Y009895D01*
X027572Y009923D01*
X027541Y009955D01*
X027513Y009989D01*
X027489Y010025D01*
X027468Y010063D01*
X027451Y010104D01*
X027437Y010145D01*
X027427Y010188D01*
X027421Y010231D01*
X027419Y010275D01*
X026310Y011284D02*
X023240Y011284D01*
X023240Y013016D01*
X026310Y013016D01*
X026310Y011284D01*
X023555Y011310D02*
X023555Y012990D01*
X023515Y012990D02*
X023515Y011310D01*
X023555Y011310D01*
X023475Y011310D02*
X023475Y012990D01*
X023515Y012990D01*
X023435Y012990D02*
X023435Y011310D01*
X023475Y011310D01*
X023395Y011310D02*
X023395Y012990D01*
X023435Y012990D01*
X023355Y012990D02*
X023355Y011310D01*
X023395Y011310D01*
X023315Y011290D02*
X023315Y012990D01*
X023355Y012990D01*
X023275Y013010D02*
X023275Y011290D01*
X023315Y011290D01*
X022551Y012150D02*
X021999Y012150D01*
X023255Y013010D02*
X023275Y013010D01*
X021900Y013999D02*
X021900Y014551D01*
X030275Y014551D02*
X030275Y013999D01*
X031490Y013016D02*
X031490Y011284D01*
X034560Y011284D01*
X034560Y013016D01*
X031490Y013016D01*
X031505Y013010D02*
X031525Y013010D01*
X031525Y011290D01*
X031565Y011290D01*
X031565Y012990D01*
X031605Y012990D01*
X031605Y011310D01*
X031645Y011310D01*
X031645Y012990D01*
X031685Y012990D01*
X031685Y011310D01*
X031725Y011310D01*
X031725Y012990D01*
X031765Y012990D01*
X031765Y011310D01*
X031805Y011310D01*
X031805Y012990D01*
X030801Y012275D02*
X030249Y012275D01*
X034962Y011220D02*
X034962Y009330D01*
X037009Y009330D01*
X037088Y009409D01*
X037088Y011141D01*
X037009Y011220D01*
X034962Y011220D01*
X035544Y010275D02*
X035546Y010319D01*
X035552Y010362D01*
X035562Y010405D01*
X035576Y010446D01*
X035593Y010487D01*
X035614Y010525D01*
X035638Y010561D01*
X035666Y010595D01*
X035697Y010627D01*
X035730Y010655D01*
X035766Y010680D01*
X035804Y010702D01*
X035843Y010720D01*
X035885Y010735D01*
X035927Y010746D01*
X035970Y010753D01*
X036014Y010756D01*
X036058Y010755D01*
X036101Y010750D01*
X036144Y010741D01*
X036186Y010728D01*
X036227Y010712D01*
X036265Y010692D01*
X036302Y010668D01*
X036337Y010641D01*
X036369Y010611D01*
X036398Y010579D01*
X036424Y010543D01*
X036447Y010506D01*
X036466Y010467D01*
X036482Y010426D01*
X036494Y010384D01*
X036502Y010340D01*
X036506Y010297D01*
X036506Y010253D01*
X036502Y010210D01*
X036494Y010166D01*
X036482Y010124D01*
X036466Y010083D01*
X036447Y010044D01*
X036424Y010007D01*
X036398Y009971D01*
X036369Y009939D01*
X036337Y009909D01*
X036302Y009882D01*
X036266Y009858D01*
X036227Y009838D01*
X036186Y009822D01*
X036144Y009809D01*
X036101Y009800D01*
X036058Y009795D01*
X036014Y009794D01*
X035970Y009797D01*
X035927Y009804D01*
X035885Y009815D01*
X035843Y009830D01*
X035804Y009848D01*
X035766Y009870D01*
X035730Y009895D01*
X035697Y009923D01*
X035666Y009955D01*
X035638Y009989D01*
X035614Y010025D01*
X035593Y010063D01*
X035576Y010104D01*
X035562Y010145D01*
X035552Y010188D01*
X035546Y010231D01*
X035544Y010275D01*
X031275Y010051D02*
X031275Y009499D01*
X014275Y009499D02*
X014275Y010051D01*
X005775Y010176D02*
X005775Y009624D01*
D15*
X040900Y013110D03*
X047650Y012492D03*
X053650Y012492D03*
X059650Y012492D03*
D16*
X050039Y004923D02*
X050041Y004943D01*
X050046Y004963D01*
X050056Y004981D01*
X050068Y004998D01*
X050083Y005012D01*
X050101Y005022D01*
X050120Y005030D01*
X050140Y005034D01*
X050160Y005034D01*
X050180Y005030D01*
X050199Y005022D01*
X050217Y005012D01*
X050232Y004998D01*
X050244Y004981D01*
X050254Y004963D01*
X050259Y004943D01*
X050261Y004923D01*
X050259Y004903D01*
X050254Y004883D01*
X050244Y004865D01*
X050232Y004848D01*
X050217Y004834D01*
X050199Y004824D01*
X050180Y004816D01*
X050160Y004812D01*
X050140Y004812D01*
X050120Y004816D01*
X050101Y004824D01*
X050083Y004834D01*
X050068Y004848D01*
X050056Y004865D01*
X050046Y004883D01*
X050041Y004903D01*
X050039Y004923D01*
D17*
X074650Y004150D03*
D18*
X041900Y010760D03*
M02*
