G75*
G70*
%OFA0B0*%
%FSLAX24Y24*%
%IPPOS*%
%LPD*%
%AMOC8*
5,1,8,0,0,1.08239X$1,22.5*
%
%ADD10R,0.0800X0.0800*%
%ADD11C,0.0800*%
%ADD12C,0.0740*%
%ADD13OC8,0.0740*%
%ADD14OC8,0.0520*%
%ADD15C,0.0400*%
%ADD16C,0.1900*%
%ADD17C,0.0100*%
%ADD18C,0.0300*%
%ADD19R,0.0436X0.0436*%
%ADD20C,0.0320*%
%ADD21C,0.0436*%
%ADD22R,0.0400X0.0400*%
%ADD23C,0.0200*%
D10*
X005650Y018150D03*
X014150Y018150D03*
X022650Y018150D03*
X031150Y018150D03*
X039650Y018150D03*
X045650Y018150D03*
X051650Y018150D03*
X057650Y018150D03*
X063150Y018150D03*
X067150Y018150D03*
X071150Y018150D03*
X075150Y018150D03*
X079150Y018150D03*
D11*
X080528Y018150D03*
X076528Y018150D03*
X072528Y018150D03*
X068528Y018150D03*
X064528Y018150D03*
X059619Y018150D03*
X053619Y018150D03*
X047619Y018150D03*
X041619Y018150D03*
X035284Y018150D03*
X033906Y018150D03*
X032528Y018150D03*
X026784Y018150D03*
X025406Y018150D03*
X024028Y018150D03*
X018284Y018150D03*
X016906Y018150D03*
X015528Y018150D03*
X009784Y018150D03*
X008406Y018150D03*
X007028Y018150D03*
D12*
X038150Y009650D03*
X038150Y008650D03*
X038150Y007650D03*
X080150Y010650D03*
X080150Y011650D03*
D13*
X079650Y004150D03*
X078650Y004150D03*
X080650Y004150D03*
X080650Y003150D03*
X079650Y003150D03*
X078650Y003150D03*
X076650Y003150D03*
X075650Y003150D03*
X074650Y003150D03*
X073650Y003150D03*
X072650Y003150D03*
X072650Y004150D03*
X073650Y004150D03*
X074650Y004150D03*
X075650Y004150D03*
X076650Y004150D03*
D14*
X041900Y010275D03*
X041900Y011275D03*
D15*
X039105Y010390D03*
X038775Y009935D03*
X037650Y010560D03*
X036440Y011574D03*
X037700Y011670D03*
X036940Y012699D03*
X035565Y012824D03*
X035065Y012824D03*
X033525Y012550D03*
X033150Y012550D03*
X033150Y012175D03*
X032750Y012175D03*
X032375Y012175D03*
X032375Y012550D03*
X032750Y012550D03*
X033550Y012150D03*
X033525Y011750D03*
X033150Y011750D03*
X032750Y011750D03*
X032375Y011750D03*
X028629Y011501D03*
X028504Y012501D03*
X028004Y012501D03*
X027504Y012501D03*
X025575Y012475D03*
X025200Y012475D03*
X024825Y012475D03*
X024450Y012475D03*
X024075Y012475D03*
X024075Y012100D03*
X024075Y011725D03*
X024450Y011725D03*
X024825Y011725D03*
X024825Y012100D03*
X024450Y012100D03*
X025200Y012100D03*
X025575Y012100D03*
X025575Y011725D03*
X025200Y011725D03*
X020875Y010250D03*
X019700Y011850D03*
X019200Y011850D03*
X018700Y011850D03*
X018700Y012350D03*
X019200Y012350D03*
X019700Y012350D03*
X019700Y012850D03*
X019200Y012850D03*
X018700Y012850D03*
X016925Y012550D03*
X016550Y012550D03*
X016550Y012150D03*
X016925Y012150D03*
X016150Y012150D03*
X015750Y012150D03*
X015375Y012150D03*
X015375Y012550D03*
X015750Y012550D03*
X016150Y012550D03*
X016150Y011750D03*
X015750Y011750D03*
X015375Y011750D03*
X016550Y011750D03*
X016925Y011750D03*
X012450Y011475D03*
X011700Y011850D03*
X011200Y011850D03*
X010700Y011850D03*
X010700Y012350D03*
X011200Y012350D03*
X011700Y012350D03*
X011700Y012850D03*
X011200Y012850D03*
X010700Y012850D03*
X008500Y012550D03*
X008500Y012550D03*
X008500Y012175D03*
X008050Y012150D03*
X008050Y012550D03*
X007650Y012550D03*
X007625Y012175D03*
X007125Y012175D03*
X007250Y012550D03*
X006875Y012550D03*
X006875Y011800D03*
X007250Y011750D03*
X007650Y011750D03*
X008050Y011750D03*
X008500Y011800D03*
X009575Y011100D03*
X012750Y010250D03*
X012750Y009750D03*
X012800Y009150D03*
X012800Y008650D03*
X013050Y008150D03*
X013050Y007650D03*
X013050Y007150D03*
X011325Y006850D03*
X010825Y006850D03*
X009075Y006975D03*
X008575Y006975D03*
X008575Y007475D03*
X009075Y007475D03*
X007000Y007675D03*
X005750Y008300D03*
X005250Y008300D03*
X004750Y008300D03*
X003750Y008050D03*
X003750Y007425D03*
X003750Y008675D03*
X004750Y008800D03*
X005250Y008800D03*
X005750Y008800D03*
X003750Y009300D03*
X003750Y009925D03*
X010825Y008725D03*
X015675Y007275D03*
X017075Y007350D03*
X017575Y007350D03*
X017575Y006850D03*
X017075Y006850D03*
X020925Y007900D03*
X022425Y008150D03*
X020675Y008400D03*
X021175Y007400D03*
X021175Y006775D03*
X024175Y007400D03*
X025700Y007350D03*
X026200Y007350D03*
X026200Y006850D03*
X025700Y006850D03*
X029825Y007850D03*
X032325Y007475D03*
X033950Y007350D03*
X034450Y007350D03*
X034450Y006850D03*
X033950Y006850D03*
X037820Y006680D03*
X039350Y006980D03*
X040790Y007250D03*
X041260Y007260D03*
X040810Y006790D03*
X041140Y006460D03*
X043850Y007000D03*
X045000Y006650D03*
X046620Y006940D03*
X046800Y006500D03*
X048560Y006460D03*
X049680Y006630D03*
X050426Y006940D03*
X051800Y007100D03*
X053620Y007390D03*
X053850Y006950D03*
X055000Y006950D03*
X055410Y006630D03*
X056850Y006460D03*
X057630Y006770D03*
X059540Y006780D03*
X059520Y007240D03*
X058873Y007390D03*
X059580Y008240D03*
X062050Y008450D03*
X059110Y008940D03*
X057450Y009350D03*
X055710Y009520D03*
X053070Y009170D03*
X052510Y009520D03*
X052127Y009867D03*
X051630Y009940D03*
X049810Y009230D03*
X050900Y008600D03*
X049988Y008050D03*
X049200Y008050D03*
X048391Y007700D03*
X046300Y008200D03*
X046825Y008871D03*
X047400Y008890D03*
X048290Y009340D03*
X048040Y009990D03*
X046230Y009680D03*
X041700Y008750D03*
X040960Y009170D03*
X037150Y008650D03*
X035575Y009225D03*
X027825Y008975D03*
X030825Y005475D03*
X028150Y003700D03*
X022750Y005425D03*
X015250Y005175D03*
X014750Y005175D03*
X014250Y005175D03*
X013750Y005175D03*
X013250Y005175D03*
X006750Y005550D03*
X006250Y005550D03*
X005750Y005550D03*
X005250Y005550D03*
X004750Y005550D03*
X003050Y005100D03*
X003875Y011925D03*
X003875Y012550D03*
X003875Y013675D03*
X003950Y015400D03*
X004200Y016150D03*
X004200Y016650D03*
X004200Y017150D03*
X004200Y017650D03*
X003700Y017650D03*
X003700Y018150D03*
X004200Y018150D03*
X004200Y018650D03*
X006200Y017025D03*
X006700Y017025D03*
X006700Y016650D03*
X006200Y016650D03*
X008450Y016650D03*
X008950Y016650D03*
X010150Y016650D03*
X010150Y016150D03*
X010150Y015650D03*
X012200Y015600D03*
X012700Y015600D03*
X012700Y015100D03*
X012200Y015100D03*
X012200Y016100D03*
X012700Y016100D03*
X014800Y016900D03*
X015300Y016900D03*
X017050Y016900D03*
X017550Y016900D03*
X018650Y016650D03*
X018650Y016150D03*
X020700Y016100D03*
X020700Y015600D03*
X020700Y015100D03*
X021700Y015600D03*
X021700Y016100D03*
X023300Y016900D03*
X023800Y016900D03*
X025550Y016900D03*
X026050Y016900D03*
X027150Y016650D03*
X027150Y016150D03*
X027150Y015650D03*
X029200Y015600D03*
X030200Y015600D03*
X030200Y015100D03*
X029200Y015100D03*
X029200Y016100D03*
X030200Y016100D03*
X031800Y016900D03*
X032300Y016900D03*
X034050Y016900D03*
X034550Y016900D03*
X035650Y016650D03*
X035650Y016150D03*
X035650Y015650D03*
X037700Y015600D03*
X037700Y015100D03*
X040213Y015650D03*
X040900Y015150D03*
X041463Y014650D03*
X040900Y014150D03*
X040275Y014650D03*
X041463Y015650D03*
X040900Y016150D03*
X037700Y016100D03*
X037700Y017150D03*
X037700Y017650D03*
X038200Y017650D03*
X038200Y018150D03*
X037700Y018150D03*
X036550Y018150D03*
X036050Y018150D03*
X036050Y018650D03*
X036550Y018650D03*
X037700Y018650D03*
X038200Y018650D03*
X029700Y018650D03*
X029200Y018650D03*
X028050Y018650D03*
X027550Y018650D03*
X027550Y018150D03*
X028050Y018150D03*
X029200Y018150D03*
X029700Y018150D03*
X029700Y017650D03*
X029200Y017650D03*
X029200Y017150D03*
X021200Y017650D03*
X020700Y017650D03*
X020700Y017150D03*
X020700Y018150D03*
X021200Y018150D03*
X021200Y018650D03*
X020700Y018650D03*
X019550Y018650D03*
X019050Y018650D03*
X019050Y018150D03*
X019550Y018150D03*
X012700Y018150D03*
X012200Y018150D03*
X012200Y017650D03*
X012700Y017650D03*
X012200Y017150D03*
X011050Y017150D03*
X010675Y017400D03*
X011050Y017650D03*
X011050Y018150D03*
X010550Y018150D03*
X010550Y018650D03*
X011050Y018650D03*
X012200Y018650D03*
X012700Y018650D03*
X008950Y017025D03*
X008450Y017025D03*
X042378Y012887D03*
X046150Y013650D03*
X047150Y014150D03*
X048150Y014150D03*
X047650Y014650D03*
X047150Y015150D03*
X048150Y015150D03*
X047650Y015650D03*
X046150Y015650D03*
X046150Y014650D03*
X052150Y014650D03*
X053150Y014150D03*
X054150Y014150D03*
X053650Y014650D03*
X053150Y015150D03*
X054150Y015150D03*
X053650Y015650D03*
X052150Y015650D03*
X058150Y015650D03*
X059150Y015150D03*
X060150Y015150D03*
X059650Y014650D03*
X059150Y014150D03*
X060150Y014150D03*
X058150Y013650D03*
X058150Y014650D03*
X059650Y015650D03*
X066150Y015650D03*
X069850Y015650D03*
X068910Y014020D03*
X068150Y012450D03*
X066150Y012450D03*
X068480Y011430D03*
X065490Y010810D03*
X066770Y010260D03*
X068127Y010171D03*
X066110Y009600D03*
X066712Y009099D03*
X070530Y008930D03*
X070990Y008910D03*
X072363Y008947D03*
X072980Y008770D03*
X072452Y008363D03*
X072610Y007730D03*
X071385Y007825D03*
X072775Y007102D03*
X071450Y006650D03*
X069460Y006500D03*
X068710Y006190D03*
X067720Y006100D03*
X065950Y006650D03*
X068450Y007150D03*
X072818Y005890D03*
X073755Y005580D03*
X072960Y005260D03*
X071450Y004650D03*
X070810Y004160D03*
X071450Y002650D03*
X070370Y002610D03*
X066160Y003020D03*
X064960Y003140D03*
X064390Y002610D03*
X062670Y003210D03*
X061549Y003588D03*
X060937Y003229D03*
X061461Y002571D03*
X063680Y003840D03*
X065950Y004650D03*
X064450Y005150D03*
X065750Y005260D03*
X062700Y005740D03*
X061680Y005740D03*
X061270Y005490D03*
X060581Y005280D03*
X061290Y005030D03*
X062080Y005120D03*
X058850Y005350D03*
X057040Y005740D03*
X054350Y005550D03*
X054100Y004700D03*
X054640Y004250D03*
X053890Y003940D03*
X054415Y003797D03*
X056430Y003880D03*
X056590Y004530D03*
X051740Y004250D03*
X051110Y003940D03*
X051730Y004710D03*
X047830Y004940D03*
X047340Y004818D03*
X046640Y005080D03*
X047345Y005317D03*
X047870Y005400D03*
X046500Y005650D03*
X045260Y005580D03*
X045500Y005150D03*
X043980Y005420D03*
X041500Y005150D03*
X038920Y005580D03*
X037840Y005230D03*
X037860Y004760D03*
X038540Y004080D03*
X039090Y003970D03*
X037890Y003770D03*
X037480Y003460D03*
X036750Y003650D03*
X041770Y003170D03*
X045500Y004500D03*
X047045Y004408D03*
X048110Y002860D03*
X050570Y005740D03*
X055350Y007850D03*
X054753Y007966D03*
X054210Y008020D03*
X053050Y008270D03*
X056480Y007700D03*
X061350Y007350D03*
X062350Y009350D03*
X063150Y010450D03*
X061730Y011120D03*
X061110Y011270D03*
X059350Y010350D03*
X056680Y012170D03*
X052150Y013650D03*
X049520Y011470D03*
X050550Y011030D03*
X051470Y010720D03*
X047580Y011140D03*
X070607Y010470D03*
X071150Y010160D03*
X072950Y009650D03*
X071470Y009390D03*
X074525Y008638D03*
X075839Y008459D03*
X076090Y007760D03*
X075650Y006950D03*
X076180Y005260D03*
X077090Y005260D03*
X077310Y009700D03*
X075839Y009586D03*
X075650Y010450D03*
X073160Y011360D03*
X074000Y011650D03*
X073680Y011990D03*
X075150Y012450D03*
D16*
X082650Y020150D03*
X082650Y003650D03*
X003650Y003650D03*
X003650Y020150D03*
D17*
X003133Y002403D02*
X003474Y002312D01*
X003650Y002300D01*
X061237Y002300D01*
X061164Y002373D01*
X061111Y002501D01*
X061111Y002640D01*
X061136Y002700D01*
X051207Y002700D01*
X051090Y002817D01*
X048707Y005200D01*
X048165Y005200D01*
X048115Y005150D01*
X048127Y005138D01*
X048180Y005010D01*
X048180Y004870D01*
X048127Y004742D01*
X048028Y004643D01*
X047936Y004605D01*
X047750Y004005D01*
X047750Y003952D01*
X047726Y003929D01*
X047717Y003897D01*
X047670Y003872D01*
X047633Y003835D01*
X047600Y003835D01*
X047570Y003819D01*
X047520Y003835D01*
X045282Y003835D01*
X044047Y005070D01*
X043910Y005070D01*
X043782Y005123D01*
X043683Y005222D01*
X043666Y005263D01*
X041970Y003567D01*
X041970Y003465D01*
X042067Y003368D01*
X042120Y003240D01*
X042120Y003100D01*
X042103Y003060D01*
X047815Y003060D01*
X047912Y003157D01*
X048040Y003210D01*
X048180Y003210D01*
X048308Y003157D01*
X048407Y003058D01*
X048460Y002930D01*
X048460Y002790D01*
X048407Y002662D01*
X048308Y002563D01*
X048180Y002510D01*
X048040Y002510D01*
X047912Y002563D01*
X047815Y002660D01*
X041557Y002660D01*
X038987Y005230D01*
X038850Y005230D01*
X038722Y005283D01*
X038623Y005382D01*
X038570Y005510D01*
X038570Y005650D01*
X038587Y005690D01*
X038583Y005690D01*
X038190Y005297D01*
X038190Y005160D01*
X038137Y005032D01*
X038110Y005005D01*
X038157Y004958D01*
X038210Y004830D01*
X038210Y004693D01*
X038473Y004430D01*
X038610Y004430D01*
X038738Y004377D01*
X038837Y004278D01*
X038856Y004231D01*
X038892Y004267D01*
X039020Y004320D01*
X039160Y004320D01*
X039288Y004267D01*
X039387Y004168D01*
X039440Y004040D01*
X039440Y003900D01*
X039387Y003772D01*
X039288Y003673D01*
X039160Y003620D01*
X039020Y003620D01*
X038892Y003673D01*
X038874Y003691D01*
X038870Y003687D01*
X038753Y003570D01*
X038185Y003570D01*
X038088Y003473D01*
X037960Y003420D01*
X037830Y003420D01*
X037830Y003390D01*
X037777Y003262D01*
X037678Y003163D01*
X037550Y003110D01*
X037410Y003110D01*
X037282Y003163D01*
X037183Y003262D01*
X037130Y003390D01*
X037130Y003530D01*
X037156Y003593D01*
X037069Y003506D01*
X037047Y003452D01*
X036948Y003353D01*
X036820Y003300D01*
X036680Y003300D01*
X036552Y003353D01*
X036453Y003452D01*
X036400Y003580D01*
X036400Y003720D01*
X036434Y003802D01*
X035205Y005032D01*
X035202Y005032D01*
X035066Y005088D01*
X034963Y005191D01*
X034907Y005327D01*
X034907Y005473D01*
X034963Y005609D01*
X035066Y005712D01*
X035202Y005768D01*
X035348Y005768D01*
X035484Y005712D01*
X035587Y005609D01*
X035643Y005473D01*
X035643Y005470D01*
X036840Y004273D01*
X036840Y008484D01*
X036800Y008580D01*
X036800Y008720D01*
X036853Y008848D01*
X033725Y008848D01*
X033725Y008750D02*
X036812Y008750D01*
X036800Y008651D02*
X033725Y008651D01*
X033725Y008553D02*
X036812Y008553D01*
X036840Y008454D02*
X033725Y008454D01*
X033725Y008356D02*
X036840Y008356D01*
X036840Y008257D02*
X033725Y008257D01*
X033725Y008159D02*
X036840Y008159D01*
X036840Y008060D02*
X033725Y008060D01*
X033725Y007962D02*
X036840Y007962D01*
X036840Y007863D02*
X033725Y007863D01*
X033725Y007765D02*
X036840Y007765D01*
X036840Y007666D02*
X033699Y007666D01*
X033725Y007692D02*
X033725Y009459D01*
X033734Y009463D01*
X033837Y009566D01*
X033893Y009702D01*
X033893Y009848D01*
X033837Y009984D01*
X033734Y010087D01*
X033598Y010143D01*
X033452Y010143D01*
X033316Y010087D01*
X033213Y009984D01*
X033157Y009848D01*
X033157Y009702D01*
X033213Y009566D01*
X033316Y009463D01*
X033325Y009459D01*
X033325Y007858D01*
X033107Y007640D01*
X033098Y007643D01*
X032952Y007643D01*
X032816Y007587D01*
X032713Y007484D01*
X032657Y007348D01*
X032657Y007202D01*
X032713Y007066D01*
X032816Y006963D01*
X032952Y006907D01*
X033098Y006907D01*
X033234Y006963D01*
X033337Y007066D01*
X033393Y007202D01*
X033393Y007348D01*
X033390Y007357D01*
X033725Y007692D01*
X033600Y007568D02*
X036840Y007568D01*
X036840Y007469D02*
X033502Y007469D01*
X033403Y007371D02*
X036840Y007371D01*
X036840Y007272D02*
X033393Y007272D01*
X033381Y007174D02*
X036840Y007174D01*
X036840Y007075D02*
X033341Y007075D01*
X033247Y006977D02*
X036840Y006977D01*
X036840Y006878D02*
X031350Y006878D01*
X031350Y006780D02*
X036840Y006780D01*
X036840Y006681D02*
X031350Y006681D01*
X031350Y006583D02*
X036840Y006583D01*
X036840Y006484D02*
X031350Y006484D01*
X031350Y006386D02*
X036840Y006386D01*
X036840Y006287D02*
X031350Y006287D01*
X031350Y006225D02*
X031350Y012959D01*
X031359Y012963D01*
X031462Y013066D01*
X031466Y013075D01*
X043075Y013075D01*
X043075Y010567D01*
X043192Y010450D01*
X044657Y010450D01*
X044657Y010370D01*
X044745Y010282D01*
X045305Y010282D01*
X045393Y010370D01*
X045393Y010930D01*
X045305Y011018D01*
X044745Y011018D01*
X044657Y010930D01*
X044657Y010850D01*
X043475Y010850D01*
X043475Y013358D01*
X043358Y013475D01*
X031466Y013475D01*
X031462Y013484D01*
X031359Y013587D01*
X031223Y013643D01*
X031077Y013643D01*
X030941Y013587D01*
X030838Y013484D01*
X030782Y013348D01*
X030782Y013202D01*
X030838Y013066D01*
X030941Y012963D01*
X030950Y012959D01*
X030950Y006725D01*
X026442Y006725D01*
X026325Y006608D01*
X026192Y006475D01*
X020091Y006475D01*
X020087Y006484D01*
X026201Y006484D01*
X026300Y006583D02*
X019988Y006583D01*
X019984Y006587D02*
X019848Y006643D01*
X019702Y006643D01*
X019566Y006587D01*
X019463Y006484D01*
X014475Y006484D01*
X014475Y006386D02*
X019422Y006386D01*
X019407Y006348D02*
X019407Y006202D01*
X019410Y006193D01*
X019317Y006100D01*
X014475Y006100D01*
X014475Y011959D01*
X014484Y011963D01*
X014587Y012066D01*
X014643Y012202D01*
X014643Y012348D01*
X014587Y012484D01*
X014484Y012587D01*
X014348Y012643D01*
X014202Y012643D01*
X014066Y012587D01*
X013963Y012484D01*
X013907Y012348D01*
X013907Y012202D01*
X013963Y012066D01*
X014066Y011963D01*
X014075Y011959D01*
X014075Y006100D01*
X011716Y006100D01*
X011712Y006109D01*
X011609Y006212D01*
X011473Y006268D01*
X011327Y006268D01*
X011191Y006212D01*
X011088Y006109D01*
X011032Y005973D01*
X011032Y005827D01*
X011035Y005818D01*
X010317Y005100D01*
X008466Y005100D01*
X008462Y005109D01*
X008359Y005212D01*
X008223Y005268D01*
X008077Y005268D01*
X007941Y005212D01*
X007838Y005109D01*
X007782Y004973D01*
X007782Y004827D01*
X007838Y004691D01*
X007941Y004588D01*
X008077Y004532D01*
X008223Y004532D01*
X008359Y004588D01*
X008462Y004691D01*
X008466Y004700D01*
X010483Y004700D01*
X011318Y005535D01*
X011327Y005532D01*
X011473Y005532D01*
X011609Y005588D01*
X011712Y005691D01*
X011716Y005700D01*
X019483Y005700D01*
X019693Y005910D01*
X019702Y005907D01*
X019848Y005907D01*
X019984Y005963D01*
X020087Y006066D01*
X020091Y006075D01*
X026358Y006075D01*
X026608Y006325D01*
X030950Y006325D01*
X030950Y005942D01*
X031067Y005825D01*
X035567Y005825D01*
X035660Y005732D01*
X035657Y005723D01*
X035657Y005577D01*
X035713Y005441D01*
X035816Y005338D01*
X035952Y005282D01*
X036098Y005282D01*
X036234Y005338D01*
X036337Y005441D01*
X036393Y005577D01*
X036393Y005723D01*
X036337Y005859D01*
X036234Y005962D01*
X036098Y006018D01*
X035952Y006018D01*
X035943Y006015D01*
X035733Y006225D01*
X031350Y006225D01*
X031150Y006025D02*
X035650Y006025D01*
X036025Y005650D01*
X036364Y005795D02*
X036840Y005795D01*
X036840Y005893D02*
X036303Y005893D01*
X036162Y005992D02*
X036840Y005992D01*
X036840Y006090D02*
X035868Y006090D01*
X035769Y006189D02*
X036840Y006189D01*
X037820Y006680D02*
X037820Y007070D01*
X037580Y007310D01*
X037580Y008135D01*
X037615Y008170D01*
X043670Y008170D01*
X047670Y012170D01*
X056680Y012170D01*
X056816Y012493D02*
X058470Y012493D01*
X058568Y012591D02*
X043475Y012591D01*
X043475Y012493D02*
X056544Y012493D01*
X056482Y012467D02*
X056385Y012370D01*
X047587Y012370D01*
X047470Y012253D01*
X043587Y008370D01*
X038597Y008370D01*
X038670Y008547D01*
X038670Y008753D01*
X038657Y008784D01*
X038843Y008970D01*
X040665Y008970D01*
X040762Y008873D01*
X040890Y008820D01*
X041030Y008820D01*
X041158Y008873D01*
X041257Y008972D01*
X041310Y009100D01*
X041310Y009240D01*
X041257Y009368D01*
X041158Y009467D01*
X041030Y009520D01*
X040890Y009520D01*
X040762Y009467D01*
X040665Y009370D01*
X038677Y009370D01*
X038412Y009104D01*
X038302Y009150D01*
X038445Y009209D01*
X038591Y009355D01*
X038670Y009547D01*
X038670Y009600D01*
X038705Y009585D01*
X038845Y009585D01*
X038973Y009638D01*
X039072Y009737D01*
X039125Y009865D01*
X039125Y010005D01*
X039110Y010040D01*
X039175Y010040D01*
X039303Y010093D01*
X039402Y010192D01*
X039455Y010320D01*
X039455Y010460D01*
X039402Y010588D01*
X039303Y010687D01*
X039175Y010740D01*
X039035Y010740D01*
X039023Y010735D01*
X038050Y011622D01*
X038050Y011740D01*
X037997Y011868D01*
X037898Y011967D01*
X037770Y012020D01*
X037630Y012020D01*
X037502Y011967D01*
X037403Y011868D01*
X037350Y011740D01*
X037350Y011600D01*
X037403Y011472D01*
X037502Y011373D01*
X037630Y011320D01*
X037770Y011320D01*
X037782Y011325D01*
X038755Y010438D01*
X038755Y010320D01*
X038770Y010285D01*
X038708Y010285D01*
X038350Y010643D01*
X038233Y010760D01*
X037945Y010760D01*
X037848Y010857D01*
X037720Y010910D01*
X037580Y010910D01*
X037452Y010857D01*
X037353Y010758D01*
X037300Y010630D01*
X037300Y010490D01*
X037353Y010362D01*
X037452Y010263D01*
X037580Y010210D01*
X037720Y010210D01*
X037848Y010263D01*
X037945Y010360D01*
X038067Y010360D01*
X038260Y010167D01*
X038253Y010170D01*
X038047Y010170D01*
X037855Y010091D01*
X037709Y009945D01*
X037630Y009753D01*
X037630Y009547D01*
X037709Y009355D01*
X037855Y009209D01*
X037998Y009150D01*
X037855Y009091D01*
X037709Y008945D01*
X037630Y008753D01*
X037630Y008547D01*
X037703Y008370D01*
X037532Y008370D01*
X037460Y008298D01*
X037460Y008484D01*
X037500Y008580D01*
X037500Y008720D01*
X037447Y008848D01*
X037669Y008848D01*
X037630Y008750D02*
X037488Y008750D01*
X037500Y008651D02*
X037630Y008651D01*
X037630Y008553D02*
X037488Y008553D01*
X037460Y008454D02*
X037668Y008454D01*
X037518Y008356D02*
X037460Y008356D01*
X038150Y008650D02*
X038240Y008650D01*
X038760Y009170D01*
X040960Y009170D01*
X041097Y008848D02*
X044065Y008848D01*
X043967Y008750D02*
X038670Y008750D01*
X038670Y008651D02*
X043868Y008651D01*
X043770Y008553D02*
X038670Y008553D01*
X038632Y008454D02*
X043671Y008454D01*
X044390Y008200D02*
X042980Y006790D01*
X040810Y006790D01*
X041090Y006950D02*
X040790Y007250D01*
X041090Y006950D02*
X042910Y006950D01*
X045640Y009680D01*
X046230Y009680D01*
X046473Y009932D02*
X047681Y009932D01*
X047690Y009940D02*
X046905Y009216D01*
X046895Y009221D01*
X046755Y009221D01*
X046627Y009168D01*
X046528Y009069D01*
X046475Y008940D01*
X046475Y008801D01*
X046528Y008673D01*
X046627Y008574D01*
X046755Y008521D01*
X046895Y008521D01*
X047023Y008574D01*
X047122Y008673D01*
X047202Y008593D01*
X047243Y008576D01*
X046017Y007350D01*
X044567Y007350D01*
X043877Y006660D01*
X043133Y006660D01*
X043180Y006707D01*
X044473Y008000D01*
X046005Y008000D01*
X046102Y007903D01*
X046230Y007850D01*
X046370Y007850D01*
X046498Y007903D01*
X046597Y008002D01*
X046650Y008130D01*
X046650Y008270D01*
X046597Y008398D01*
X046498Y008497D01*
X046370Y008550D01*
X046230Y008550D01*
X046102Y008497D01*
X046005Y008400D01*
X044643Y008400D01*
X045723Y009480D01*
X045935Y009480D01*
X046032Y009383D01*
X046160Y009330D01*
X046300Y009330D01*
X046428Y009383D01*
X046527Y009482D01*
X046580Y009610D01*
X046580Y009750D01*
X046527Y009878D01*
X046428Y009977D01*
X046300Y010030D01*
X046160Y010030D01*
X046032Y009977D01*
X045935Y009880D01*
X045893Y009880D01*
X046113Y010100D01*
X047707Y010100D01*
X047690Y010060D01*
X047690Y009940D01*
X047690Y010030D02*
X046043Y010030D01*
X045987Y009932D02*
X045944Y009932D01*
X045444Y010227D02*
X042310Y010227D01*
X042310Y010129D02*
X045346Y010129D01*
X045247Y010030D02*
X042235Y010030D01*
X042310Y010105D02*
X042070Y009865D01*
X041730Y009865D01*
X041568Y010028D01*
X041507Y010028D01*
X041490Y010023D01*
X041445Y010028D01*
X041401Y010028D01*
X041385Y010034D01*
X041367Y010036D01*
X041328Y010058D01*
X041287Y010075D01*
X041274Y010087D01*
X038989Y011344D01*
X038682Y011344D01*
X038594Y011432D01*
X038594Y011993D01*
X038682Y012081D01*
X039243Y012081D01*
X039331Y011993D01*
X039331Y011864D01*
X041542Y010647D01*
X041693Y010647D01*
X041730Y010685D01*
X042070Y010685D01*
X042310Y010445D01*
X042310Y010105D01*
X042310Y010326D02*
X044701Y010326D01*
X044657Y010424D02*
X042310Y010424D01*
X042232Y010523D02*
X043120Y010523D01*
X043075Y010621D02*
X042134Y010621D01*
X042070Y010865D02*
X042310Y011105D01*
X042310Y011445D01*
X042070Y011685D01*
X041730Y011685D01*
X041490Y011445D01*
X041490Y011105D01*
X041730Y010865D01*
X042070Y010865D01*
X042121Y010917D02*
X043075Y010917D01*
X043075Y011015D02*
X042220Y011015D01*
X042310Y011114D02*
X043075Y011114D01*
X043075Y011212D02*
X042310Y011212D01*
X042310Y011311D02*
X043075Y011311D01*
X043075Y011409D02*
X042310Y011409D01*
X042247Y011508D02*
X043075Y011508D01*
X043075Y011606D02*
X042149Y011606D01*
X041651Y011606D02*
X039799Y011606D01*
X039620Y011705D02*
X043075Y011705D01*
X043075Y011803D02*
X039441Y011803D01*
X039331Y011902D02*
X043075Y011902D01*
X043075Y012000D02*
X039323Y012000D01*
X038602Y012000D02*
X037818Y012000D01*
X037963Y011902D02*
X038594Y011902D01*
X038594Y011803D02*
X038024Y011803D01*
X038050Y011705D02*
X038594Y011705D01*
X038594Y011606D02*
X038067Y011606D01*
X038175Y011508D02*
X038594Y011508D01*
X038618Y011409D02*
X038283Y011409D01*
X038392Y011311D02*
X039050Y011311D01*
X039229Y011212D02*
X038500Y011212D01*
X038608Y011114D02*
X039408Y011114D01*
X039587Y011015D02*
X038716Y011015D01*
X038824Y010917D02*
X039766Y010917D01*
X039946Y010818D02*
X038932Y010818D01*
X039224Y010720D02*
X040125Y010720D01*
X040304Y010621D02*
X039369Y010621D01*
X039429Y010523D02*
X040483Y010523D01*
X040662Y010424D02*
X039455Y010424D01*
X039455Y010326D02*
X040841Y010326D01*
X041020Y010227D02*
X039416Y010227D01*
X039338Y010129D02*
X041199Y010129D01*
X041395Y010030D02*
X039114Y010030D01*
X039125Y009932D02*
X041664Y009932D01*
X042136Y009932D02*
X045149Y009932D01*
X045050Y009833D02*
X039112Y009833D01*
X039069Y009735D02*
X044952Y009735D01*
X044853Y009636D02*
X038968Y009636D01*
X038666Y009538D02*
X044755Y009538D01*
X044656Y009439D02*
X041186Y009439D01*
X041268Y009341D02*
X044558Y009341D01*
X044459Y009242D02*
X041309Y009242D01*
X041310Y009144D02*
X044361Y009144D01*
X044262Y009045D02*
X041287Y009045D01*
X041231Y008947D02*
X044164Y008947D01*
X044894Y008651D02*
X046550Y008651D01*
X046497Y008750D02*
X044992Y008750D01*
X045091Y008848D02*
X046475Y008848D01*
X046478Y008947D02*
X045189Y008947D01*
X045288Y009045D02*
X046518Y009045D01*
X046603Y009144D02*
X045386Y009144D01*
X045485Y009242D02*
X046933Y009242D01*
X047040Y009341D02*
X046325Y009341D01*
X046484Y009439D02*
X047147Y009439D01*
X047254Y009538D02*
X046550Y009538D01*
X046580Y009636D02*
X047361Y009636D01*
X047467Y009735D02*
X046580Y009735D01*
X046545Y009833D02*
X047574Y009833D01*
X048040Y009990D02*
X046825Y008871D01*
X047100Y008651D02*
X047144Y008651D01*
X047122Y008673D02*
X047122Y008673D01*
X047220Y008553D02*
X046971Y008553D01*
X047121Y008454D02*
X046541Y008454D01*
X046614Y008356D02*
X047023Y008356D01*
X046924Y008257D02*
X046650Y008257D01*
X046650Y008159D02*
X046826Y008159D01*
X046727Y008060D02*
X046621Y008060D01*
X046629Y007962D02*
X046556Y007962D01*
X046530Y007863D02*
X046401Y007863D01*
X046432Y007765D02*
X044237Y007765D01*
X044336Y007863D02*
X046199Y007863D01*
X046044Y007962D02*
X044434Y007962D01*
X044390Y008200D02*
X046300Y008200D01*
X046059Y008454D02*
X044697Y008454D01*
X044795Y008553D02*
X046679Y008553D01*
X047391Y008159D02*
X050037Y008159D01*
X049922Y008257D02*
X047490Y008257D01*
X047588Y008356D02*
X049807Y008356D01*
X049691Y008454D02*
X047687Y008454D01*
X047785Y008553D02*
X049576Y008553D01*
X049461Y008651D02*
X047884Y008651D01*
X047982Y008750D02*
X049346Y008750D01*
X049230Y008848D02*
X048081Y008848D01*
X048179Y008947D02*
X049115Y008947D01*
X049000Y009045D02*
X048490Y009045D01*
X048488Y009043D02*
X048587Y009142D01*
X048640Y009270D01*
X048640Y009352D01*
X050340Y007900D01*
X048686Y007900D01*
X048589Y007997D01*
X048460Y008050D01*
X048321Y008050D01*
X048193Y007997D01*
X048094Y007898D01*
X048041Y007770D01*
X048041Y007630D01*
X048094Y007502D01*
X048193Y007403D01*
X048321Y007350D01*
X048460Y007350D01*
X048589Y007403D01*
X048686Y007500D01*
X053287Y007500D01*
X053270Y007460D01*
X053270Y007320D01*
X053323Y007192D01*
X053422Y007093D01*
X053550Y007040D01*
X053690Y007040D01*
X053818Y007093D01*
X053915Y007190D01*
X056577Y007190D01*
X055907Y006520D01*
X055743Y006520D01*
X055760Y006560D01*
X055760Y006700D01*
X055707Y006828D01*
X055608Y006927D01*
X055480Y006980D01*
X055340Y006980D01*
X055212Y006927D01*
X055113Y006828D01*
X055060Y006700D01*
X050681Y006700D01*
X050723Y006742D01*
X050776Y006870D01*
X050776Y007010D01*
X050723Y007138D01*
X050624Y007237D01*
X050496Y007290D01*
X050357Y007290D01*
X050228Y007237D01*
X050131Y007140D01*
X046915Y007140D01*
X046818Y007237D01*
X046690Y007290D01*
X046550Y007290D01*
X046503Y007271D01*
X048223Y008990D01*
X048360Y008990D01*
X048488Y009043D01*
X048587Y009144D02*
X048885Y009144D01*
X048769Y009242D02*
X048628Y009242D01*
X048640Y009341D02*
X048654Y009341D01*
X048290Y009340D02*
X046100Y007150D01*
X044650Y007150D01*
X043960Y006460D01*
X041140Y006460D01*
X039470Y006980D02*
X039350Y006980D01*
X039310Y006950D01*
X037900Y005540D01*
X037710Y005540D01*
X037530Y005360D01*
X037530Y004090D01*
X037570Y004050D01*
X037570Y003550D01*
X037480Y003460D01*
X037610Y003135D02*
X041082Y003135D01*
X040984Y003234D02*
X037748Y003234D01*
X037806Y003332D02*
X040885Y003332D01*
X040787Y003431D02*
X037985Y003431D01*
X038144Y003529D02*
X040688Y003529D01*
X040590Y003628D02*
X039178Y003628D01*
X039002Y003628D02*
X038810Y003628D01*
X038670Y003770D02*
X037890Y003770D01*
X038670Y003770D02*
X038870Y003970D01*
X039090Y003970D01*
X039336Y004219D02*
X039999Y004219D01*
X039900Y004317D02*
X039167Y004317D01*
X039013Y004317D02*
X038798Y004317D01*
X038645Y004416D02*
X039802Y004416D01*
X039703Y004514D02*
X038389Y004514D01*
X038290Y004613D02*
X039605Y004613D01*
X039506Y004711D02*
X038210Y004711D01*
X038210Y004810D02*
X039408Y004810D01*
X039309Y004908D02*
X038178Y004908D01*
X038111Y005007D02*
X039211Y005007D01*
X039112Y005105D02*
X038167Y005105D01*
X038190Y005204D02*
X039014Y005204D01*
X038703Y005302D02*
X038195Y005302D01*
X038293Y005401D02*
X038616Y005401D01*
X038575Y005499D02*
X038392Y005499D01*
X038490Y005598D02*
X038570Y005598D01*
X038500Y005890D02*
X037840Y005230D01*
X037860Y004760D02*
X038540Y004080D01*
X039407Y004120D02*
X040097Y004120D01*
X040196Y004022D02*
X039440Y004022D01*
X039440Y003923D02*
X040294Y003923D01*
X040393Y003825D02*
X039409Y003825D01*
X039341Y003726D02*
X040491Y003726D01*
X040761Y004022D02*
X041859Y004022D01*
X041957Y004120D02*
X040663Y004120D01*
X040564Y004219D02*
X042056Y004219D01*
X042154Y004317D02*
X040466Y004317D01*
X040367Y004416D02*
X042253Y004416D01*
X042351Y004514D02*
X040269Y004514D01*
X040170Y004613D02*
X042450Y004613D01*
X042548Y004711D02*
X040072Y004711D01*
X039973Y004810D02*
X042647Y004810D01*
X042745Y004908D02*
X039875Y004908D01*
X039776Y005007D02*
X042844Y005007D01*
X042942Y005105D02*
X039678Y005105D01*
X039579Y005204D02*
X043041Y005204D01*
X043139Y005302D02*
X039481Y005302D01*
X039382Y005401D02*
X043238Y005401D01*
X043336Y005499D02*
X039284Y005499D01*
X039270Y005513D02*
X039270Y005650D01*
X039253Y005690D01*
X043527Y005690D01*
X041687Y003850D01*
X041570Y003733D01*
X041570Y003465D01*
X041473Y003368D01*
X041456Y003327D01*
X039270Y005513D01*
X039270Y005598D02*
X043435Y005598D01*
X043850Y005730D02*
X041770Y003650D01*
X041770Y003170D01*
X041640Y002860D02*
X038920Y005580D01*
X038500Y005890D02*
X045390Y005890D01*
X046810Y004470D01*
X047045Y004408D01*
X046720Y004277D02*
X046707Y004291D01*
X046679Y004298D01*
X046650Y004347D01*
X045574Y005423D01*
X045557Y005382D01*
X045458Y005283D01*
X045330Y005230D01*
X045190Y005230D01*
X045062Y005283D01*
X044965Y005380D01*
X044343Y005380D01*
X044330Y005380D01*
X044330Y005353D01*
X045448Y004235D01*
X046738Y004235D01*
X046720Y004277D01*
X046668Y004317D02*
X045366Y004317D01*
X045267Y004416D02*
X046582Y004416D01*
X046483Y004514D02*
X045169Y004514D01*
X045070Y004613D02*
X046385Y004613D01*
X046286Y004711D02*
X044972Y004711D01*
X044873Y004810D02*
X046188Y004810D01*
X046089Y004908D02*
X044775Y004908D01*
X044676Y005007D02*
X045991Y005007D01*
X045892Y005105D02*
X044578Y005105D01*
X044479Y005204D02*
X045794Y005204D01*
X045695Y005302D02*
X045477Y005302D01*
X045564Y005401D02*
X045597Y005401D01*
X045260Y005580D02*
X044260Y005580D01*
X044110Y005730D01*
X043850Y005730D01*
X043980Y005420D02*
X045365Y004035D01*
X047550Y004035D01*
X047830Y004940D01*
X048155Y004810D02*
X049098Y004810D01*
X048999Y004908D02*
X048180Y004908D01*
X048180Y005007D02*
X048901Y005007D01*
X048802Y005105D02*
X048140Y005105D01*
X047870Y005400D02*
X048790Y005400D01*
X051290Y002900D01*
X063968Y002900D01*
X064918Y003850D01*
X071210Y003850D01*
X072310Y004950D01*
X073530Y004950D01*
X074170Y004310D01*
X074170Y003950D01*
X074450Y003670D01*
X075130Y003670D01*
X075650Y003150D01*
X075150Y002915D02*
X075435Y002630D01*
X075865Y002630D01*
X076150Y002915D01*
X076435Y002630D01*
X076865Y002630D01*
X077170Y002935D01*
X077170Y003365D01*
X077159Y003376D01*
X077820Y004037D01*
X077820Y011243D01*
X077703Y011360D01*
X076873Y012190D01*
X073975Y012190D01*
X073878Y012287D01*
X073750Y012340D01*
X073610Y012340D01*
X073482Y012287D01*
X073383Y012188D01*
X073330Y012060D01*
X073330Y011920D01*
X073383Y011792D01*
X073482Y011693D01*
X073610Y011640D01*
X073650Y011640D01*
X073650Y011580D01*
X073703Y011452D01*
X073800Y011355D01*
X073800Y011333D01*
X073360Y010893D01*
X073360Y011065D01*
X073457Y011162D01*
X073510Y011290D01*
X073510Y011430D01*
X073457Y011558D01*
X073358Y011657D01*
X073230Y011710D01*
X073090Y011710D01*
X072962Y011657D01*
X072863Y011558D01*
X072810Y011430D01*
X072810Y011290D01*
X072863Y011162D01*
X072960Y011065D01*
X072960Y010723D01*
X071784Y009547D01*
X071780Y009556D01*
X071780Y010253D01*
X071663Y010370D01*
X070093Y011940D01*
X058943Y011940D01*
X059473Y012470D01*
X065583Y012470D01*
X066233Y013120D01*
X066350Y013237D01*
X066350Y015355D01*
X066447Y015452D01*
X066500Y015580D01*
X066500Y015720D01*
X066447Y015848D01*
X066348Y015947D01*
X066340Y015950D01*
X069267Y015950D01*
X069500Y015717D01*
X069500Y015580D01*
X069553Y015452D01*
X069652Y015353D01*
X069780Y015300D01*
X069920Y015300D01*
X070048Y015353D01*
X070147Y015452D01*
X070200Y015580D01*
X070200Y015720D01*
X070147Y015848D01*
X070048Y015947D01*
X069920Y016000D01*
X069783Y016000D01*
X069433Y016350D01*
X065967Y016350D01*
X065850Y016233D01*
X065550Y015933D01*
X065550Y013833D01*
X064747Y013030D01*
X061033Y013030D01*
X066600Y018597D01*
X066600Y017688D01*
X066688Y017600D01*
X067612Y017600D01*
X067700Y017688D01*
X067700Y018612D01*
X067642Y018670D01*
X068349Y018670D01*
X068317Y018660D01*
X068240Y018620D01*
X068170Y018570D01*
X068108Y018508D01*
X068058Y018438D01*
X068018Y018361D01*
X067991Y018279D01*
X067979Y018200D01*
X068478Y018200D01*
X068478Y018100D01*
X068578Y018100D01*
X068578Y018200D01*
X069077Y018200D01*
X069064Y018279D01*
X069038Y018361D01*
X068998Y018438D01*
X068947Y018508D01*
X068886Y018570D01*
X068816Y018620D01*
X068739Y018660D01*
X068707Y018670D01*
X070658Y018670D01*
X070600Y018612D01*
X070600Y017688D01*
X070688Y017600D01*
X071612Y017600D01*
X071700Y017688D01*
X071700Y018612D01*
X071642Y018670D01*
X072349Y018670D01*
X072317Y018660D01*
X072240Y018620D01*
X072170Y018570D01*
X072108Y018508D01*
X072058Y018438D01*
X072018Y018361D01*
X071991Y018279D01*
X071979Y018200D01*
X072478Y018200D01*
X072478Y018100D01*
X072578Y018100D01*
X072578Y018200D01*
X073077Y018200D01*
X073064Y018279D01*
X073038Y018361D01*
X072998Y018438D01*
X072947Y018508D01*
X072886Y018570D01*
X072816Y018620D01*
X072739Y018660D01*
X072707Y018670D01*
X074177Y018670D01*
X074600Y018247D01*
X074600Y017688D01*
X074688Y017600D01*
X075612Y017600D01*
X075700Y017688D01*
X075700Y018612D01*
X075612Y018700D01*
X074713Y018700D01*
X074343Y019070D01*
X066507Y019070D01*
X066390Y018953D01*
X060850Y013413D01*
X060850Y018233D01*
X060350Y018733D01*
X060233Y018850D01*
X059067Y018850D01*
X058567Y018350D01*
X058450Y018233D01*
X058450Y017233D01*
X057567Y016350D01*
X057450Y016233D01*
X057450Y013067D01*
X057567Y012950D01*
X058927Y012950D01*
X057647Y011670D01*
X049815Y011670D01*
X049718Y011767D01*
X049590Y011820D01*
X049450Y011820D01*
X049322Y011767D01*
X049223Y011668D01*
X049170Y011540D01*
X049170Y011400D01*
X049189Y011356D01*
X049098Y011393D01*
X048952Y011393D01*
X048816Y011337D01*
X048713Y011234D01*
X048659Y011104D01*
X048540Y011223D01*
X048423Y011340D01*
X047875Y011340D01*
X047778Y011437D01*
X047650Y011490D01*
X047510Y011490D01*
X047382Y011437D01*
X047283Y011338D01*
X047230Y011210D01*
X047230Y011070D01*
X047283Y010942D01*
X047382Y010843D01*
X047510Y010790D01*
X047650Y010790D01*
X047778Y010843D01*
X047875Y010940D01*
X048257Y010940D01*
X049653Y009544D01*
X049612Y009527D01*
X049599Y009514D01*
X048730Y010383D01*
X048613Y010500D01*
X046283Y010500D01*
X047753Y011970D01*
X056385Y011970D01*
X056482Y011873D01*
X056610Y011820D01*
X056750Y011820D01*
X056878Y011873D01*
X056977Y011972D01*
X057030Y012100D01*
X057030Y012240D01*
X056977Y012368D01*
X056878Y012467D01*
X056750Y012520D01*
X056610Y012520D01*
X056482Y012467D01*
X056409Y012394D02*
X043475Y012394D01*
X043475Y012296D02*
X047513Y012296D01*
X047414Y012197D02*
X043475Y012197D01*
X043475Y012099D02*
X047316Y012099D01*
X047217Y012000D02*
X043475Y012000D01*
X043475Y011902D02*
X047119Y011902D01*
X047020Y011803D02*
X043475Y011803D01*
X043475Y011705D02*
X046922Y011705D01*
X046823Y011606D02*
X043475Y011606D01*
X043475Y011508D02*
X046725Y011508D01*
X046626Y011409D02*
X043475Y011409D01*
X043475Y011311D02*
X046528Y011311D01*
X046429Y011212D02*
X043475Y011212D01*
X043475Y011114D02*
X046331Y011114D01*
X046232Y011015D02*
X045308Y011015D01*
X045393Y010917D02*
X046134Y010917D01*
X046035Y010818D02*
X045393Y010818D01*
X045393Y010720D02*
X045937Y010720D01*
X045838Y010621D02*
X045393Y010621D01*
X045393Y010523D02*
X045740Y010523D01*
X045641Y010424D02*
X045393Y010424D01*
X045349Y010326D02*
X045543Y010326D01*
X046030Y010300D02*
X042970Y007240D01*
X041280Y007240D01*
X041260Y007260D01*
X043154Y006681D02*
X043898Y006681D01*
X043997Y006780D02*
X043252Y006780D01*
X043351Y006878D02*
X044095Y006878D01*
X044194Y006977D02*
X043449Y006977D01*
X043548Y007075D02*
X044292Y007075D01*
X044391Y007174D02*
X043646Y007174D01*
X043745Y007272D02*
X044489Y007272D01*
X044733Y006950D02*
X046183Y006950D01*
X046289Y007057D01*
X046270Y007010D01*
X046270Y006870D01*
X046323Y006742D01*
X046422Y006643D01*
X046550Y006590D01*
X046690Y006590D01*
X046818Y006643D01*
X046915Y006740D01*
X048345Y006740D01*
X048263Y006658D01*
X048210Y006530D01*
X048210Y006390D01*
X048227Y006350D01*
X044133Y006350D01*
X044733Y006950D01*
X044661Y006878D02*
X046270Y006878D01*
X046270Y006977D02*
X046209Y006977D01*
X046308Y006780D02*
X044562Y006780D01*
X044464Y006681D02*
X046384Y006681D01*
X046620Y006940D02*
X050426Y006940D01*
X050749Y007075D02*
X053466Y007075D01*
X053342Y007174D02*
X050688Y007174D01*
X050539Y007272D02*
X053290Y007272D01*
X053270Y007371D02*
X048510Y007371D01*
X048655Y007469D02*
X053274Y007469D01*
X053620Y007390D02*
X058873Y007390D01*
X059060Y007700D02*
X059520Y007240D01*
X059270Y007050D02*
X058600Y007050D01*
X058500Y007150D01*
X056820Y007150D01*
X055990Y006320D01*
X049550Y006320D01*
X049410Y006460D01*
X048560Y006460D01*
X048232Y006583D02*
X044365Y006583D01*
X044267Y006484D02*
X048210Y006484D01*
X048212Y006386D02*
X044168Y006386D01*
X045713Y005850D02*
X047597Y005850D01*
X047540Y005793D01*
X047414Y005667D01*
X047276Y005667D01*
X047147Y005614D01*
X047049Y005515D01*
X046995Y005386D01*
X046995Y005247D01*
X047031Y005161D01*
X046978Y005178D01*
X046937Y005278D01*
X046838Y005377D01*
X046710Y005430D01*
X046570Y005430D01*
X046442Y005377D01*
X046343Y005278D01*
X046326Y005237D01*
X045713Y005850D01*
X045768Y005795D02*
X047542Y005795D01*
X047443Y005696D02*
X045867Y005696D01*
X045965Y005598D02*
X047131Y005598D01*
X047042Y005499D02*
X046064Y005499D01*
X046162Y005401D02*
X046499Y005401D01*
X046367Y005302D02*
X046261Y005302D01*
X046640Y005080D02*
X047295Y004863D01*
X047340Y004818D01*
X047013Y005204D02*
X046968Y005204D01*
X046995Y005302D02*
X046913Y005302D01*
X047001Y005401D02*
X046781Y005401D01*
X047345Y005317D02*
X047430Y005400D01*
X047740Y005710D01*
X050160Y005710D01*
X051160Y004710D01*
X051730Y004710D01*
X052080Y004711D02*
X056286Y004711D01*
X056293Y004728D02*
X056240Y004600D01*
X056240Y004460D01*
X056293Y004332D01*
X056392Y004233D01*
X056400Y004230D01*
X056360Y004230D01*
X056232Y004177D01*
X056133Y004078D01*
X056100Y003997D01*
X054882Y003997D01*
X054937Y004052D01*
X054990Y004180D01*
X054990Y004320D01*
X054937Y004448D01*
X054838Y004547D01*
X054710Y004600D01*
X054570Y004600D01*
X054442Y004547D01*
X054345Y004450D01*
X052035Y004450D01*
X052000Y004485D01*
X052027Y004512D01*
X052080Y004640D01*
X052080Y004780D01*
X052027Y004908D01*
X059841Y004908D01*
X059841Y004810D02*
X056805Y004810D01*
X056788Y004827D02*
X056660Y004880D01*
X056520Y004880D01*
X056392Y004827D01*
X056293Y004728D01*
X056375Y004810D02*
X052068Y004810D01*
X052027Y004908D02*
X051928Y005007D01*
X051800Y005060D01*
X051660Y005060D01*
X051532Y005007D01*
X051435Y004910D01*
X051243Y004910D01*
X050727Y005426D01*
X050768Y005443D01*
X050865Y005540D01*
X053743Y005540D01*
X053893Y005690D01*
X056690Y005690D01*
X056690Y005670D01*
X056743Y005542D01*
X056842Y005443D01*
X056970Y005390D01*
X057110Y005390D01*
X057238Y005443D01*
X057337Y005542D01*
X057390Y005670D01*
X057390Y005810D01*
X057373Y005850D01*
X059839Y005850D01*
X059841Y005772D01*
X059841Y004793D01*
X059836Y004717D01*
X059841Y004711D01*
X056894Y004711D01*
X056887Y004728D02*
X056788Y004827D01*
X056887Y004728D02*
X056940Y004600D01*
X056940Y004460D01*
X056922Y004416D01*
X057379Y003792D01*
X061255Y003788D01*
X061351Y003884D01*
X061423Y003914D01*
X060797Y004540D01*
X060775Y004540D01*
X060769Y004535D01*
X060693Y004540D01*
X060617Y004540D01*
X060611Y004546D01*
X060034Y004586D01*
X059958Y004586D01*
X059953Y004591D01*
X059945Y004592D01*
X059895Y004649D01*
X059841Y004703D01*
X059841Y004711D01*
X059927Y004613D02*
X056935Y004613D01*
X056940Y004514D02*
X060823Y004514D01*
X060922Y004416D02*
X056922Y004416D01*
X056994Y004317D02*
X061020Y004317D01*
X061119Y004219D02*
X057066Y004219D01*
X057139Y004120D02*
X061217Y004120D01*
X061316Y004022D02*
X057211Y004022D01*
X057283Y003923D02*
X061414Y003923D01*
X061291Y003825D02*
X057355Y003825D01*
X057278Y003593D02*
X056590Y004530D01*
X056240Y004514D02*
X054871Y004514D01*
X054950Y004416D02*
X056259Y004416D01*
X056308Y004317D02*
X054990Y004317D01*
X054990Y004219D02*
X056333Y004219D01*
X056175Y004120D02*
X054965Y004120D01*
X054906Y004022D02*
X056110Y004022D01*
X056347Y003797D02*
X056430Y003880D01*
X056347Y003797D02*
X054415Y003797D01*
X053890Y003940D02*
X051110Y003940D01*
X051740Y004250D02*
X054640Y004250D01*
X054409Y004514D02*
X052028Y004514D01*
X052068Y004613D02*
X056245Y004613D01*
X056945Y005401D02*
X050752Y005401D01*
X050824Y005499D02*
X056786Y005499D01*
X056720Y005598D02*
X053800Y005598D01*
X053660Y005740D02*
X053810Y005890D01*
X056890Y005890D01*
X057040Y005740D01*
X057294Y005499D02*
X059841Y005499D01*
X059841Y005401D02*
X057135Y005401D01*
X057360Y005598D02*
X059841Y005598D01*
X059841Y005696D02*
X057390Y005696D01*
X057390Y005795D02*
X059841Y005795D01*
X060041Y005774D02*
X061140Y005800D01*
X061620Y005800D01*
X061680Y005740D01*
X061270Y005490D02*
X062610Y004150D01*
X070800Y004150D01*
X070810Y004160D01*
X070571Y004416D02*
X069670Y004416D01*
X069670Y004350D02*
X069670Y004951D01*
X069641Y004980D01*
X069039Y004980D01*
X069010Y004951D01*
X069010Y004350D01*
X068290Y004350D01*
X068290Y004951D01*
X068261Y004980D01*
X067659Y004980D01*
X067630Y004951D01*
X067630Y004350D01*
X062693Y004350D01*
X062237Y004806D01*
X062278Y004823D01*
X062377Y004922D01*
X062430Y005050D01*
X062430Y005187D01*
X062633Y005390D01*
X062770Y005390D01*
X062898Y005443D01*
X062997Y005542D01*
X063050Y005670D01*
X063050Y005810D01*
X063033Y005850D01*
X067475Y005850D01*
X067522Y005803D01*
X067650Y005750D01*
X067790Y005750D01*
X067918Y005803D01*
X068017Y005902D01*
X068070Y006030D01*
X068070Y006097D01*
X068487Y005680D01*
X068923Y005680D01*
X068933Y005690D01*
X072523Y005690D01*
X072619Y005593D01*
X072746Y005541D01*
X072665Y005460D01*
X066045Y005460D01*
X065948Y005557D01*
X065820Y005610D01*
X065680Y005610D01*
X065552Y005557D01*
X065453Y005458D01*
X065400Y005330D01*
X065400Y005190D01*
X065453Y005062D01*
X065552Y004963D01*
X065680Y004910D01*
X065820Y004910D01*
X065948Y004963D01*
X066045Y005060D01*
X072137Y005060D01*
X072110Y005033D01*
X071155Y004078D01*
X071160Y004090D01*
X071160Y004230D01*
X071107Y004358D01*
X071008Y004457D01*
X070880Y004510D01*
X070740Y004510D01*
X070612Y004457D01*
X070513Y004358D01*
X070510Y004350D01*
X069670Y004350D01*
X069670Y004514D02*
X071591Y004514D01*
X071493Y004416D02*
X071049Y004416D01*
X071124Y004317D02*
X071394Y004317D01*
X071296Y004219D02*
X071160Y004219D01*
X071160Y004120D02*
X071197Y004120D01*
X071697Y003825D02*
X072240Y003825D01*
X072142Y003923D02*
X071796Y003923D01*
X071894Y004022D02*
X072130Y004022D01*
X072130Y003935D02*
X072415Y003650D01*
X072130Y003365D01*
X072130Y003200D01*
X072600Y003200D01*
X072600Y003100D01*
X072700Y003100D01*
X072700Y002630D01*
X072817Y002630D01*
X072687Y002500D01*
X070703Y002500D01*
X070720Y002540D01*
X070720Y002680D01*
X070667Y002808D01*
X070568Y002907D01*
X070440Y002960D01*
X070300Y002960D01*
X070172Y002907D01*
X070075Y002810D01*
X065078Y002810D01*
X065158Y002843D01*
X065255Y002940D01*
X065603Y002940D01*
X066153Y003490D01*
X071363Y003490D01*
X072130Y004257D01*
X072130Y003935D01*
X072130Y004120D02*
X071993Y004120D01*
X072091Y004219D02*
X072130Y004219D01*
X072339Y003726D02*
X071599Y003726D01*
X071500Y003628D02*
X072392Y003628D01*
X072294Y003529D02*
X071402Y003529D01*
X071280Y003690D02*
X072380Y004790D01*
X073010Y004790D01*
X073650Y004150D01*
X074650Y004150D02*
X074650Y005250D01*
X072775Y007102D01*
X072425Y007115D02*
X072425Y007171D01*
X072479Y007300D01*
X072559Y007380D01*
X072540Y007380D01*
X072412Y007433D01*
X072313Y007532D01*
X072260Y007660D01*
X072260Y007800D01*
X072313Y007928D01*
X072398Y008013D01*
X072383Y008013D01*
X072254Y008066D01*
X072156Y008165D01*
X072102Y008293D01*
X072102Y008432D01*
X072156Y008561D01*
X072221Y008627D01*
X072164Y008651D01*
X071684Y008651D01*
X071782Y008750D02*
X072066Y008750D01*
X072066Y008749D02*
X072164Y008651D01*
X072152Y008553D02*
X071585Y008553D01*
X071487Y008454D02*
X072111Y008454D01*
X072102Y008356D02*
X071388Y008356D01*
X071290Y008257D02*
X072117Y008257D01*
X072162Y008159D02*
X071494Y008159D01*
X071455Y008175D02*
X071316Y008175D01*
X071187Y008121D01*
X071088Y008023D01*
X071035Y007894D01*
X071035Y007755D01*
X071088Y007626D01*
X071187Y007528D01*
X071316Y007475D01*
X071455Y007475D01*
X071461Y007477D01*
X072767Y006240D01*
X072748Y006240D01*
X072619Y006187D01*
X072523Y006090D01*
X069047Y006090D01*
X069060Y006120D01*
X069060Y006257D01*
X069146Y006343D01*
X069163Y006302D01*
X069262Y006203D01*
X069390Y006150D01*
X069530Y006150D01*
X069658Y006203D01*
X069757Y006302D01*
X069810Y006430D01*
X069810Y006570D01*
X069757Y006698D01*
X069744Y006711D01*
X072013Y008980D01*
X072013Y008878D01*
X072066Y008749D01*
X072025Y008848D02*
X071881Y008848D01*
X071979Y008947D02*
X072013Y008947D01*
X072363Y008947D02*
X072563Y009192D01*
X075839Y009586D01*
X075591Y009833D02*
X072866Y009833D01*
X072964Y009932D02*
X075759Y009932D01*
X075770Y009936D02*
X075641Y009883D01*
X075543Y009784D01*
X075528Y009750D01*
X072541Y009391D01*
X072460Y009383D01*
X072459Y009381D01*
X072457Y009381D01*
X072406Y009317D01*
X072390Y009297D01*
X072330Y009297D01*
X074200Y011167D01*
X074200Y011355D01*
X074297Y011452D01*
X074350Y011580D01*
X074350Y011720D01*
X074321Y011790D01*
X076707Y011790D01*
X077420Y011077D01*
X077420Y010033D01*
X077380Y010050D01*
X077240Y010050D01*
X077112Y009997D01*
X077013Y009898D01*
X076960Y009770D01*
X076960Y009666D01*
X075932Y008799D01*
X075909Y008809D01*
X075770Y008809D01*
X075641Y008756D01*
X075543Y008657D01*
X075489Y008529D01*
X075489Y008390D01*
X075543Y008261D01*
X075641Y008162D01*
X075770Y008109D01*
X075909Y008109D01*
X076038Y008162D01*
X076136Y008261D01*
X076189Y008390D01*
X076189Y008493D01*
X077217Y009360D01*
X077240Y009350D01*
X077380Y009350D01*
X077420Y009367D01*
X077420Y005378D01*
X077387Y005458D01*
X077288Y005557D01*
X077160Y005610D01*
X077020Y005610D01*
X076892Y005557D01*
X076795Y005460D01*
X076475Y005460D01*
X076378Y005557D01*
X076250Y005610D01*
X076110Y005610D01*
X075982Y005557D01*
X075883Y005458D01*
X075830Y005330D01*
X075830Y005253D01*
X073752Y007331D01*
X072802Y008293D01*
X072802Y008293D01*
X072802Y008432D01*
X072786Y008471D01*
X072911Y008420D01*
X073047Y008420D01*
X073849Y007618D01*
X073907Y007560D01*
X073907Y007560D01*
X073907Y007560D01*
X073990Y007560D01*
X075795Y007560D01*
X075892Y007463D01*
X076020Y007410D01*
X076160Y007410D01*
X076288Y007463D01*
X076387Y007562D01*
X076440Y007690D01*
X076440Y007830D01*
X076387Y007958D01*
X076288Y008057D01*
X076160Y008110D01*
X076020Y008110D01*
X075892Y008057D01*
X075795Y007960D01*
X074073Y007960D01*
X073330Y008702D01*
X073330Y008839D01*
X073277Y008968D01*
X073180Y009065D01*
X075577Y009353D01*
X075641Y009289D01*
X075770Y009236D01*
X075909Y009236D01*
X076038Y009289D01*
X076136Y009388D01*
X076189Y009516D01*
X076189Y009656D01*
X076136Y009784D01*
X076038Y009883D01*
X075909Y009936D01*
X075770Y009936D01*
X075920Y009932D02*
X077047Y009932D01*
X076986Y009833D02*
X076087Y009833D01*
X076157Y009735D02*
X076960Y009735D01*
X076924Y009636D02*
X076189Y009636D01*
X076189Y009538D02*
X076807Y009538D01*
X076691Y009439D02*
X076157Y009439D01*
X076089Y009341D02*
X076574Y009341D01*
X076457Y009242D02*
X075924Y009242D01*
X075755Y009242D02*
X074653Y009242D01*
X075473Y009341D02*
X075590Y009341D01*
X075399Y009735D02*
X072767Y009735D01*
X072669Y009636D02*
X074579Y009636D01*
X073759Y009538D02*
X072570Y009538D01*
X072472Y009439D02*
X072939Y009439D01*
X073200Y009045D02*
X076224Y009045D01*
X076340Y009144D02*
X073833Y009144D01*
X073286Y008947D02*
X076107Y008947D01*
X075990Y008848D02*
X073327Y008848D01*
X073330Y008750D02*
X075635Y008750D01*
X075540Y008651D02*
X073382Y008651D01*
X073480Y008553D02*
X075499Y008553D01*
X075489Y008454D02*
X073579Y008454D01*
X073677Y008356D02*
X075503Y008356D01*
X075547Y008257D02*
X073776Y008257D01*
X073874Y008159D02*
X075651Y008159D01*
X075797Y007962D02*
X074071Y007962D01*
X073973Y008060D02*
X075900Y008060D01*
X076028Y008159D02*
X077420Y008159D01*
X077420Y008257D02*
X076132Y008257D01*
X076175Y008356D02*
X077420Y008356D01*
X077420Y008454D02*
X076189Y008454D01*
X076260Y008553D02*
X077420Y008553D01*
X077420Y008651D02*
X076377Y008651D01*
X076494Y008750D02*
X077420Y008750D01*
X077420Y008848D02*
X076610Y008848D01*
X076727Y008947D02*
X077420Y008947D01*
X077420Y009045D02*
X076844Y009045D01*
X076961Y009144D02*
X077420Y009144D01*
X077420Y009242D02*
X077077Y009242D01*
X077194Y009341D02*
X077420Y009341D01*
X077310Y009700D02*
X075839Y008459D01*
X076280Y008060D02*
X077420Y008060D01*
X077420Y007962D02*
X076383Y007962D01*
X076426Y007863D02*
X077420Y007863D01*
X077420Y007765D02*
X076440Y007765D01*
X076430Y007666D02*
X077420Y007666D01*
X077420Y007568D02*
X076389Y007568D01*
X076294Y007469D02*
X077420Y007469D01*
X077420Y007371D02*
X073713Y007371D01*
X073616Y007469D02*
X075886Y007469D01*
X076090Y007760D02*
X073990Y007760D01*
X072980Y008770D01*
X072827Y008454D02*
X072793Y008454D01*
X072802Y008356D02*
X073111Y008356D01*
X073210Y008257D02*
X072838Y008257D01*
X072935Y008159D02*
X073309Y008159D01*
X073407Y008060D02*
X073032Y008060D01*
X073129Y007962D02*
X073506Y007962D01*
X073604Y007863D02*
X073227Y007863D01*
X073324Y007765D02*
X073703Y007765D01*
X073801Y007666D02*
X073421Y007666D01*
X073518Y007568D02*
X073900Y007568D01*
X073811Y007272D02*
X077420Y007272D01*
X077420Y007174D02*
X073909Y007174D01*
X074008Y007075D02*
X077420Y007075D01*
X077420Y006977D02*
X074106Y006977D01*
X074205Y006878D02*
X077420Y006878D01*
X077420Y006780D02*
X074303Y006780D01*
X074402Y006681D02*
X077420Y006681D01*
X077420Y006583D02*
X074500Y006583D01*
X074599Y006484D02*
X077420Y006484D01*
X077420Y006386D02*
X074697Y006386D01*
X074796Y006287D02*
X077420Y006287D01*
X077420Y006189D02*
X074894Y006189D01*
X074993Y006090D02*
X077420Y006090D01*
X077420Y005992D02*
X075091Y005992D01*
X075190Y005893D02*
X077420Y005893D01*
X077420Y005795D02*
X075288Y005795D01*
X075387Y005696D02*
X077420Y005696D01*
X077420Y005598D02*
X077190Y005598D01*
X077346Y005499D02*
X077420Y005499D01*
X077411Y005401D02*
X077420Y005401D01*
X077090Y005260D02*
X076180Y005260D01*
X075859Y005401D02*
X075682Y005401D01*
X075584Y005499D02*
X075924Y005499D01*
X076080Y005598D02*
X075485Y005598D01*
X075781Y005302D02*
X075830Y005302D01*
X076280Y005598D02*
X076990Y005598D01*
X076834Y005499D02*
X076436Y005499D01*
X077820Y005499D02*
X078450Y005499D01*
X078450Y005401D02*
X077820Y005401D01*
X077820Y005302D02*
X078450Y005302D01*
X078450Y005204D02*
X077820Y005204D01*
X077820Y005105D02*
X078450Y005105D01*
X078450Y005007D02*
X077820Y005007D01*
X077820Y004908D02*
X078450Y004908D01*
X078450Y004810D02*
X077820Y004810D01*
X077820Y004711D02*
X078450Y004711D01*
X078450Y004670D02*
X078435Y004670D01*
X078130Y004365D01*
X078130Y003935D01*
X078415Y003650D01*
X078130Y003365D01*
X078130Y003200D01*
X078600Y003200D01*
X078600Y003100D01*
X078700Y003100D01*
X078700Y002630D01*
X078865Y002630D01*
X079150Y002915D01*
X079435Y002630D01*
X079865Y002630D01*
X080150Y002915D01*
X080435Y002630D01*
X080865Y002630D01*
X081170Y002935D01*
X081170Y003365D01*
X080885Y003650D01*
X081170Y003935D01*
X081170Y004365D01*
X080865Y004670D01*
X080435Y004670D01*
X080150Y004385D01*
X079865Y004670D01*
X079435Y004670D01*
X079150Y004385D01*
X078865Y004670D01*
X078850Y004670D01*
X078850Y008977D01*
X080016Y010143D01*
X080047Y010130D01*
X080253Y010130D01*
X080445Y010209D01*
X080591Y010355D01*
X080670Y010547D01*
X080670Y010753D01*
X080591Y010945D01*
X080445Y011091D01*
X080302Y011150D01*
X080445Y011209D01*
X080591Y011355D01*
X080670Y011547D01*
X080670Y011753D01*
X080591Y011945D01*
X080445Y012091D01*
X080253Y012170D01*
X080047Y012170D01*
X079855Y012091D01*
X079709Y011945D01*
X079630Y011753D01*
X079630Y011547D01*
X079709Y011355D01*
X079855Y011209D01*
X079998Y011150D01*
X079855Y011091D01*
X079709Y010945D01*
X079630Y010753D01*
X079630Y010547D01*
X079696Y010388D01*
X078450Y009143D01*
X078450Y004670D01*
X078377Y004613D02*
X077820Y004613D01*
X077820Y004514D02*
X078279Y004514D01*
X078180Y004416D02*
X077820Y004416D01*
X077820Y004317D02*
X078130Y004317D01*
X078130Y004219D02*
X077820Y004219D01*
X077820Y004120D02*
X078130Y004120D01*
X078130Y004022D02*
X077804Y004022D01*
X077706Y003923D02*
X078142Y003923D01*
X078240Y003825D02*
X077607Y003825D01*
X077509Y003726D02*
X078339Y003726D01*
X078392Y003628D02*
X077410Y003628D01*
X077312Y003529D02*
X078294Y003529D01*
X078195Y003431D02*
X077213Y003431D01*
X077170Y003332D02*
X078130Y003332D01*
X078130Y003234D02*
X077170Y003234D01*
X077170Y003135D02*
X078600Y003135D01*
X078600Y003100D02*
X078130Y003100D01*
X078130Y002935D01*
X078435Y002630D01*
X078600Y002630D01*
X078600Y003100D01*
X078600Y003037D02*
X078700Y003037D01*
X078700Y002938D02*
X078600Y002938D01*
X078600Y002840D02*
X078700Y002840D01*
X078700Y002741D02*
X078600Y002741D01*
X078600Y002643D02*
X078700Y002643D01*
X078878Y002643D02*
X079422Y002643D01*
X079324Y002741D02*
X078976Y002741D01*
X079075Y002840D02*
X079225Y002840D01*
X079878Y002643D02*
X080422Y002643D01*
X080324Y002741D02*
X079976Y002741D01*
X080075Y002840D02*
X080225Y002840D01*
X080878Y002643D02*
X083535Y002643D01*
X083472Y002579D02*
X083167Y002403D01*
X082826Y002312D01*
X082650Y002300D01*
X073053Y002300D01*
X073409Y002656D01*
X073435Y002630D01*
X073865Y002630D01*
X074150Y002915D01*
X074435Y002630D01*
X074865Y002630D01*
X075150Y002915D01*
X075075Y002840D02*
X075225Y002840D01*
X075324Y002741D02*
X074976Y002741D01*
X074878Y002643D02*
X075422Y002643D01*
X075878Y002643D02*
X076422Y002643D01*
X076324Y002741D02*
X075976Y002741D01*
X076075Y002840D02*
X076225Y002840D01*
X076878Y002643D02*
X078422Y002643D01*
X078324Y002741D02*
X076976Y002741D01*
X077075Y002840D02*
X078225Y002840D01*
X078130Y002938D02*
X077170Y002938D01*
X077170Y003037D02*
X078130Y003037D01*
X077620Y004120D02*
X076650Y003150D01*
X074422Y002643D02*
X073878Y002643D01*
X073976Y002741D02*
X074324Y002741D01*
X074225Y002840D02*
X074075Y002840D01*
X073422Y002643D02*
X073395Y002643D01*
X073297Y002544D02*
X083411Y002544D01*
X083472Y002579D02*
X083721Y002828D01*
X083897Y003133D01*
X083988Y003474D01*
X084000Y003650D01*
X084000Y020150D01*
X083988Y020326D01*
X083897Y020667D01*
X083721Y020972D01*
X083472Y021221D01*
X083167Y021397D01*
X082826Y021488D01*
X082826Y021488D01*
X082650Y021500D01*
X057850Y021500D01*
X057850Y019567D01*
X057733Y019450D01*
X056850Y018567D01*
X056850Y017733D01*
X057350Y017233D01*
X057350Y014067D01*
X057233Y013950D01*
X055067Y013950D01*
X054950Y014067D01*
X054950Y018950D01*
X051233Y018950D01*
X050850Y018567D01*
X050850Y017733D01*
X051350Y017233D01*
X051350Y014067D01*
X051233Y013950D01*
X049067Y013950D01*
X048950Y014067D01*
X048950Y018950D01*
X045233Y018950D01*
X044850Y018567D01*
X044850Y017733D01*
X045350Y017233D01*
X045350Y014067D01*
X045233Y013950D01*
X043067Y013950D01*
X042950Y014067D01*
X042950Y018950D01*
X040850Y018950D01*
X040850Y018067D01*
X040733Y017950D01*
X040233Y017450D01*
X039067Y017450D01*
X038950Y017567D01*
X038450Y018067D01*
X038450Y018950D01*
X011567Y018950D01*
X011450Y019067D01*
X010950Y019567D01*
X010950Y021500D01*
X003650Y021500D01*
X003474Y021488D01*
X003133Y021397D01*
X002828Y021221D01*
X002579Y020972D01*
X002403Y020667D01*
X002312Y020326D01*
X002300Y020150D01*
X002300Y003650D01*
X002312Y003474D01*
X002403Y003133D01*
X002579Y002828D01*
X002828Y002579D01*
X003133Y002403D01*
X003059Y002446D02*
X061134Y002446D01*
X061111Y002544D02*
X048262Y002544D01*
X048387Y002643D02*
X061112Y002643D01*
X061461Y002571D02*
X062000Y002300D01*
X072770Y002300D01*
X073620Y003150D01*
X073650Y003150D01*
X072700Y003037D02*
X072600Y003037D01*
X072600Y003100D02*
X072600Y002630D01*
X072435Y002630D01*
X072130Y002935D01*
X072130Y003100D01*
X072600Y003100D01*
X072600Y003135D02*
X065798Y003135D01*
X065896Y003234D02*
X072130Y003234D01*
X072130Y003332D02*
X065995Y003332D01*
X066093Y003431D02*
X072195Y003431D01*
X071280Y003690D02*
X066070Y003690D01*
X065520Y003140D01*
X064960Y003140D01*
X065253Y002938D02*
X070247Y002938D01*
X070105Y002840D02*
X065149Y002840D01*
X065699Y003037D02*
X072130Y003037D01*
X072130Y002938D02*
X070493Y002938D01*
X070635Y002840D02*
X072225Y002840D01*
X072324Y002741D02*
X070695Y002741D01*
X070720Y002643D02*
X072422Y002643D01*
X072600Y002643D02*
X072700Y002643D01*
X072700Y002741D02*
X072600Y002741D01*
X072600Y002840D02*
X072700Y002840D01*
X072700Y002938D02*
X072600Y002938D01*
X072731Y002544D02*
X070720Y002544D01*
X070370Y002610D02*
X064390Y002610D01*
X062670Y003210D02*
X060581Y005280D01*
X059841Y005302D02*
X050851Y005302D01*
X050949Y005204D02*
X059841Y005204D01*
X059841Y005105D02*
X051048Y005105D01*
X051146Y005007D02*
X051532Y005007D01*
X051928Y005007D02*
X059841Y005007D01*
X060041Y004786D02*
X060041Y005774D01*
X059340Y006310D02*
X063910Y006310D01*
X066025Y008425D01*
X068570Y005880D01*
X068840Y005880D01*
X068850Y005890D01*
X072818Y005890D01*
X072615Y005598D02*
X065850Y005598D01*
X066006Y005499D02*
X072704Y005499D01*
X072960Y005260D02*
X065750Y005260D01*
X065429Y005401D02*
X062795Y005401D01*
X062954Y005499D02*
X065494Y005499D01*
X065650Y005598D02*
X063020Y005598D01*
X063050Y005696D02*
X068471Y005696D01*
X068373Y005795D02*
X067897Y005795D01*
X068008Y005893D02*
X068274Y005893D01*
X068176Y005992D02*
X068054Y005992D01*
X068070Y006090D02*
X068077Y006090D01*
X068347Y006386D02*
X068412Y006386D01*
X068413Y006388D02*
X068393Y006340D01*
X066309Y008424D01*
X066642Y008750D01*
X066643Y008749D01*
X066782Y008749D01*
X066911Y008803D01*
X067009Y008901D01*
X067062Y009030D01*
X067062Y009169D01*
X067009Y009298D01*
X066911Y009396D01*
X066864Y009416D01*
X067420Y009971D01*
X067832Y009971D01*
X067929Y009875D01*
X068058Y009821D01*
X068186Y009821D01*
X069277Y008730D01*
X070235Y008730D01*
X070332Y008633D01*
X070460Y008580D01*
X070600Y008580D01*
X070728Y008633D01*
X070750Y008655D01*
X070792Y008613D01*
X070833Y008596D01*
X068777Y006540D01*
X068640Y006540D01*
X068512Y006487D01*
X068413Y006388D01*
X068509Y006484D02*
X068249Y006484D01*
X068150Y006583D02*
X068820Y006583D01*
X068918Y006681D02*
X068052Y006681D01*
X067953Y006780D02*
X069017Y006780D01*
X069115Y006878D02*
X067855Y006878D01*
X067756Y006977D02*
X069214Y006977D01*
X069312Y007075D02*
X067658Y007075D01*
X067559Y007174D02*
X069411Y007174D01*
X069509Y007272D02*
X067461Y007272D01*
X067362Y007371D02*
X069608Y007371D01*
X069706Y007469D02*
X067264Y007469D01*
X067165Y007568D02*
X069805Y007568D01*
X069903Y007666D02*
X067067Y007666D01*
X066968Y007765D02*
X070002Y007765D01*
X070100Y007863D02*
X066870Y007863D01*
X066771Y007962D02*
X070199Y007962D01*
X070297Y008060D02*
X066673Y008060D01*
X066574Y008159D02*
X070396Y008159D01*
X070494Y008257D02*
X066476Y008257D01*
X066377Y008356D02*
X070593Y008356D01*
X070691Y008454D02*
X066340Y008454D01*
X066441Y008553D02*
X070790Y008553D01*
X070754Y008651D02*
X070746Y008651D01*
X070530Y008930D02*
X069360Y008930D01*
X068130Y010160D01*
X068127Y010171D01*
X067338Y010171D01*
X063630Y006470D01*
X059410Y006470D01*
X059110Y006770D01*
X057630Y006770D01*
X056850Y006460D02*
X059190Y006460D01*
X059340Y006310D01*
X059540Y006780D02*
X059270Y007050D01*
X059795Y007020D02*
X059817Y007042D01*
X059870Y007170D01*
X059870Y007310D01*
X059817Y007438D01*
X059718Y007537D01*
X059590Y007590D01*
X059453Y007590D01*
X059260Y007783D01*
X059143Y007900D01*
X056775Y007900D01*
X056678Y007997D01*
X056550Y008050D01*
X056410Y008050D01*
X056282Y007997D01*
X056183Y007898D01*
X056130Y007770D01*
X056130Y007630D01*
X056147Y007590D01*
X054531Y007590D01*
X054616Y007644D01*
X054683Y007616D01*
X054823Y007616D01*
X054951Y007669D01*
X055050Y007768D01*
X055103Y007896D01*
X055103Y008036D01*
X055056Y008150D01*
X058947Y008150D01*
X059250Y007847D01*
X059367Y007730D01*
X064083Y007730D01*
X065796Y009443D01*
X065813Y009402D01*
X065912Y009303D01*
X066040Y009250D01*
X066132Y009250D01*
X063547Y006670D01*
X059873Y006670D01*
X059890Y006710D01*
X059890Y006850D01*
X059837Y006978D01*
X059795Y007020D01*
X059837Y006977D02*
X063854Y006977D01*
X063953Y007075D02*
X059830Y007075D01*
X059870Y007174D02*
X064052Y007174D01*
X064150Y007272D02*
X059870Y007272D01*
X059845Y007371D02*
X064249Y007371D01*
X064348Y007469D02*
X059786Y007469D01*
X059644Y007568D02*
X064446Y007568D01*
X064545Y007666D02*
X059377Y007666D01*
X059333Y007765D02*
X059278Y007765D01*
X059260Y007783D02*
X059260Y007783D01*
X059234Y007863D02*
X059180Y007863D01*
X059136Y007962D02*
X056713Y007962D01*
X056480Y007700D02*
X059060Y007700D01*
X059037Y008060D02*
X055093Y008060D01*
X055103Y007962D02*
X056247Y007962D01*
X056169Y007863D02*
X055089Y007863D01*
X055047Y007765D02*
X056130Y007765D01*
X056130Y007666D02*
X054943Y007666D01*
X054753Y007966D02*
X054330Y007700D01*
X048391Y007700D01*
X048067Y007568D02*
X046800Y007568D01*
X046899Y007666D02*
X048041Y007666D01*
X048041Y007765D02*
X046997Y007765D01*
X047096Y007863D02*
X048079Y007863D01*
X048157Y007962D02*
X047194Y007962D01*
X047293Y008060D02*
X050153Y008060D01*
X050268Y007962D02*
X048624Y007962D01*
X048127Y007469D02*
X046702Y007469D01*
X046603Y007371D02*
X048272Y007371D01*
X046881Y007174D02*
X050165Y007174D01*
X050313Y007272D02*
X046733Y007272D01*
X046507Y007272D02*
X046505Y007272D01*
X046235Y007568D02*
X044040Y007568D01*
X044139Y007666D02*
X046333Y007666D01*
X046136Y007469D02*
X043942Y007469D01*
X043843Y007371D02*
X046038Y007371D01*
X046856Y006681D02*
X048286Y006681D01*
X049680Y006630D02*
X049810Y006500D01*
X055280Y006500D01*
X055410Y006630D01*
X055657Y006878D02*
X056265Y006878D01*
X056167Y006780D02*
X055727Y006780D01*
X055760Y006681D02*
X056068Y006681D01*
X055970Y006583D02*
X055760Y006583D01*
X055163Y006878D02*
X050776Y006878D01*
X050776Y006977D02*
X055332Y006977D01*
X055488Y006977D02*
X056364Y006977D01*
X056462Y007075D02*
X053774Y007075D01*
X053898Y007174D02*
X056561Y007174D01*
X055093Y006780D02*
X050739Y006780D01*
X050570Y005740D02*
X053660Y005740D01*
X049295Y004613D02*
X047954Y004613D01*
X047908Y004514D02*
X049393Y004514D01*
X049492Y004416D02*
X047877Y004416D01*
X047847Y004317D02*
X049590Y004317D01*
X049689Y004219D02*
X047816Y004219D01*
X047786Y004120D02*
X049787Y004120D01*
X049886Y004022D02*
X047755Y004022D01*
X047725Y003923D02*
X049984Y003923D01*
X050083Y003825D02*
X047580Y003825D01*
X047554Y003825D02*
X042227Y003825D01*
X042326Y003923D02*
X045194Y003923D01*
X045096Y004022D02*
X042424Y004022D01*
X042523Y004120D02*
X044997Y004120D01*
X044899Y004219D02*
X042621Y004219D01*
X042720Y004317D02*
X044800Y004317D01*
X044702Y004416D02*
X042818Y004416D01*
X042917Y004514D02*
X044603Y004514D01*
X044505Y004613D02*
X043015Y004613D01*
X043114Y004711D02*
X044406Y004711D01*
X044308Y004810D02*
X043212Y004810D01*
X043311Y004908D02*
X044209Y004908D01*
X044111Y005007D02*
X043409Y005007D01*
X043508Y005105D02*
X043826Y005105D01*
X043702Y005204D02*
X043606Y005204D01*
X044381Y005302D02*
X045043Y005302D01*
X048096Y004711D02*
X049196Y004711D01*
X050181Y003726D02*
X042129Y003726D01*
X042030Y003628D02*
X050280Y003628D01*
X050378Y003529D02*
X041970Y003529D01*
X042004Y003431D02*
X050477Y003431D01*
X050575Y003332D02*
X042082Y003332D01*
X042120Y003234D02*
X050674Y003234D01*
X050772Y003135D02*
X048330Y003135D01*
X048416Y003037D02*
X050871Y003037D01*
X050969Y002938D02*
X048457Y002938D01*
X048460Y002840D02*
X051068Y002840D01*
X051166Y002741D02*
X048440Y002741D01*
X048110Y002860D02*
X041640Y002860D01*
X041476Y002741D02*
X002666Y002741D01*
X002572Y002840D02*
X041378Y002840D01*
X041279Y002938D02*
X002516Y002938D01*
X002459Y003037D02*
X041181Y003037D01*
X042120Y003135D02*
X047890Y003135D01*
X047833Y002643D02*
X002765Y002643D01*
X002889Y002544D02*
X047958Y002544D01*
X041760Y003923D02*
X040860Y003923D01*
X040958Y003825D02*
X041662Y003825D01*
X041687Y003850D02*
X041687Y003850D01*
X041570Y003726D02*
X041057Y003726D01*
X041155Y003628D02*
X041570Y003628D01*
X041570Y003529D02*
X041254Y003529D01*
X041352Y003431D02*
X041536Y003431D01*
X041458Y003332D02*
X041451Y003332D01*
X037350Y003135D02*
X002402Y003135D01*
X002376Y003234D02*
X037212Y003234D01*
X037154Y003332D02*
X036897Y003332D01*
X037025Y003431D02*
X037130Y003431D01*
X037130Y003529D02*
X037092Y003529D01*
X036603Y003332D02*
X002350Y003332D01*
X002323Y003431D02*
X010971Y003431D01*
X010995Y003407D02*
X011555Y003407D01*
X011613Y003465D01*
X015062Y003465D01*
X015120Y003407D01*
X015680Y003407D01*
X015768Y003495D01*
X015768Y004055D01*
X015680Y004143D01*
X015120Y004143D01*
X015062Y004085D01*
X011613Y004085D01*
X011555Y004143D01*
X010995Y004143D01*
X010907Y004055D01*
X010907Y003495D01*
X010995Y003407D01*
X010907Y003529D02*
X002308Y003529D01*
X002301Y003628D02*
X010907Y003628D01*
X010907Y003726D02*
X002300Y003726D01*
X002300Y003825D02*
X010907Y003825D01*
X010907Y003923D02*
X002300Y003923D01*
X002300Y004022D02*
X010907Y004022D01*
X010972Y004120D02*
X002300Y004120D01*
X002300Y004219D02*
X027850Y004219D01*
X027850Y004317D02*
X002300Y004317D01*
X002300Y004416D02*
X027850Y004416D01*
X027850Y004514D02*
X002300Y004514D01*
X002300Y004613D02*
X007917Y004613D01*
X007830Y004711D02*
X002300Y004711D01*
X002300Y004810D02*
X007789Y004810D01*
X007782Y004908D02*
X002300Y004908D01*
X002300Y005007D02*
X007796Y005007D01*
X007836Y005105D02*
X002300Y005105D01*
X002300Y005204D02*
X007933Y005204D01*
X008150Y004900D02*
X010400Y004900D01*
X011400Y005900D01*
X014275Y005900D01*
X014275Y012275D01*
X014643Y012296D02*
X030950Y012296D01*
X030950Y012394D02*
X014624Y012394D01*
X014578Y012493D02*
X030950Y012493D01*
X030950Y012591D02*
X014474Y012591D01*
X014076Y012591D02*
X002300Y012591D01*
X002300Y012493D02*
X013972Y012493D01*
X013926Y012394D02*
X002300Y012394D01*
X002300Y012296D02*
X013907Y012296D01*
X013909Y012197D02*
X002300Y012197D01*
X002300Y012099D02*
X013950Y012099D01*
X014029Y012000D02*
X002300Y012000D01*
X002300Y011902D02*
X014075Y011902D01*
X014075Y011803D02*
X002300Y011803D01*
X002300Y011705D02*
X005434Y011705D01*
X005441Y011712D02*
X005338Y011609D01*
X005334Y011600D01*
X004567Y011600D01*
X004232Y011265D01*
X004223Y011268D01*
X004077Y011268D01*
X003941Y011212D01*
X002300Y011212D01*
X002300Y011114D02*
X003843Y011114D01*
X003838Y011109D02*
X003782Y010973D01*
X003782Y010827D01*
X003838Y010691D01*
X003941Y010588D01*
X004077Y010532D01*
X004223Y010532D01*
X004359Y010588D01*
X004462Y010691D01*
X004518Y010827D01*
X004518Y010973D01*
X004515Y010982D01*
X004733Y011200D01*
X005334Y011200D01*
X005338Y011191D01*
X005441Y011088D01*
X005577Y011032D01*
X005723Y011032D01*
X005859Y011088D01*
X005962Y011191D01*
X006018Y011327D01*
X006018Y011473D01*
X005962Y011609D01*
X005859Y011712D01*
X005723Y011768D01*
X005577Y011768D01*
X005441Y011712D01*
X005337Y011606D02*
X002300Y011606D01*
X002300Y011508D02*
X004475Y011508D01*
X004376Y011409D02*
X002300Y011409D01*
X002300Y011311D02*
X004278Y011311D01*
X003941Y011212D02*
X003838Y011109D01*
X003799Y011015D02*
X002300Y011015D01*
X002300Y010917D02*
X003782Y010917D01*
X003786Y010818D02*
X002300Y010818D01*
X002300Y010720D02*
X003826Y010720D01*
X003908Y010621D02*
X002300Y010621D01*
X002300Y010523D02*
X014075Y010523D01*
X014075Y010621D02*
X004392Y010621D01*
X004474Y010720D02*
X014075Y010720D01*
X014075Y010818D02*
X004514Y010818D01*
X004518Y010917D02*
X014075Y010917D01*
X014075Y011015D02*
X004548Y011015D01*
X004646Y011114D02*
X005416Y011114D01*
X005650Y011400D02*
X004650Y011400D01*
X004150Y010900D01*
X005884Y011114D02*
X014075Y011114D01*
X014075Y011212D02*
X005971Y011212D01*
X006011Y011311D02*
X014075Y011311D01*
X014075Y011409D02*
X006018Y011409D01*
X006004Y011508D02*
X014075Y011508D01*
X014075Y011606D02*
X005963Y011606D01*
X005866Y011705D02*
X014075Y011705D01*
X014475Y011705D02*
X030950Y011705D01*
X030950Y011803D02*
X014475Y011803D01*
X014475Y011902D02*
X030950Y011902D01*
X030950Y012000D02*
X014521Y012000D01*
X014600Y012099D02*
X030950Y012099D01*
X030950Y012197D02*
X014641Y012197D01*
X014475Y011606D02*
X030950Y011606D01*
X030950Y011508D02*
X014475Y011508D01*
X014475Y011409D02*
X030950Y011409D01*
X030950Y011311D02*
X014475Y011311D01*
X014475Y011212D02*
X030950Y011212D01*
X030950Y011114D02*
X014475Y011114D01*
X014475Y011015D02*
X030950Y011015D01*
X030950Y010917D02*
X014475Y010917D01*
X014475Y010818D02*
X030950Y010818D01*
X030950Y010720D02*
X014475Y010720D01*
X014475Y010621D02*
X030950Y010621D01*
X030950Y010523D02*
X014475Y010523D01*
X014475Y010424D02*
X030950Y010424D01*
X030950Y010326D02*
X014475Y010326D01*
X014475Y010227D02*
X025103Y010227D01*
X025066Y010212D02*
X024963Y010109D01*
X024907Y009973D01*
X024907Y009827D01*
X024950Y009723D01*
X024950Y007608D01*
X024860Y007518D01*
X024827Y007518D01*
X024691Y007462D01*
X024588Y007359D01*
X024532Y007223D01*
X024532Y007077D01*
X024588Y006941D01*
X024691Y006838D01*
X024827Y006782D01*
X024973Y006782D01*
X025109Y006838D01*
X025212Y006941D01*
X025268Y007077D01*
X025268Y007223D01*
X025228Y007320D01*
X025233Y007325D01*
X025350Y007442D01*
X025350Y009533D01*
X025484Y009588D01*
X025587Y009691D01*
X025643Y009827D01*
X025643Y009973D01*
X025587Y010109D01*
X025484Y010212D01*
X025348Y010268D01*
X025202Y010268D01*
X025066Y010212D01*
X024983Y010129D02*
X016758Y010129D01*
X016723Y010143D02*
X016577Y010143D01*
X016441Y010087D01*
X016338Y009984D01*
X016282Y009848D01*
X016282Y009702D01*
X016338Y009566D01*
X016441Y009463D01*
X016450Y009459D01*
X016450Y007807D01*
X016309Y007386D01*
X016191Y007337D01*
X016088Y007234D01*
X016032Y007098D01*
X016032Y006952D01*
X016088Y006816D01*
X016191Y006713D01*
X016327Y006657D01*
X016473Y006657D01*
X016609Y006713D01*
X016712Y006816D01*
X016768Y006952D01*
X016768Y007098D01*
X016712Y007234D01*
X016688Y007257D01*
X016825Y007667D01*
X016850Y007692D01*
X016850Y007743D01*
X016866Y007790D01*
X016850Y007822D01*
X016850Y009459D01*
X016859Y009463D01*
X016962Y009566D01*
X017018Y009702D01*
X017018Y009848D01*
X016962Y009984D01*
X016859Y010087D01*
X016723Y010143D01*
X016542Y010129D02*
X014475Y010129D01*
X014475Y010030D02*
X016384Y010030D01*
X016316Y009932D02*
X014475Y009932D01*
X014475Y009833D02*
X016282Y009833D01*
X016282Y009735D02*
X014475Y009735D01*
X014475Y009636D02*
X016309Y009636D01*
X016367Y009538D02*
X014475Y009538D01*
X014475Y009439D02*
X016450Y009439D01*
X016450Y009341D02*
X014475Y009341D01*
X014475Y009242D02*
X016450Y009242D01*
X016450Y009144D02*
X014475Y009144D01*
X014475Y009045D02*
X016450Y009045D01*
X016450Y008947D02*
X014475Y008947D01*
X014475Y008848D02*
X016450Y008848D01*
X016450Y008750D02*
X014475Y008750D01*
X014475Y008651D02*
X016450Y008651D01*
X016450Y008553D02*
X014475Y008553D01*
X014475Y008454D02*
X016450Y008454D01*
X016450Y008356D02*
X014475Y008356D01*
X014475Y008257D02*
X016450Y008257D01*
X016450Y008159D02*
X014475Y008159D01*
X014475Y008060D02*
X016450Y008060D01*
X016450Y007962D02*
X014475Y007962D01*
X014475Y007863D02*
X016450Y007863D01*
X016436Y007765D02*
X014475Y007765D01*
X014475Y007666D02*
X016403Y007666D01*
X016370Y007568D02*
X014475Y007568D01*
X014475Y007469D02*
X016337Y007469D01*
X016272Y007371D02*
X014475Y007371D01*
X014475Y007272D02*
X016126Y007272D01*
X016063Y007174D02*
X014475Y007174D01*
X014475Y007075D02*
X016032Y007075D01*
X016032Y006977D02*
X014475Y006977D01*
X014475Y006878D02*
X016062Y006878D01*
X016125Y006780D02*
X014475Y006780D01*
X014475Y006681D02*
X016269Y006681D01*
X016531Y006681D02*
X026398Y006681D01*
X026525Y006525D02*
X031150Y006525D01*
X031150Y006025D01*
X030999Y005893D02*
X027498Y005893D01*
X027517Y005847D02*
X027461Y005983D01*
X027358Y006086D01*
X027222Y006142D01*
X027076Y006142D01*
X026940Y006086D01*
X026837Y005983D01*
X026781Y005847D01*
X026781Y005701D01*
X026837Y005565D01*
X026940Y005462D01*
X027076Y005406D01*
X027079Y005406D01*
X027850Y004635D01*
X027850Y003890D01*
X027800Y003770D01*
X027800Y003630D01*
X027853Y003502D01*
X027952Y003403D01*
X028080Y003350D01*
X028220Y003350D01*
X028348Y003403D01*
X028447Y003502D01*
X028500Y003630D01*
X028500Y003770D01*
X028450Y003890D01*
X028450Y004714D01*
X028460Y004738D01*
X028460Y004862D01*
X028413Y004976D01*
X028326Y005063D01*
X028280Y005082D01*
X027517Y005844D01*
X027517Y005847D01*
X027567Y005795D02*
X035598Y005795D01*
X035657Y005696D02*
X035500Y005696D01*
X035592Y005598D02*
X035657Y005598D01*
X035632Y005499D02*
X035689Y005499D01*
X035713Y005401D02*
X035754Y005401D01*
X035811Y005302D02*
X035903Y005302D01*
X035910Y005204D02*
X036840Y005204D01*
X036840Y005302D02*
X036147Y005302D01*
X036296Y005401D02*
X036840Y005401D01*
X036840Y005499D02*
X036361Y005499D01*
X036393Y005598D02*
X036840Y005598D01*
X036840Y005696D02*
X036393Y005696D01*
X036008Y005105D02*
X036840Y005105D01*
X036840Y005007D02*
X036107Y005007D01*
X036205Y004908D02*
X036840Y004908D01*
X036840Y004810D02*
X036304Y004810D01*
X036402Y004711D02*
X036840Y004711D01*
X036840Y004613D02*
X036501Y004613D01*
X036599Y004514D02*
X036840Y004514D01*
X036840Y004416D02*
X036698Y004416D01*
X036796Y004317D02*
X036840Y004317D01*
X036117Y004120D02*
X028450Y004120D01*
X028450Y004022D02*
X036215Y004022D01*
X036314Y003923D02*
X028450Y003923D01*
X028477Y003825D02*
X036412Y003825D01*
X036403Y003726D02*
X028500Y003726D01*
X028499Y003628D02*
X036400Y003628D01*
X036421Y003529D02*
X028458Y003529D01*
X028375Y003431D02*
X036475Y003431D01*
X036018Y004219D02*
X028450Y004219D01*
X028450Y004317D02*
X035920Y004317D01*
X035821Y004416D02*
X028450Y004416D01*
X028450Y004514D02*
X035723Y004514D01*
X035624Y004613D02*
X028450Y004613D01*
X028450Y004711D02*
X035526Y004711D01*
X035427Y004810D02*
X028460Y004810D01*
X028441Y004908D02*
X035329Y004908D01*
X035230Y005007D02*
X028382Y005007D01*
X028256Y005105D02*
X035049Y005105D01*
X034958Y005204D02*
X028158Y005204D01*
X028059Y005302D02*
X034917Y005302D01*
X034907Y005401D02*
X027961Y005401D01*
X027862Y005499D02*
X034918Y005499D01*
X034958Y005598D02*
X027764Y005598D01*
X027665Y005696D02*
X035050Y005696D01*
X031150Y006525D02*
X031150Y013275D01*
X043275Y013275D01*
X043275Y010650D01*
X045025Y010650D01*
X044657Y010917D02*
X043475Y010917D01*
X043475Y011015D02*
X044742Y011015D01*
X046305Y010523D02*
X048675Y010523D01*
X048689Y010424D02*
X048773Y010424D01*
X048787Y010326D02*
X048872Y010326D01*
X048886Y010227D02*
X048970Y010227D01*
X048984Y010129D02*
X049069Y010129D01*
X049083Y010030D02*
X049167Y010030D01*
X049181Y009932D02*
X049266Y009932D01*
X049280Y009833D02*
X049364Y009833D01*
X049378Y009735D02*
X049463Y009735D01*
X049477Y009636D02*
X049561Y009636D01*
X049575Y009538D02*
X049638Y009538D01*
X049930Y009833D02*
X050184Y009833D01*
X050086Y009932D02*
X049831Y009932D01*
X049733Y010030D02*
X049987Y010030D01*
X049889Y010129D02*
X049634Y010129D01*
X049536Y010227D02*
X049790Y010227D01*
X049692Y010326D02*
X049437Y010326D01*
X049339Y010424D02*
X049593Y010424D01*
X049495Y010523D02*
X049240Y010523D01*
X049142Y010621D02*
X049396Y010621D01*
X049317Y010700D02*
X051317Y008700D01*
X052334Y008700D01*
X052338Y008691D01*
X052441Y008588D01*
X052577Y008532D01*
X052723Y008532D01*
X052859Y008588D01*
X052962Y008691D01*
X053015Y008820D01*
X053140Y008820D01*
X053268Y008873D01*
X053365Y008970D01*
X054437Y008970D01*
X053627Y008160D01*
X053383Y008160D01*
X053400Y008200D01*
X053400Y008340D01*
X053347Y008468D01*
X053248Y008567D01*
X053120Y008620D01*
X052980Y008620D01*
X052852Y008567D01*
X052753Y008468D01*
X052704Y008350D01*
X050783Y008350D01*
X050350Y008783D01*
X050350Y009413D01*
X050233Y009530D01*
X049104Y010659D01*
X049202Y010700D01*
X049317Y010700D01*
X049400Y010900D02*
X049150Y010900D01*
X049025Y011025D01*
X048790Y011311D02*
X048452Y011311D01*
X048551Y011212D02*
X048704Y011212D01*
X048663Y011114D02*
X048649Y011114D01*
X048340Y011140D02*
X047580Y011140D01*
X047717Y010818D02*
X048379Y010818D01*
X048281Y010917D02*
X047851Y010917D01*
X047443Y010818D02*
X046601Y010818D01*
X046699Y010917D02*
X047309Y010917D01*
X047253Y011015D02*
X046798Y011015D01*
X046896Y011114D02*
X047230Y011114D01*
X047231Y011212D02*
X046995Y011212D01*
X047093Y011311D02*
X047272Y011311D01*
X047192Y011409D02*
X047354Y011409D01*
X047290Y011508D02*
X049170Y011508D01*
X049170Y011409D02*
X047806Y011409D01*
X047389Y011606D02*
X049198Y011606D01*
X049260Y011705D02*
X047487Y011705D01*
X047586Y011803D02*
X049409Y011803D01*
X049631Y011803D02*
X057780Y011803D01*
X057682Y011705D02*
X049780Y011705D01*
X049520Y011470D02*
X057730Y011470D01*
X059260Y013000D01*
X060720Y013000D01*
X066590Y018870D01*
X074260Y018870D01*
X074980Y018150D01*
X075150Y018150D01*
X075700Y018107D02*
X076478Y018107D01*
X076478Y018100D02*
X075979Y018100D01*
X075991Y018021D01*
X076018Y017939D01*
X076058Y017862D01*
X076108Y017792D01*
X076170Y017730D01*
X076240Y017680D01*
X076317Y017640D01*
X076399Y017614D01*
X076478Y017601D01*
X076478Y018100D01*
X076578Y018100D01*
X076578Y018200D01*
X077077Y018200D01*
X077064Y018279D01*
X077038Y018361D01*
X076998Y018438D01*
X076947Y018508D01*
X076886Y018570D01*
X076816Y018620D01*
X076739Y018660D01*
X076657Y018686D01*
X076578Y018699D01*
X076578Y018200D01*
X076478Y018200D01*
X076478Y018699D01*
X076399Y018686D01*
X076317Y018660D01*
X076240Y018620D01*
X076170Y018570D01*
X076108Y018508D01*
X076058Y018438D01*
X076018Y018361D01*
X075991Y018279D01*
X075979Y018200D01*
X076478Y018200D01*
X076478Y018100D01*
X076478Y018009D02*
X076578Y018009D01*
X076578Y018100D02*
X076578Y017601D01*
X076657Y017614D01*
X076739Y017640D01*
X076816Y017680D01*
X076886Y017730D01*
X076947Y017792D01*
X076998Y017862D01*
X077038Y017939D01*
X077064Y018021D01*
X077077Y018100D01*
X076578Y018100D01*
X076578Y018107D02*
X078600Y018107D01*
X078600Y018053D02*
X074767Y014220D01*
X069205Y014220D01*
X069108Y014317D01*
X068980Y014370D01*
X068840Y014370D01*
X068712Y014317D01*
X068613Y014218D01*
X068560Y014090D01*
X068560Y013950D01*
X068613Y013822D01*
X068712Y013723D01*
X068840Y013670D01*
X068980Y013670D01*
X069108Y013723D01*
X069205Y013820D01*
X074767Y013820D01*
X074933Y013820D01*
X078713Y017600D01*
X079612Y017600D01*
X079700Y017688D01*
X079700Y018612D01*
X079612Y018700D01*
X078688Y018700D01*
X078600Y018612D01*
X078600Y018053D01*
X078556Y018009D02*
X077060Y018009D01*
X077023Y017910D02*
X078457Y017910D01*
X078359Y017812D02*
X076962Y017812D01*
X076862Y017713D02*
X078260Y017713D01*
X078162Y017615D02*
X076660Y017615D01*
X076578Y017615D02*
X076478Y017615D01*
X076396Y017615D02*
X075627Y017615D01*
X075700Y017713D02*
X076194Y017713D01*
X076094Y017812D02*
X075700Y017812D01*
X075700Y017910D02*
X076033Y017910D01*
X075996Y018009D02*
X075700Y018009D01*
X075700Y018206D02*
X075980Y018206D01*
X076000Y018304D02*
X075700Y018304D01*
X075700Y018403D02*
X076039Y018403D01*
X076103Y018501D02*
X075700Y018501D01*
X075700Y018600D02*
X076211Y018600D01*
X076478Y018600D02*
X076578Y018600D01*
X076578Y018698D02*
X076478Y018698D01*
X076472Y018698D02*
X075614Y018698D01*
X076478Y018501D02*
X076578Y018501D01*
X076578Y018403D02*
X076478Y018403D01*
X076478Y018304D02*
X076578Y018304D01*
X076578Y018206D02*
X076478Y018206D01*
X076478Y017910D02*
X076578Y017910D01*
X076578Y017812D02*
X076478Y017812D01*
X076478Y017713D02*
X076578Y017713D01*
X077076Y018206D02*
X078600Y018206D01*
X078600Y018304D02*
X077056Y018304D01*
X077017Y018403D02*
X078600Y018403D01*
X078600Y018501D02*
X076953Y018501D01*
X076845Y018600D02*
X078600Y018600D01*
X078686Y018698D02*
X076584Y018698D01*
X074616Y018797D02*
X084000Y018797D01*
X084000Y018895D02*
X074518Y018895D01*
X074419Y018994D02*
X084000Y018994D01*
X084000Y019092D02*
X057375Y019092D01*
X057473Y019191D02*
X084000Y019191D01*
X084000Y019289D02*
X057572Y019289D01*
X057670Y019388D02*
X084000Y019388D01*
X084000Y019486D02*
X057769Y019486D01*
X057850Y019585D02*
X084000Y019585D01*
X084000Y019683D02*
X057850Y019683D01*
X057850Y019782D02*
X084000Y019782D01*
X084000Y019880D02*
X057850Y019880D01*
X057850Y019979D02*
X084000Y019979D01*
X084000Y020077D02*
X057850Y020077D01*
X057850Y020176D02*
X083998Y020176D01*
X083992Y020274D02*
X057850Y020274D01*
X057850Y020373D02*
X083976Y020373D01*
X083950Y020471D02*
X057850Y020471D01*
X057850Y020570D02*
X083923Y020570D01*
X083896Y020668D02*
X057850Y020668D01*
X057850Y020767D02*
X083840Y020767D01*
X083783Y020865D02*
X057850Y020865D01*
X057850Y020964D02*
X083726Y020964D01*
X083631Y021062D02*
X057850Y021062D01*
X057850Y021161D02*
X083532Y021161D01*
X083406Y021259D02*
X057850Y021259D01*
X057850Y021358D02*
X083235Y021358D01*
X082947Y021456D02*
X057850Y021456D01*
X057650Y021456D02*
X011150Y021456D01*
X011150Y021500D02*
X057650Y021500D01*
X057650Y019650D01*
X056650Y018650D01*
X056650Y017650D01*
X057150Y017150D01*
X057150Y014150D01*
X055150Y014150D01*
X055150Y019150D01*
X051150Y019150D01*
X050650Y018650D01*
X050650Y017650D01*
X051150Y017150D01*
X051150Y014150D01*
X049150Y014150D01*
X049150Y019150D01*
X045150Y019150D01*
X044650Y018650D01*
X044650Y017650D01*
X045150Y017150D01*
X045150Y014150D01*
X043150Y014150D01*
X043150Y019150D01*
X040650Y019150D01*
X040650Y018150D01*
X040150Y017650D01*
X039150Y017650D01*
X038650Y018150D01*
X038650Y019150D01*
X011650Y019150D01*
X011150Y019650D01*
X011150Y021500D01*
X011150Y021358D02*
X057650Y021358D01*
X057650Y021259D02*
X011150Y021259D01*
X011150Y021161D02*
X057650Y021161D01*
X057650Y021062D02*
X011150Y021062D01*
X011150Y020964D02*
X057650Y020964D01*
X057650Y020865D02*
X011150Y020865D01*
X011150Y020767D02*
X057650Y020767D01*
X057650Y020668D02*
X011150Y020668D01*
X011150Y020570D02*
X057650Y020570D01*
X057650Y020471D02*
X011150Y020471D01*
X011150Y020373D02*
X057650Y020373D01*
X057650Y020274D02*
X011150Y020274D01*
X011150Y020176D02*
X057650Y020176D01*
X057650Y020077D02*
X011150Y020077D01*
X011150Y019979D02*
X057650Y019979D01*
X057650Y019880D02*
X011150Y019880D01*
X011150Y019782D02*
X057650Y019782D01*
X057650Y019683D02*
X011150Y019683D01*
X011215Y019585D02*
X057585Y019585D01*
X057486Y019486D02*
X011314Y019486D01*
X011412Y019388D02*
X057388Y019388D01*
X057289Y019289D02*
X011511Y019289D01*
X011609Y019191D02*
X057191Y019191D01*
X057092Y019092D02*
X055150Y019092D01*
X055150Y018994D02*
X056994Y018994D01*
X056895Y018895D02*
X055150Y018895D01*
X055150Y018797D02*
X056797Y018797D01*
X056698Y018698D02*
X055150Y018698D01*
X055150Y018600D02*
X056650Y018600D01*
X056650Y018501D02*
X055150Y018501D01*
X055150Y018403D02*
X056650Y018403D01*
X056650Y018304D02*
X055150Y018304D01*
X055150Y018206D02*
X056650Y018206D01*
X056650Y018107D02*
X055150Y018107D01*
X055150Y018009D02*
X056650Y018009D01*
X056650Y017910D02*
X055150Y017910D01*
X055150Y017812D02*
X056650Y017812D01*
X056650Y017713D02*
X055150Y017713D01*
X055150Y017615D02*
X056685Y017615D01*
X056784Y017516D02*
X055150Y017516D01*
X055150Y017418D02*
X056882Y017418D01*
X056981Y017319D02*
X055150Y017319D01*
X055150Y017221D02*
X057079Y017221D01*
X057150Y017122D02*
X055150Y017122D01*
X055150Y017024D02*
X057150Y017024D01*
X057150Y016925D02*
X055150Y016925D01*
X055150Y016827D02*
X057150Y016827D01*
X057150Y016728D02*
X055150Y016728D01*
X055150Y016630D02*
X057150Y016630D01*
X057150Y016531D02*
X055150Y016531D01*
X055150Y016433D02*
X057150Y016433D01*
X057150Y016334D02*
X055150Y016334D01*
X055150Y016236D02*
X057150Y016236D01*
X057150Y016137D02*
X055150Y016137D01*
X055150Y016039D02*
X057150Y016039D01*
X057150Y015940D02*
X055150Y015940D01*
X055150Y015842D02*
X057150Y015842D01*
X057150Y015743D02*
X055150Y015743D01*
X055150Y015645D02*
X057150Y015645D01*
X057150Y015546D02*
X055150Y015546D01*
X055150Y015448D02*
X057150Y015448D01*
X057150Y015349D02*
X055150Y015349D01*
X055150Y015251D02*
X057150Y015251D01*
X057150Y015152D02*
X055150Y015152D01*
X055150Y015054D02*
X057150Y015054D01*
X057150Y014955D02*
X055150Y014955D01*
X055150Y014857D02*
X057150Y014857D01*
X057150Y014758D02*
X055150Y014758D01*
X055150Y014660D02*
X057150Y014660D01*
X057150Y014561D02*
X055150Y014561D01*
X055150Y014463D02*
X057150Y014463D01*
X057150Y014364D02*
X055150Y014364D01*
X055150Y014266D02*
X057150Y014266D01*
X057150Y014167D02*
X055150Y014167D01*
X054950Y014167D02*
X054850Y014167D01*
X054850Y014069D02*
X054950Y014069D01*
X055047Y013970D02*
X054850Y013970D01*
X054850Y013872D02*
X057450Y013872D01*
X057450Y013970D02*
X057253Y013970D01*
X057350Y014069D02*
X057450Y014069D01*
X057450Y014167D02*
X057350Y014167D01*
X057350Y014266D02*
X057450Y014266D01*
X057450Y014364D02*
X057350Y014364D01*
X057350Y014463D02*
X057450Y014463D01*
X057450Y014561D02*
X057350Y014561D01*
X057350Y014660D02*
X057450Y014660D01*
X057450Y014758D02*
X057350Y014758D01*
X057350Y014857D02*
X057450Y014857D01*
X057450Y014955D02*
X057350Y014955D01*
X057350Y015054D02*
X057450Y015054D01*
X057450Y015152D02*
X057350Y015152D01*
X057350Y015251D02*
X057450Y015251D01*
X057450Y015349D02*
X057350Y015349D01*
X057350Y015448D02*
X057450Y015448D01*
X057450Y015546D02*
X057350Y015546D01*
X057350Y015645D02*
X057450Y015645D01*
X057450Y015743D02*
X057350Y015743D01*
X057350Y015842D02*
X057450Y015842D01*
X057450Y015940D02*
X057350Y015940D01*
X057350Y016039D02*
X057450Y016039D01*
X057450Y016137D02*
X057350Y016137D01*
X057350Y016236D02*
X057453Y016236D01*
X057551Y016334D02*
X057350Y016334D01*
X057350Y016433D02*
X057650Y016433D01*
X057748Y016531D02*
X057350Y016531D01*
X057350Y016630D02*
X057847Y016630D01*
X057945Y016728D02*
X057350Y016728D01*
X057350Y016827D02*
X058044Y016827D01*
X058142Y016925D02*
X057350Y016925D01*
X057350Y017024D02*
X058241Y017024D01*
X058339Y017122D02*
X057350Y017122D01*
X057350Y017221D02*
X058438Y017221D01*
X058450Y017319D02*
X057264Y017319D01*
X057165Y017418D02*
X058450Y017418D01*
X058450Y017516D02*
X057067Y017516D01*
X056968Y017615D02*
X057173Y017615D01*
X057188Y017600D02*
X057100Y017688D01*
X057100Y018612D01*
X057188Y018700D01*
X058112Y018700D01*
X058200Y018612D01*
X058200Y017688D01*
X058112Y017600D01*
X057188Y017600D01*
X057100Y017713D02*
X056870Y017713D01*
X056850Y017812D02*
X057100Y017812D01*
X057100Y017910D02*
X056850Y017910D01*
X056850Y018009D02*
X057100Y018009D01*
X057100Y018107D02*
X056850Y018107D01*
X056850Y018206D02*
X057100Y018206D01*
X057100Y018304D02*
X056850Y018304D01*
X056850Y018403D02*
X057100Y018403D01*
X057100Y018501D02*
X056850Y018501D01*
X056882Y018600D02*
X057100Y018600D01*
X057186Y018698D02*
X056981Y018698D01*
X057079Y018797D02*
X059014Y018797D01*
X058915Y018698D02*
X058114Y018698D01*
X058200Y018600D02*
X058817Y018600D01*
X058718Y018501D02*
X058200Y018501D01*
X058200Y018403D02*
X058620Y018403D01*
X058521Y018304D02*
X058200Y018304D01*
X058200Y018206D02*
X058450Y018206D01*
X058450Y018107D02*
X058200Y018107D01*
X058200Y018009D02*
X058450Y018009D01*
X058450Y017910D02*
X058200Y017910D01*
X058200Y017812D02*
X058450Y017812D01*
X058450Y017713D02*
X058200Y017713D01*
X058127Y017615D02*
X058450Y017615D01*
X058650Y017615D02*
X059487Y017615D01*
X059490Y017614D02*
X059407Y017640D01*
X059330Y017680D01*
X059260Y017730D01*
X059199Y017792D01*
X059148Y017862D01*
X059109Y017939D01*
X059082Y018021D01*
X059070Y018100D01*
X059568Y018100D01*
X059568Y018200D01*
X059070Y018200D01*
X059082Y018279D01*
X059109Y018361D01*
X059148Y018438D01*
X059199Y018508D01*
X059260Y018570D01*
X059330Y018620D01*
X059388Y018650D01*
X059150Y018650D01*
X058650Y018150D01*
X058650Y017150D01*
X057650Y016150D01*
X057650Y013150D01*
X059127Y013150D01*
X059177Y013200D01*
X060637Y013200D01*
X060650Y013213D01*
X060650Y018150D01*
X060150Y018650D01*
X059849Y018650D01*
X059907Y018620D01*
X059977Y018570D01*
X060038Y018508D01*
X060089Y018438D01*
X060128Y018361D01*
X060155Y018279D01*
X060167Y018200D01*
X059669Y018200D01*
X059669Y018100D01*
X060167Y018100D01*
X060155Y018021D01*
X060128Y017939D01*
X060089Y017862D01*
X060038Y017792D01*
X059977Y017730D01*
X059907Y017680D01*
X059830Y017640D01*
X059747Y017614D01*
X059669Y017601D01*
X059669Y018100D01*
X059569Y018100D01*
X059569Y017601D01*
X059490Y017614D01*
X059569Y017615D02*
X059669Y017615D01*
X059750Y017615D02*
X060650Y017615D01*
X060650Y017713D02*
X059953Y017713D01*
X060052Y017812D02*
X060650Y017812D01*
X060650Y017910D02*
X060114Y017910D01*
X060151Y018009D02*
X060650Y018009D01*
X060650Y018107D02*
X059669Y018107D01*
X059669Y018009D02*
X059569Y018009D01*
X059568Y018107D02*
X058650Y018107D01*
X058650Y018009D02*
X059086Y018009D01*
X059123Y017910D02*
X058650Y017910D01*
X058650Y017812D02*
X059185Y017812D01*
X059284Y017713D02*
X058650Y017713D01*
X058650Y017516D02*
X060650Y017516D01*
X060650Y017418D02*
X058650Y017418D01*
X058650Y017319D02*
X060650Y017319D01*
X060650Y017221D02*
X058650Y017221D01*
X058622Y017122D02*
X060650Y017122D01*
X060650Y017024D02*
X058524Y017024D01*
X058425Y016925D02*
X060650Y016925D01*
X060650Y016827D02*
X058327Y016827D01*
X058228Y016728D02*
X060650Y016728D01*
X060650Y016630D02*
X058130Y016630D01*
X058031Y016531D02*
X060650Y016531D01*
X060650Y016433D02*
X057933Y016433D01*
X057834Y016334D02*
X060650Y016334D01*
X060650Y016236D02*
X057736Y016236D01*
X057650Y016137D02*
X060650Y016137D01*
X060650Y016039D02*
X057650Y016039D01*
X057650Y015940D02*
X060650Y015940D01*
X060650Y015842D02*
X057650Y015842D01*
X057650Y015743D02*
X060650Y015743D01*
X060650Y015645D02*
X057650Y015645D01*
X057650Y015546D02*
X060650Y015546D01*
X060650Y015448D02*
X057650Y015448D01*
X057650Y015349D02*
X060650Y015349D01*
X060650Y015251D02*
X057650Y015251D01*
X057650Y015152D02*
X060650Y015152D01*
X060650Y015054D02*
X057650Y015054D01*
X057650Y014955D02*
X060650Y014955D01*
X060650Y014857D02*
X057650Y014857D01*
X057650Y014758D02*
X060650Y014758D01*
X060650Y014660D02*
X057650Y014660D01*
X057650Y014561D02*
X060650Y014561D01*
X060650Y014463D02*
X057650Y014463D01*
X057650Y014364D02*
X060650Y014364D01*
X060650Y014266D02*
X057650Y014266D01*
X057650Y014167D02*
X060650Y014167D01*
X060650Y014069D02*
X057650Y014069D01*
X057650Y013970D02*
X060650Y013970D01*
X060650Y013872D02*
X057650Y013872D01*
X057650Y013773D02*
X060650Y013773D01*
X060650Y013675D02*
X057650Y013675D01*
X057650Y013576D02*
X060650Y013576D01*
X060650Y013478D02*
X057650Y013478D01*
X057650Y013379D02*
X060650Y013379D01*
X060650Y013281D02*
X057650Y013281D01*
X057650Y013182D02*
X059159Y013182D01*
X058864Y012887D02*
X043475Y012887D01*
X043475Y012985D02*
X045532Y012985D01*
X045567Y012950D02*
X048733Y012950D01*
X048850Y013067D01*
X048850Y018233D01*
X048350Y018733D01*
X048233Y018850D01*
X047067Y018850D01*
X046567Y018350D01*
X046450Y018233D01*
X046450Y017233D01*
X045567Y016350D01*
X045450Y016233D01*
X045450Y013233D01*
X045450Y013067D01*
X045567Y012950D01*
X045450Y013084D02*
X043475Y013084D01*
X043475Y013182D02*
X045450Y013182D01*
X045450Y013281D02*
X043475Y013281D01*
X043454Y013379D02*
X045450Y013379D01*
X045450Y013478D02*
X031465Y013478D01*
X031370Y013576D02*
X045450Y013576D01*
X045450Y013675D02*
X036022Y013675D01*
X035988Y013640D02*
X036092Y013744D01*
X036148Y013879D01*
X036148Y014026D01*
X036092Y014161D01*
X036088Y014165D01*
X036085Y014402D01*
X036085Y014462D01*
X036084Y014463D01*
X036084Y014465D01*
X036061Y014520D01*
X036038Y014576D01*
X036037Y014577D01*
X036036Y014578D01*
X035993Y014620D01*
X035951Y014663D01*
X035949Y014663D01*
X035948Y014665D01*
X035892Y014687D01*
X035837Y014710D01*
X035835Y014710D01*
X035833Y014711D01*
X035773Y014710D01*
X034196Y014710D01*
X034194Y014712D01*
X034059Y014768D01*
X033913Y014768D01*
X033777Y014712D01*
X033775Y014710D01*
X032361Y014710D01*
X032359Y014712D01*
X032223Y014768D01*
X032077Y014768D01*
X031941Y014712D01*
X031939Y014710D01*
X031213Y014710D01*
X031099Y014663D01*
X031080Y014643D01*
X031077Y014643D01*
X030941Y014587D01*
X030838Y014484D01*
X030782Y014348D01*
X030782Y014202D01*
X030838Y014066D01*
X030941Y013963D01*
X031077Y013907D01*
X031223Y013907D01*
X031359Y013963D01*
X031462Y014066D01*
X031472Y014090D01*
X031939Y014090D01*
X031941Y014088D01*
X032077Y014032D01*
X032223Y014032D01*
X032359Y014088D01*
X032361Y014090D01*
X033775Y014090D01*
X033777Y014088D01*
X033913Y014032D01*
X034059Y014032D01*
X034194Y014088D01*
X034196Y014090D01*
X035438Y014090D01*
X035412Y014026D01*
X035412Y013879D01*
X035468Y013744D01*
X035571Y013640D01*
X035707Y013584D01*
X035853Y013584D01*
X035988Y013640D01*
X036104Y013773D02*
X045450Y013773D01*
X045450Y013872D02*
X036145Y013872D01*
X036148Y013970D02*
X043047Y013970D01*
X042950Y014069D02*
X036130Y014069D01*
X036087Y014167D02*
X042950Y014167D01*
X042950Y014266D02*
X036086Y014266D01*
X036085Y014364D02*
X042950Y014364D01*
X042950Y014463D02*
X036085Y014463D01*
X036044Y014561D02*
X042950Y014561D01*
X042950Y014660D02*
X035954Y014660D01*
X035429Y014069D02*
X034148Y014069D01*
X033824Y014069D02*
X032312Y014069D01*
X031988Y014069D02*
X031463Y014069D01*
X031366Y013970D02*
X035412Y013970D01*
X035415Y013872D02*
X027610Y013872D01*
X027587Y013816D02*
X027643Y013952D01*
X027643Y014098D01*
X027587Y014234D01*
X027585Y014236D01*
X027585Y014462D01*
X027538Y014576D01*
X027451Y014663D01*
X027337Y014710D01*
X025986Y014710D01*
X025984Y014712D01*
X025848Y014768D01*
X025702Y014768D01*
X025566Y014712D01*
X025564Y014710D01*
X023986Y014710D01*
X023984Y014712D01*
X023848Y014768D01*
X023702Y014768D01*
X023566Y014712D01*
X023463Y014609D01*
X023453Y014585D01*
X022986Y014585D01*
X022984Y014587D01*
X022848Y014643D01*
X022702Y014643D01*
X022566Y014587D01*
X022463Y014484D01*
X022407Y014348D01*
X022407Y014202D01*
X022463Y014066D01*
X022566Y013963D01*
X022702Y013907D01*
X022848Y013907D01*
X022984Y013963D01*
X022986Y013965D01*
X023712Y013965D01*
X023826Y014012D01*
X023845Y014032D01*
X023848Y014032D01*
X023984Y014088D01*
X023986Y014090D01*
X025564Y014090D01*
X025566Y014088D01*
X025702Y014032D01*
X025848Y014032D01*
X025984Y014088D01*
X025986Y014090D01*
X026907Y014090D01*
X026907Y013952D01*
X026963Y013816D01*
X027066Y013713D01*
X027202Y013657D01*
X027348Y013657D01*
X027484Y013713D01*
X027587Y013816D01*
X027544Y013773D02*
X035456Y013773D01*
X035537Y013675D02*
X027391Y013675D01*
X027159Y013675D02*
X019070Y013675D01*
X019087Y013691D02*
X019143Y013827D01*
X019143Y013973D01*
X019087Y014109D01*
X019085Y014111D01*
X019085Y014462D01*
X019038Y014576D01*
X018951Y014663D01*
X018837Y014710D01*
X017361Y014710D01*
X017359Y014712D01*
X017223Y014768D01*
X017077Y014768D01*
X016941Y014712D01*
X016939Y014710D01*
X015486Y014710D01*
X015484Y014712D01*
X015348Y014768D01*
X015202Y014768D01*
X015066Y014712D01*
X015064Y014710D01*
X014236Y014710D01*
X014234Y014712D01*
X014098Y014768D01*
X013952Y014768D01*
X013816Y014712D01*
X013713Y014609D01*
X013657Y014473D01*
X013657Y014327D01*
X013713Y014191D01*
X013816Y014088D01*
X013952Y014032D01*
X014098Y014032D01*
X014234Y014088D01*
X014236Y014090D01*
X015064Y014090D01*
X015066Y014088D01*
X015202Y014032D01*
X015348Y014032D01*
X015484Y014088D01*
X015486Y014090D01*
X016939Y014090D01*
X016941Y014088D01*
X017077Y014032D01*
X017223Y014032D01*
X017359Y014088D01*
X017361Y014090D01*
X018455Y014090D01*
X018407Y013973D01*
X018407Y013827D01*
X018463Y013691D01*
X018566Y013588D01*
X018702Y013532D01*
X018848Y013532D01*
X018984Y013588D01*
X019087Y013691D01*
X019121Y013773D02*
X027006Y013773D01*
X026940Y013872D02*
X019143Y013872D01*
X019143Y013970D02*
X022559Y013970D01*
X022462Y014069D02*
X019104Y014069D01*
X019085Y014167D02*
X022421Y014167D01*
X022407Y014266D02*
X019085Y014266D01*
X019085Y014364D02*
X022413Y014364D01*
X022454Y014463D02*
X019085Y014463D01*
X019044Y014561D02*
X022540Y014561D01*
X023514Y014660D02*
X018954Y014660D01*
X018446Y014069D02*
X017312Y014069D01*
X016988Y014069D02*
X015437Y014069D01*
X015113Y014069D02*
X014187Y014069D01*
X013863Y014069D02*
X010640Y014069D01*
X010643Y014077D02*
X010643Y014223D01*
X010587Y014359D01*
X010585Y014361D01*
X010585Y014587D01*
X010538Y014701D01*
X010451Y014788D01*
X010337Y014835D01*
X008986Y014835D01*
X008984Y014837D01*
X008848Y014893D01*
X008702Y014893D01*
X008566Y014837D01*
X008564Y014835D01*
X006804Y014835D01*
X006802Y014837D01*
X006667Y014893D01*
X006520Y014893D01*
X006385Y014837D01*
X006383Y014835D01*
X005361Y014835D01*
X005359Y014837D01*
X005223Y014893D01*
X005077Y014893D01*
X004941Y014837D01*
X004838Y014734D01*
X004782Y014598D01*
X004782Y014452D01*
X004838Y014316D01*
X004941Y014213D01*
X005077Y014157D01*
X005223Y014157D01*
X005359Y014213D01*
X005361Y014215D01*
X006383Y014215D01*
X006385Y014213D01*
X006520Y014157D01*
X006667Y014157D01*
X006802Y014213D01*
X006804Y014215D01*
X008564Y014215D01*
X008566Y014213D01*
X008702Y014157D01*
X008848Y014157D01*
X008984Y014213D01*
X008986Y014215D01*
X009907Y014215D01*
X009907Y014077D01*
X009963Y013941D01*
X010066Y013838D01*
X010202Y013782D01*
X010348Y013782D01*
X010484Y013838D01*
X010587Y013941D01*
X010643Y014077D01*
X010643Y014167D02*
X013737Y014167D01*
X013682Y014266D02*
X010626Y014266D01*
X010585Y014364D02*
X013657Y014364D01*
X013657Y014463D02*
X010585Y014463D01*
X010585Y014561D02*
X013693Y014561D01*
X013764Y014660D02*
X010555Y014660D01*
X010480Y014758D02*
X013927Y014758D01*
X014123Y014758D02*
X015177Y014758D01*
X015373Y014758D02*
X017052Y014758D01*
X017248Y014758D02*
X023677Y014758D01*
X023873Y014758D02*
X025677Y014758D01*
X025873Y014758D02*
X032052Y014758D01*
X032248Y014758D02*
X033888Y014758D01*
X034083Y014758D02*
X042950Y014758D01*
X042950Y014857D02*
X008937Y014857D01*
X008613Y014857D02*
X006755Y014857D01*
X006432Y014857D02*
X005312Y014857D01*
X004988Y014857D02*
X002300Y014857D01*
X002300Y014955D02*
X042950Y014955D01*
X042950Y015054D02*
X002300Y015054D01*
X002300Y015152D02*
X042950Y015152D01*
X042950Y015251D02*
X002300Y015251D01*
X002300Y015349D02*
X042950Y015349D01*
X042950Y015448D02*
X002300Y015448D01*
X002300Y015546D02*
X042950Y015546D01*
X042950Y015645D02*
X002300Y015645D01*
X002300Y015743D02*
X042950Y015743D01*
X042950Y015842D02*
X002300Y015842D01*
X002300Y015940D02*
X042950Y015940D01*
X042950Y016039D02*
X002300Y016039D01*
X002300Y016137D02*
X042950Y016137D01*
X042950Y016236D02*
X002300Y016236D01*
X002300Y016334D02*
X042950Y016334D01*
X042950Y016433D02*
X002300Y016433D01*
X002300Y016531D02*
X042950Y016531D01*
X042950Y016630D02*
X002300Y016630D01*
X002300Y016728D02*
X042950Y016728D01*
X042950Y016827D02*
X002300Y016827D01*
X002300Y016925D02*
X042950Y016925D01*
X042950Y017024D02*
X002300Y017024D01*
X002300Y017122D02*
X042950Y017122D01*
X042950Y017221D02*
X002300Y017221D01*
X002300Y017319D02*
X042950Y017319D01*
X042950Y017418D02*
X002300Y017418D01*
X002300Y017516D02*
X039001Y017516D01*
X038903Y017615D02*
X035428Y017615D01*
X035393Y017600D02*
X035595Y017684D01*
X035750Y017838D01*
X035834Y018041D01*
X035834Y018259D01*
X035750Y018462D01*
X035595Y018616D01*
X035393Y018700D01*
X035174Y018700D01*
X034972Y018616D01*
X034818Y018462D01*
X034734Y018259D01*
X034734Y018041D01*
X034818Y017838D01*
X034972Y017684D01*
X035174Y017600D01*
X035393Y017600D01*
X035139Y017615D02*
X034050Y017615D01*
X034015Y017600D02*
X034217Y017684D01*
X034372Y017838D01*
X034456Y018041D01*
X034456Y018259D01*
X034372Y018462D01*
X034217Y018616D01*
X034015Y018700D01*
X033797Y018700D01*
X033594Y018616D01*
X033440Y018462D01*
X033356Y018259D01*
X033356Y018041D01*
X033440Y017838D01*
X033594Y017684D01*
X033797Y017600D01*
X034015Y017600D01*
X033761Y017615D02*
X032672Y017615D01*
X032637Y017600D02*
X032840Y017684D01*
X032994Y017838D01*
X033078Y018041D01*
X033078Y018259D01*
X032994Y018462D01*
X032840Y018616D01*
X032637Y018700D01*
X032419Y018700D01*
X032216Y018616D01*
X032062Y018462D01*
X031978Y018259D01*
X031978Y018041D01*
X032062Y017838D01*
X032216Y017684D01*
X032419Y017600D01*
X032637Y017600D01*
X032383Y017615D02*
X031627Y017615D01*
X031612Y017600D02*
X031700Y017688D01*
X031700Y018612D01*
X031612Y018700D01*
X030688Y018700D01*
X030600Y018612D01*
X030600Y017688D01*
X030688Y017600D01*
X031612Y017600D01*
X031700Y017713D02*
X032187Y017713D01*
X032089Y017812D02*
X031700Y017812D01*
X031700Y017910D02*
X032032Y017910D01*
X031991Y018009D02*
X031700Y018009D01*
X031700Y018107D02*
X031978Y018107D01*
X031978Y018206D02*
X031700Y018206D01*
X031700Y018304D02*
X031996Y018304D01*
X032037Y018403D02*
X031700Y018403D01*
X031700Y018501D02*
X032101Y018501D01*
X032200Y018600D02*
X031700Y018600D01*
X031614Y018698D02*
X032414Y018698D01*
X032642Y018698D02*
X033792Y018698D01*
X034020Y018698D02*
X035170Y018698D01*
X035398Y018698D02*
X038450Y018698D01*
X038450Y018600D02*
X035612Y018600D01*
X035711Y018501D02*
X038450Y018501D01*
X038450Y018403D02*
X035775Y018403D01*
X035815Y018304D02*
X038450Y018304D01*
X038450Y018206D02*
X035834Y018206D01*
X035834Y018107D02*
X038450Y018107D01*
X038509Y018009D02*
X035821Y018009D01*
X035780Y017910D02*
X038607Y017910D01*
X038706Y017812D02*
X035723Y017812D01*
X035625Y017713D02*
X038804Y017713D01*
X038988Y017812D02*
X040312Y017812D01*
X040410Y017910D02*
X038890Y017910D01*
X038791Y018009D02*
X040509Y018009D01*
X040607Y018107D02*
X038693Y018107D01*
X038650Y018206D02*
X040650Y018206D01*
X040650Y018304D02*
X038650Y018304D01*
X038650Y018403D02*
X040650Y018403D01*
X040650Y018501D02*
X038650Y018501D01*
X038650Y018600D02*
X040650Y018600D01*
X040650Y018698D02*
X038650Y018698D01*
X038650Y018797D02*
X040650Y018797D01*
X040650Y018895D02*
X038650Y018895D01*
X038650Y018994D02*
X040650Y018994D01*
X040650Y019092D02*
X038650Y019092D01*
X038450Y018895D02*
X002300Y018895D01*
X002300Y018797D02*
X038450Y018797D01*
X040850Y018797D02*
X042950Y018797D01*
X042950Y018895D02*
X040850Y018895D01*
X040850Y018698D02*
X041563Y018698D01*
X041569Y018698D02*
X041669Y018698D01*
X041669Y018699D02*
X041747Y018686D01*
X041830Y018660D01*
X041907Y018620D01*
X041977Y018570D01*
X042038Y018508D01*
X042089Y018438D01*
X042128Y018361D01*
X042155Y018279D01*
X042167Y018200D01*
X041669Y018200D01*
X041669Y018100D01*
X042167Y018100D01*
X042155Y018021D01*
X042128Y017939D01*
X042089Y017862D01*
X042038Y017792D01*
X041977Y017730D01*
X041907Y017680D01*
X041830Y017640D01*
X041747Y017614D01*
X041669Y017601D01*
X041669Y018100D01*
X041569Y018100D01*
X041569Y017601D01*
X041490Y017614D01*
X041407Y017640D01*
X041330Y017680D01*
X041260Y017730D01*
X041199Y017792D01*
X041148Y017862D01*
X041109Y017939D01*
X041082Y018021D01*
X041070Y018100D01*
X041568Y018100D01*
X041568Y018200D01*
X041070Y018200D01*
X041082Y018279D01*
X041109Y018361D01*
X041148Y018438D01*
X041199Y018508D01*
X041260Y018570D01*
X041330Y018620D01*
X041407Y018660D01*
X041490Y018686D01*
X041569Y018699D01*
X041569Y018200D01*
X041669Y018200D01*
X041669Y018699D01*
X041674Y018698D02*
X042950Y018698D01*
X042950Y018600D02*
X041935Y018600D01*
X042043Y018501D02*
X042950Y018501D01*
X042950Y018403D02*
X042107Y018403D01*
X042147Y018304D02*
X042950Y018304D01*
X042950Y018206D02*
X042167Y018206D01*
X042151Y018009D02*
X042950Y018009D01*
X042950Y018107D02*
X041669Y018107D01*
X041669Y018009D02*
X041569Y018009D01*
X041568Y018107D02*
X040850Y018107D01*
X040850Y018206D02*
X041070Y018206D01*
X041090Y018304D02*
X040850Y018304D01*
X040850Y018403D02*
X041130Y018403D01*
X041194Y018501D02*
X040850Y018501D01*
X040850Y018600D02*
X041302Y018600D01*
X041569Y018600D02*
X041669Y018600D01*
X041669Y018501D02*
X041569Y018501D01*
X041569Y018403D02*
X041669Y018403D01*
X041669Y018304D02*
X041569Y018304D01*
X041569Y018206D02*
X041669Y018206D01*
X041669Y017910D02*
X041569Y017910D01*
X041569Y017812D02*
X041669Y017812D01*
X041669Y017713D02*
X041569Y017713D01*
X041569Y017615D02*
X041669Y017615D01*
X041750Y017615D02*
X042950Y017615D01*
X042950Y017713D02*
X041953Y017713D01*
X042052Y017812D02*
X042950Y017812D01*
X042950Y017910D02*
X042114Y017910D01*
X041487Y017615D02*
X040397Y017615D01*
X040496Y017713D02*
X041284Y017713D01*
X041185Y017812D02*
X040594Y017812D01*
X040693Y017910D02*
X041123Y017910D01*
X041086Y018009D02*
X040791Y018009D01*
X040213Y017713D02*
X039087Y017713D01*
X040299Y017516D02*
X042950Y017516D01*
X043150Y017516D02*
X044784Y017516D01*
X044882Y017418D02*
X043150Y017418D01*
X043150Y017319D02*
X044981Y017319D01*
X045079Y017221D02*
X043150Y017221D01*
X043150Y017122D02*
X045150Y017122D01*
X045150Y017024D02*
X043150Y017024D01*
X043150Y016925D02*
X045150Y016925D01*
X045150Y016827D02*
X043150Y016827D01*
X043150Y016728D02*
X045150Y016728D01*
X045150Y016630D02*
X043150Y016630D01*
X043150Y016531D02*
X045150Y016531D01*
X045150Y016433D02*
X043150Y016433D01*
X043150Y016334D02*
X045150Y016334D01*
X045150Y016236D02*
X043150Y016236D01*
X043150Y016137D02*
X045150Y016137D01*
X045150Y016039D02*
X043150Y016039D01*
X043150Y015940D02*
X045150Y015940D01*
X045150Y015842D02*
X043150Y015842D01*
X043150Y015743D02*
X045150Y015743D01*
X045150Y015645D02*
X043150Y015645D01*
X043150Y015546D02*
X045150Y015546D01*
X045150Y015448D02*
X043150Y015448D01*
X043150Y015349D02*
X045150Y015349D01*
X045150Y015251D02*
X043150Y015251D01*
X043150Y015152D02*
X045150Y015152D01*
X045150Y015054D02*
X043150Y015054D01*
X043150Y014955D02*
X045150Y014955D01*
X045150Y014857D02*
X043150Y014857D01*
X043150Y014758D02*
X045150Y014758D01*
X045150Y014660D02*
X043150Y014660D01*
X043150Y014561D02*
X045150Y014561D01*
X045150Y014463D02*
X043150Y014463D01*
X043150Y014364D02*
X045150Y014364D01*
X045150Y014266D02*
X043150Y014266D01*
X043150Y014167D02*
X045150Y014167D01*
X045350Y014167D02*
X045450Y014167D01*
X045450Y014069D02*
X045350Y014069D01*
X045253Y013970D02*
X045450Y013970D01*
X045650Y013970D02*
X048650Y013970D01*
X048650Y013872D02*
X045650Y013872D01*
X045650Y013773D02*
X048650Y013773D01*
X048650Y013675D02*
X045650Y013675D01*
X045650Y013576D02*
X048650Y013576D01*
X048650Y013478D02*
X045650Y013478D01*
X045650Y013379D02*
X048650Y013379D01*
X048650Y013281D02*
X045650Y013281D01*
X045650Y013182D02*
X048650Y013182D01*
X048650Y013150D02*
X045650Y013150D01*
X045650Y016150D01*
X046650Y017150D01*
X046650Y018150D01*
X047150Y018650D01*
X047388Y018650D01*
X047330Y018620D01*
X047260Y018570D01*
X047199Y018508D01*
X047148Y018438D01*
X047109Y018361D01*
X047082Y018279D01*
X047070Y018200D01*
X047568Y018200D01*
X047568Y018100D01*
X047070Y018100D01*
X047082Y018021D01*
X047109Y017939D01*
X047148Y017862D01*
X047199Y017792D01*
X047260Y017730D01*
X047330Y017680D01*
X047407Y017640D01*
X047490Y017614D01*
X047569Y017601D01*
X047569Y018100D01*
X047669Y018100D01*
X047669Y018200D01*
X048167Y018200D01*
X048155Y018279D01*
X048128Y018361D01*
X048089Y018438D01*
X048038Y018508D01*
X047977Y018570D01*
X047907Y018620D01*
X047849Y018650D01*
X048150Y018650D01*
X048650Y018150D01*
X048650Y013150D01*
X048850Y013182D02*
X051450Y013182D01*
X051450Y013084D02*
X048850Y013084D01*
X048768Y012985D02*
X051532Y012985D01*
X051567Y012950D02*
X051733Y012950D01*
X054567Y012950D01*
X054733Y012950D01*
X054850Y013067D01*
X054850Y018233D01*
X054350Y018733D01*
X054233Y018850D01*
X053067Y018850D01*
X052567Y018350D01*
X052450Y018233D01*
X052450Y017233D01*
X051567Y016350D01*
X051450Y016233D01*
X051450Y013067D01*
X051567Y012950D01*
X051650Y013150D02*
X051650Y016150D01*
X052650Y017150D01*
X052650Y018150D01*
X053150Y018650D01*
X053388Y018650D01*
X053330Y018620D01*
X053260Y018570D01*
X053199Y018508D01*
X053148Y018438D01*
X053109Y018361D01*
X053082Y018279D01*
X053070Y018200D01*
X053568Y018200D01*
X053568Y018100D01*
X053070Y018100D01*
X053082Y018021D01*
X053109Y017939D01*
X053148Y017862D01*
X053199Y017792D01*
X053260Y017730D01*
X053330Y017680D01*
X053407Y017640D01*
X053490Y017614D01*
X053569Y017601D01*
X053569Y018100D01*
X053669Y018100D01*
X053669Y018200D01*
X054167Y018200D01*
X054155Y018279D01*
X054128Y018361D01*
X054089Y018438D01*
X054038Y018508D01*
X053977Y018570D01*
X053907Y018620D01*
X053849Y018650D01*
X054150Y018650D01*
X054650Y018150D01*
X054650Y013150D01*
X051650Y013150D01*
X051650Y013182D02*
X054650Y013182D01*
X054650Y013281D02*
X051650Y013281D01*
X051650Y013379D02*
X054650Y013379D01*
X054650Y013478D02*
X051650Y013478D01*
X051650Y013576D02*
X054650Y013576D01*
X054650Y013675D02*
X051650Y013675D01*
X051650Y013773D02*
X054650Y013773D01*
X054650Y013872D02*
X051650Y013872D01*
X051650Y013970D02*
X054650Y013970D01*
X054650Y014069D02*
X051650Y014069D01*
X051650Y014167D02*
X054650Y014167D01*
X054650Y014266D02*
X051650Y014266D01*
X051650Y014364D02*
X054650Y014364D01*
X054650Y014463D02*
X051650Y014463D01*
X051650Y014561D02*
X054650Y014561D01*
X054650Y014660D02*
X051650Y014660D01*
X051650Y014758D02*
X054650Y014758D01*
X054650Y014857D02*
X051650Y014857D01*
X051650Y014955D02*
X054650Y014955D01*
X054650Y015054D02*
X051650Y015054D01*
X051650Y015152D02*
X054650Y015152D01*
X054650Y015251D02*
X051650Y015251D01*
X051650Y015349D02*
X054650Y015349D01*
X054650Y015448D02*
X051650Y015448D01*
X051650Y015546D02*
X054650Y015546D01*
X054650Y015645D02*
X051650Y015645D01*
X051650Y015743D02*
X054650Y015743D01*
X054650Y015842D02*
X051650Y015842D01*
X051650Y015940D02*
X054650Y015940D01*
X054650Y016039D02*
X051650Y016039D01*
X051650Y016137D02*
X054650Y016137D01*
X054650Y016236D02*
X051736Y016236D01*
X051834Y016334D02*
X054650Y016334D01*
X054650Y016433D02*
X051933Y016433D01*
X052031Y016531D02*
X054650Y016531D01*
X054650Y016630D02*
X052130Y016630D01*
X052228Y016728D02*
X054650Y016728D01*
X054650Y016827D02*
X052327Y016827D01*
X052425Y016925D02*
X054650Y016925D01*
X054650Y017024D02*
X052524Y017024D01*
X052622Y017122D02*
X054650Y017122D01*
X054650Y017221D02*
X052650Y017221D01*
X052650Y017319D02*
X054650Y017319D01*
X054650Y017418D02*
X052650Y017418D01*
X052650Y017516D02*
X054650Y017516D01*
X054650Y017615D02*
X053750Y017615D01*
X053747Y017614D02*
X053830Y017640D01*
X053907Y017680D01*
X053977Y017730D01*
X054038Y017792D01*
X054089Y017862D01*
X054128Y017939D01*
X054155Y018021D01*
X054167Y018100D01*
X053669Y018100D01*
X053669Y017601D01*
X053747Y017614D01*
X053669Y017615D02*
X053569Y017615D01*
X053487Y017615D02*
X052650Y017615D01*
X052650Y017713D02*
X053284Y017713D01*
X053185Y017812D02*
X052650Y017812D01*
X052650Y017910D02*
X053123Y017910D01*
X053086Y018009D02*
X052650Y018009D01*
X052650Y018107D02*
X053568Y018107D01*
X053569Y018009D02*
X053669Y018009D01*
X053669Y018107D02*
X054650Y018107D01*
X054650Y018009D02*
X054151Y018009D01*
X054114Y017910D02*
X054650Y017910D01*
X054650Y017812D02*
X054052Y017812D01*
X053953Y017713D02*
X054650Y017713D01*
X054850Y017713D02*
X054950Y017713D01*
X054950Y017615D02*
X054850Y017615D01*
X054850Y017516D02*
X054950Y017516D01*
X054950Y017418D02*
X054850Y017418D01*
X054850Y017319D02*
X054950Y017319D01*
X054950Y017221D02*
X054850Y017221D01*
X054850Y017122D02*
X054950Y017122D01*
X054950Y017024D02*
X054850Y017024D01*
X054850Y016925D02*
X054950Y016925D01*
X054950Y016827D02*
X054850Y016827D01*
X054850Y016728D02*
X054950Y016728D01*
X054950Y016630D02*
X054850Y016630D01*
X054850Y016531D02*
X054950Y016531D01*
X054950Y016433D02*
X054850Y016433D01*
X054850Y016334D02*
X054950Y016334D01*
X054950Y016236D02*
X054850Y016236D01*
X054850Y016137D02*
X054950Y016137D01*
X054950Y016039D02*
X054850Y016039D01*
X054850Y015940D02*
X054950Y015940D01*
X054950Y015842D02*
X054850Y015842D01*
X054850Y015743D02*
X054950Y015743D01*
X054950Y015645D02*
X054850Y015645D01*
X054850Y015546D02*
X054950Y015546D01*
X054950Y015448D02*
X054850Y015448D01*
X054850Y015349D02*
X054950Y015349D01*
X054950Y015251D02*
X054850Y015251D01*
X054850Y015152D02*
X054950Y015152D01*
X054950Y015054D02*
X054850Y015054D01*
X054850Y014955D02*
X054950Y014955D01*
X054950Y014857D02*
X054850Y014857D01*
X054850Y014758D02*
X054950Y014758D01*
X054950Y014660D02*
X054850Y014660D01*
X054850Y014561D02*
X054950Y014561D01*
X054950Y014463D02*
X054850Y014463D01*
X054850Y014364D02*
X054950Y014364D01*
X054950Y014266D02*
X054850Y014266D01*
X054850Y013773D02*
X057450Y013773D01*
X057450Y013675D02*
X054850Y013675D01*
X054850Y013576D02*
X057450Y013576D01*
X057450Y013478D02*
X054850Y013478D01*
X054850Y013379D02*
X057450Y013379D01*
X057450Y013281D02*
X054850Y013281D01*
X054850Y013182D02*
X057450Y013182D01*
X057450Y013084D02*
X054850Y013084D01*
X054768Y012985D02*
X057532Y012985D01*
X058667Y012690D02*
X043475Y012690D01*
X043475Y012788D02*
X058765Y012788D01*
X059320Y012830D02*
X064830Y012830D01*
X065750Y013750D01*
X065750Y015850D01*
X066050Y016150D01*
X069350Y016150D01*
X069850Y015650D01*
X070200Y015645D02*
X076192Y015645D01*
X076290Y015743D02*
X070190Y015743D01*
X070150Y015842D02*
X076389Y015842D01*
X076487Y015940D02*
X070055Y015940D01*
X069744Y016039D02*
X076586Y016039D01*
X076684Y016137D02*
X069646Y016137D01*
X069547Y016236D02*
X076783Y016236D01*
X076881Y016334D02*
X069449Y016334D01*
X069277Y015940D02*
X066355Y015940D01*
X066450Y015842D02*
X069376Y015842D01*
X069474Y015743D02*
X066490Y015743D01*
X066500Y015645D02*
X069500Y015645D01*
X069514Y015546D02*
X066486Y015546D01*
X066443Y015448D02*
X069557Y015448D01*
X069662Y015349D02*
X066350Y015349D01*
X066350Y015251D02*
X075798Y015251D01*
X075896Y015349D02*
X070038Y015349D01*
X070143Y015448D02*
X075995Y015448D01*
X076093Y015546D02*
X070186Y015546D01*
X068994Y014364D02*
X074911Y014364D01*
X074813Y014266D02*
X069159Y014266D01*
X068826Y014364D02*
X066350Y014364D01*
X066350Y014266D02*
X068661Y014266D01*
X068592Y014167D02*
X066350Y014167D01*
X066350Y014069D02*
X068560Y014069D01*
X068560Y013970D02*
X066350Y013970D01*
X066350Y013872D02*
X068593Y013872D01*
X068662Y013773D02*
X066350Y013773D01*
X066350Y013675D02*
X068829Y013675D01*
X068991Y013675D02*
X084000Y013675D01*
X084000Y013773D02*
X069158Y013773D01*
X068910Y014020D02*
X074850Y014020D01*
X078980Y018150D01*
X079150Y018150D01*
X079700Y018107D02*
X080478Y018107D01*
X080478Y018100D02*
X079979Y018100D01*
X079991Y018021D01*
X080018Y017939D01*
X080058Y017862D01*
X080108Y017792D01*
X080170Y017730D01*
X080240Y017680D01*
X080317Y017640D01*
X080399Y017614D01*
X080478Y017601D01*
X080478Y018100D01*
X080578Y018100D01*
X080578Y018200D01*
X081077Y018200D01*
X081064Y018279D01*
X081038Y018361D01*
X080998Y018438D01*
X080947Y018508D01*
X080886Y018570D01*
X080816Y018620D01*
X080739Y018660D01*
X080657Y018686D01*
X080578Y018699D01*
X080578Y018200D01*
X080478Y018200D01*
X080478Y018699D01*
X080399Y018686D01*
X080317Y018660D01*
X080240Y018620D01*
X080170Y018570D01*
X080108Y018508D01*
X080058Y018438D01*
X080018Y018361D01*
X079991Y018279D01*
X079979Y018200D01*
X080478Y018200D01*
X080478Y018100D01*
X080478Y018009D02*
X080578Y018009D01*
X080578Y018100D02*
X080578Y017601D01*
X080657Y017614D01*
X080739Y017640D01*
X080816Y017680D01*
X080886Y017730D01*
X080947Y017792D01*
X080998Y017862D01*
X081038Y017939D01*
X081064Y018021D01*
X081077Y018100D01*
X080578Y018100D01*
X080578Y018107D02*
X084000Y018107D01*
X084000Y018009D02*
X081060Y018009D01*
X081023Y017910D02*
X084000Y017910D01*
X084000Y017812D02*
X080962Y017812D01*
X080862Y017713D02*
X084000Y017713D01*
X084000Y017615D02*
X080660Y017615D01*
X080578Y017615D02*
X080478Y017615D01*
X080396Y017615D02*
X079627Y017615D01*
X079700Y017713D02*
X080194Y017713D01*
X080094Y017812D02*
X079700Y017812D01*
X079700Y017910D02*
X080033Y017910D01*
X079996Y018009D02*
X079700Y018009D01*
X079700Y018206D02*
X079980Y018206D01*
X080000Y018304D02*
X079700Y018304D01*
X079700Y018403D02*
X080039Y018403D01*
X080103Y018501D02*
X079700Y018501D01*
X079700Y018600D02*
X080211Y018600D01*
X080478Y018600D02*
X080578Y018600D01*
X080578Y018698D02*
X080478Y018698D01*
X080472Y018698D02*
X079614Y018698D01*
X080478Y018501D02*
X080578Y018501D01*
X080578Y018403D02*
X080478Y018403D01*
X080478Y018304D02*
X080578Y018304D01*
X080578Y018206D02*
X080478Y018206D01*
X080478Y017910D02*
X080578Y017910D01*
X080578Y017812D02*
X080478Y017812D01*
X080478Y017713D02*
X080578Y017713D01*
X081076Y018206D02*
X084000Y018206D01*
X084000Y018304D02*
X081056Y018304D01*
X081017Y018403D02*
X084000Y018403D01*
X084000Y018501D02*
X080953Y018501D01*
X080845Y018600D02*
X084000Y018600D01*
X084000Y018698D02*
X080584Y018698D01*
X078629Y017516D02*
X084000Y017516D01*
X084000Y017418D02*
X078530Y017418D01*
X078432Y017319D02*
X084000Y017319D01*
X084000Y017221D02*
X078333Y017221D01*
X078235Y017122D02*
X084000Y017122D01*
X084000Y017024D02*
X078136Y017024D01*
X078038Y016925D02*
X084000Y016925D01*
X084000Y016827D02*
X077939Y016827D01*
X077841Y016728D02*
X084000Y016728D01*
X084000Y016630D02*
X077742Y016630D01*
X077644Y016531D02*
X084000Y016531D01*
X084000Y016433D02*
X077545Y016433D01*
X077447Y016334D02*
X084000Y016334D01*
X084000Y016236D02*
X077348Y016236D01*
X077250Y016137D02*
X084000Y016137D01*
X084000Y016039D02*
X077151Y016039D01*
X077053Y015940D02*
X084000Y015940D01*
X084000Y015842D02*
X076954Y015842D01*
X076856Y015743D02*
X084000Y015743D01*
X084000Y015645D02*
X076757Y015645D01*
X076659Y015546D02*
X084000Y015546D01*
X084000Y015448D02*
X076560Y015448D01*
X076462Y015349D02*
X084000Y015349D01*
X084000Y015251D02*
X076363Y015251D01*
X076265Y015152D02*
X084000Y015152D01*
X084000Y015054D02*
X076166Y015054D01*
X076068Y014955D02*
X084000Y014955D01*
X084000Y014857D02*
X075969Y014857D01*
X075871Y014758D02*
X084000Y014758D01*
X084000Y014660D02*
X075772Y014660D01*
X075674Y014561D02*
X084000Y014561D01*
X084000Y014463D02*
X075575Y014463D01*
X075477Y014364D02*
X084000Y014364D01*
X084000Y014266D02*
X075378Y014266D01*
X075280Y014167D02*
X084000Y014167D01*
X084000Y014069D02*
X075181Y014069D01*
X075083Y013970D02*
X084000Y013970D01*
X084000Y013872D02*
X074984Y013872D01*
X075010Y014463D02*
X066350Y014463D01*
X066350Y014561D02*
X075108Y014561D01*
X075207Y014660D02*
X066350Y014660D01*
X066350Y014758D02*
X075305Y014758D01*
X075404Y014857D02*
X066350Y014857D01*
X066350Y014955D02*
X075502Y014955D01*
X075601Y015054D02*
X066350Y015054D01*
X066350Y015152D02*
X075699Y015152D01*
X076980Y016433D02*
X064435Y016433D01*
X064534Y016531D02*
X077078Y016531D01*
X077177Y016630D02*
X064632Y016630D01*
X064731Y016728D02*
X077275Y016728D01*
X077374Y016827D02*
X064829Y016827D01*
X064928Y016925D02*
X077472Y016925D01*
X077571Y017024D02*
X065026Y017024D01*
X065125Y017122D02*
X077669Y017122D01*
X077768Y017221D02*
X065223Y017221D01*
X065322Y017319D02*
X077866Y017319D01*
X077965Y017418D02*
X065420Y017418D01*
X065519Y017516D02*
X078063Y017516D01*
X074673Y017615D02*
X072660Y017615D01*
X072657Y017614D02*
X072739Y017640D01*
X072816Y017680D01*
X072886Y017730D01*
X072947Y017792D01*
X072998Y017862D01*
X073038Y017939D01*
X073064Y018021D01*
X073077Y018100D01*
X072578Y018100D01*
X072578Y017601D01*
X072657Y017614D01*
X072578Y017615D02*
X072478Y017615D01*
X072478Y017601D02*
X072399Y017614D01*
X072317Y017640D01*
X072240Y017680D01*
X072170Y017730D01*
X072108Y017792D01*
X072058Y017862D01*
X072018Y017939D01*
X071991Y018021D01*
X071979Y018100D01*
X072478Y018100D01*
X072478Y017601D01*
X072396Y017615D02*
X071627Y017615D01*
X071700Y017713D02*
X072194Y017713D01*
X072094Y017812D02*
X071700Y017812D01*
X071700Y017910D02*
X072033Y017910D01*
X071996Y018009D02*
X071700Y018009D01*
X071700Y018107D02*
X072478Y018107D01*
X072478Y018009D02*
X072578Y018009D01*
X072578Y018107D02*
X074600Y018107D01*
X074600Y018009D02*
X073060Y018009D01*
X073023Y017910D02*
X074600Y017910D01*
X074600Y017812D02*
X072962Y017812D01*
X072862Y017713D02*
X074600Y017713D01*
X074600Y018206D02*
X073076Y018206D01*
X073056Y018304D02*
X074543Y018304D01*
X074445Y018403D02*
X073017Y018403D01*
X072953Y018501D02*
X074346Y018501D01*
X074248Y018600D02*
X072845Y018600D01*
X072211Y018600D02*
X071700Y018600D01*
X071700Y018501D02*
X072103Y018501D01*
X072039Y018403D02*
X071700Y018403D01*
X071700Y018304D02*
X072000Y018304D01*
X071980Y018206D02*
X071700Y018206D01*
X072478Y017910D02*
X072578Y017910D01*
X072578Y017812D02*
X072478Y017812D01*
X072478Y017713D02*
X072578Y017713D01*
X070673Y017615D02*
X068660Y017615D01*
X068657Y017614D02*
X068739Y017640D01*
X068816Y017680D01*
X068886Y017730D01*
X068947Y017792D01*
X068998Y017862D01*
X069038Y017939D01*
X069064Y018021D01*
X069077Y018100D01*
X068578Y018100D01*
X068578Y017601D01*
X068657Y017614D01*
X068578Y017615D02*
X068478Y017615D01*
X068478Y017601D02*
X068399Y017614D01*
X068317Y017640D01*
X068240Y017680D01*
X068170Y017730D01*
X068108Y017792D01*
X068058Y017862D01*
X068018Y017939D01*
X067991Y018021D01*
X067979Y018100D01*
X068478Y018100D01*
X068478Y017601D01*
X068396Y017615D02*
X067627Y017615D01*
X067700Y017713D02*
X068194Y017713D01*
X068094Y017812D02*
X067700Y017812D01*
X067700Y017910D02*
X068033Y017910D01*
X067996Y018009D02*
X067700Y018009D01*
X067700Y018107D02*
X068478Y018107D01*
X068478Y018009D02*
X068578Y018009D01*
X068578Y018107D02*
X070600Y018107D01*
X070600Y018009D02*
X069060Y018009D01*
X069023Y017910D02*
X070600Y017910D01*
X070600Y017812D02*
X068962Y017812D01*
X068862Y017713D02*
X070600Y017713D01*
X070600Y018206D02*
X069076Y018206D01*
X069056Y018304D02*
X070600Y018304D01*
X070600Y018403D02*
X069017Y018403D01*
X068953Y018501D02*
X070600Y018501D01*
X070600Y018600D02*
X068845Y018600D01*
X068211Y018600D02*
X067700Y018600D01*
X067700Y018501D02*
X068103Y018501D01*
X068039Y018403D02*
X067700Y018403D01*
X067700Y018304D02*
X068000Y018304D01*
X067980Y018206D02*
X067700Y018206D01*
X068478Y017910D02*
X068578Y017910D01*
X068578Y017812D02*
X068478Y017812D01*
X068478Y017713D02*
X068578Y017713D01*
X066673Y017615D02*
X065617Y017615D01*
X065716Y017713D02*
X066600Y017713D01*
X066600Y017812D02*
X065814Y017812D01*
X065913Y017910D02*
X066600Y017910D01*
X066600Y018009D02*
X066011Y018009D01*
X066110Y018107D02*
X066600Y018107D01*
X066600Y018206D02*
X066208Y018206D01*
X066307Y018304D02*
X066600Y018304D01*
X066600Y018403D02*
X066405Y018403D01*
X066504Y018501D02*
X066600Y018501D01*
X066234Y018797D02*
X060286Y018797D01*
X060385Y018698D02*
X062686Y018698D01*
X062688Y018700D02*
X062600Y018612D01*
X062600Y017688D01*
X062688Y017600D01*
X063612Y017600D01*
X063700Y017688D01*
X063700Y018612D01*
X063612Y018700D01*
X062688Y018700D01*
X062600Y018600D02*
X060483Y018600D01*
X060582Y018501D02*
X062600Y018501D01*
X062600Y018403D02*
X060680Y018403D01*
X060779Y018304D02*
X062600Y018304D01*
X062600Y018206D02*
X060850Y018206D01*
X060850Y018107D02*
X062600Y018107D01*
X062600Y018009D02*
X060850Y018009D01*
X060850Y017910D02*
X062600Y017910D01*
X062600Y017812D02*
X060850Y017812D01*
X060850Y017713D02*
X062600Y017713D01*
X062673Y017615D02*
X060850Y017615D01*
X060850Y017516D02*
X064953Y017516D01*
X064855Y017418D02*
X060850Y017418D01*
X060850Y017319D02*
X064756Y017319D01*
X064658Y017221D02*
X060850Y017221D01*
X060850Y017122D02*
X064559Y017122D01*
X064461Y017024D02*
X060850Y017024D01*
X060850Y016925D02*
X064362Y016925D01*
X064264Y016827D02*
X060850Y016827D01*
X060850Y016728D02*
X064165Y016728D01*
X064067Y016630D02*
X060850Y016630D01*
X060850Y016531D02*
X063968Y016531D01*
X063870Y016433D02*
X060850Y016433D01*
X060850Y016334D02*
X063771Y016334D01*
X063673Y016236D02*
X060850Y016236D01*
X060850Y016137D02*
X063574Y016137D01*
X063476Y016039D02*
X060850Y016039D01*
X060850Y015940D02*
X063377Y015940D01*
X063279Y015842D02*
X060850Y015842D01*
X060850Y015743D02*
X063180Y015743D01*
X063082Y015645D02*
X060850Y015645D01*
X060850Y015546D02*
X062983Y015546D01*
X062885Y015448D02*
X060850Y015448D01*
X060850Y015349D02*
X062786Y015349D01*
X062688Y015251D02*
X060850Y015251D01*
X060850Y015152D02*
X062589Y015152D01*
X062491Y015054D02*
X060850Y015054D01*
X060850Y014955D02*
X062392Y014955D01*
X062294Y014857D02*
X060850Y014857D01*
X060850Y014758D02*
X062195Y014758D01*
X062097Y014660D02*
X060850Y014660D01*
X060850Y014561D02*
X061998Y014561D01*
X061900Y014463D02*
X060850Y014463D01*
X060850Y014364D02*
X061801Y014364D01*
X061703Y014266D02*
X060850Y014266D01*
X060850Y014167D02*
X061604Y014167D01*
X061506Y014069D02*
X060850Y014069D01*
X060850Y013970D02*
X061407Y013970D01*
X061309Y013872D02*
X060850Y013872D01*
X060850Y013773D02*
X061210Y013773D01*
X061112Y013675D02*
X060850Y013675D01*
X060850Y013576D02*
X061013Y013576D01*
X060915Y013478D02*
X060850Y013478D01*
X061185Y013182D02*
X064899Y013182D01*
X064801Y013084D02*
X061086Y013084D01*
X061283Y013281D02*
X064998Y013281D01*
X065096Y013379D02*
X061382Y013379D01*
X061480Y013478D02*
X065195Y013478D01*
X065293Y013576D02*
X061579Y013576D01*
X061677Y013675D02*
X065392Y013675D01*
X065490Y013773D02*
X061776Y013773D01*
X061874Y013872D02*
X065550Y013872D01*
X065550Y013970D02*
X061973Y013970D01*
X062071Y014069D02*
X065550Y014069D01*
X065550Y014167D02*
X062170Y014167D01*
X062268Y014266D02*
X065550Y014266D01*
X065550Y014364D02*
X062367Y014364D01*
X062465Y014463D02*
X065550Y014463D01*
X065550Y014561D02*
X062564Y014561D01*
X062662Y014660D02*
X065550Y014660D01*
X065550Y014758D02*
X062761Y014758D01*
X062859Y014857D02*
X065550Y014857D01*
X065550Y014955D02*
X062958Y014955D01*
X063056Y015054D02*
X065550Y015054D01*
X065550Y015152D02*
X063155Y015152D01*
X063253Y015251D02*
X065550Y015251D01*
X065550Y015349D02*
X063352Y015349D01*
X063450Y015448D02*
X065550Y015448D01*
X065550Y015546D02*
X063549Y015546D01*
X063647Y015645D02*
X065550Y015645D01*
X065550Y015743D02*
X063746Y015743D01*
X063844Y015842D02*
X065550Y015842D01*
X065557Y015940D02*
X063943Y015940D01*
X064041Y016039D02*
X065656Y016039D01*
X065754Y016137D02*
X064140Y016137D01*
X064238Y016236D02*
X065853Y016236D01*
X065951Y016334D02*
X064337Y016334D01*
X066150Y015650D02*
X066150Y013320D01*
X065500Y012670D01*
X059390Y012670D01*
X057440Y010720D01*
X051470Y010720D01*
X052250Y010560D02*
X057510Y010560D01*
X058690Y011740D01*
X070010Y011740D01*
X071580Y010170D01*
X071580Y009500D01*
X071470Y009390D01*
X071780Y009636D02*
X071873Y009636D01*
X071780Y009735D02*
X071972Y009735D01*
X072070Y009833D02*
X071780Y009833D01*
X071780Y009932D02*
X072169Y009932D01*
X072267Y010030D02*
X071780Y010030D01*
X071780Y010129D02*
X072366Y010129D01*
X072464Y010227D02*
X071780Y010227D01*
X071707Y010326D02*
X072563Y010326D01*
X072661Y010424D02*
X071609Y010424D01*
X071510Y010523D02*
X072760Y010523D01*
X072858Y010621D02*
X071412Y010621D01*
X071313Y010720D02*
X072957Y010720D01*
X072960Y010818D02*
X071215Y010818D01*
X071116Y010917D02*
X072960Y010917D01*
X072960Y011015D02*
X071018Y011015D01*
X070919Y011114D02*
X072912Y011114D01*
X072842Y011212D02*
X070821Y011212D01*
X070722Y011311D02*
X072810Y011311D01*
X072810Y011409D02*
X070624Y011409D01*
X070525Y011508D02*
X072842Y011508D01*
X072911Y011606D02*
X070427Y011606D01*
X070328Y011705D02*
X073077Y011705D01*
X073243Y011705D02*
X073471Y011705D01*
X073409Y011606D02*
X073650Y011606D01*
X073680Y011508D02*
X073478Y011508D01*
X073510Y011409D02*
X073746Y011409D01*
X073778Y011311D02*
X073510Y011311D01*
X073478Y011212D02*
X073679Y011212D01*
X073581Y011114D02*
X073408Y011114D01*
X073360Y011015D02*
X073482Y011015D01*
X073384Y010917D02*
X073360Y010917D01*
X073160Y010640D02*
X068710Y006190D01*
X069060Y006189D02*
X069297Y006189D01*
X069178Y006287D02*
X069090Y006287D01*
X069047Y006090D02*
X072523Y006090D01*
X072624Y006189D02*
X069623Y006189D01*
X069742Y006287D02*
X072718Y006287D01*
X072614Y006386D02*
X069791Y006386D01*
X069810Y006484D02*
X072510Y006484D01*
X072406Y006583D02*
X069805Y006583D01*
X069764Y006681D02*
X072302Y006681D01*
X072198Y006780D02*
X069812Y006780D01*
X069911Y006878D02*
X072094Y006878D01*
X071990Y006977D02*
X070009Y006977D01*
X070108Y007075D02*
X071886Y007075D01*
X071782Y007174D02*
X070206Y007174D01*
X070305Y007272D02*
X071678Y007272D01*
X071574Y007371D02*
X070403Y007371D01*
X070502Y007469D02*
X071470Y007469D01*
X071147Y007568D02*
X070600Y007568D01*
X070699Y007666D02*
X071072Y007666D01*
X071035Y007765D02*
X070797Y007765D01*
X070896Y007863D02*
X071035Y007863D01*
X071063Y007962D02*
X070994Y007962D01*
X071093Y008060D02*
X071126Y008060D01*
X071191Y008159D02*
X071277Y008159D01*
X071455Y008175D02*
X071583Y008121D01*
X071682Y008023D01*
X071735Y007894D01*
X071735Y007769D01*
X072425Y007115D01*
X072426Y007174D02*
X072363Y007174D01*
X072259Y007272D02*
X072467Y007272D01*
X072549Y007371D02*
X072155Y007371D01*
X072051Y007469D02*
X072376Y007469D01*
X072298Y007568D02*
X071947Y007568D01*
X071843Y007666D02*
X072260Y007666D01*
X072260Y007765D02*
X071739Y007765D01*
X071735Y007863D02*
X072286Y007863D01*
X072347Y007962D02*
X071707Y007962D01*
X071645Y008060D02*
X072269Y008060D01*
X072610Y007730D02*
X075650Y004690D01*
X075650Y004150D01*
X076650Y004150D02*
X073610Y007190D01*
X072452Y008363D01*
X070990Y008910D02*
X070660Y009240D01*
X070240Y009240D01*
X068860Y010620D01*
X066690Y010620D01*
X064000Y007930D01*
X059450Y007930D01*
X059030Y008350D01*
X054540Y008350D01*
X054210Y008020D01*
X053710Y007960D02*
X054760Y009010D01*
X056670Y009010D01*
X058470Y010810D01*
X065490Y010810D01*
X065333Y010496D02*
X063977Y009140D01*
X059405Y009140D01*
X059308Y009237D01*
X059180Y009290D01*
X059040Y009290D01*
X058912Y009237D01*
X058813Y009138D01*
X058796Y009097D01*
X058460Y009433D01*
X058343Y009550D01*
X057745Y009550D01*
X057648Y009647D01*
X057607Y009664D01*
X058553Y010610D01*
X065195Y010610D01*
X065292Y010513D01*
X065333Y010496D01*
X065283Y010523D02*
X058465Y010523D01*
X058367Y010424D02*
X065261Y010424D01*
X065163Y010326D02*
X058268Y010326D01*
X058170Y010227D02*
X065064Y010227D01*
X064966Y010129D02*
X058071Y010129D01*
X057973Y010030D02*
X064867Y010030D01*
X064769Y009932D02*
X057874Y009932D01*
X057776Y009833D02*
X064670Y009833D01*
X064572Y009735D02*
X057677Y009735D01*
X057659Y009636D02*
X064473Y009636D01*
X064375Y009538D02*
X058355Y009538D01*
X058454Y009439D02*
X064276Y009439D01*
X064178Y009341D02*
X058552Y009341D01*
X058651Y009242D02*
X058925Y009242D01*
X058819Y009144D02*
X058749Y009144D01*
X059110Y008940D02*
X064060Y008940D01*
X065900Y010780D01*
X068930Y010780D01*
X069550Y010160D01*
X071150Y010160D01*
X070607Y010470D02*
X069470Y010470D01*
X068820Y011120D01*
X061730Y011120D01*
X061110Y011270D02*
X058690Y011270D01*
X056590Y009170D01*
X053070Y009170D01*
X053207Y008848D02*
X054315Y008848D01*
X054217Y008750D02*
X052986Y008750D01*
X052922Y008651D02*
X054118Y008651D01*
X054020Y008553D02*
X053262Y008553D01*
X053353Y008454D02*
X053921Y008454D01*
X053823Y008356D02*
X053393Y008356D01*
X053400Y008257D02*
X053724Y008257D01*
X053710Y007960D02*
X050578Y007960D01*
X048470Y009761D01*
X048160Y009650D01*
X047400Y008890D01*
X046135Y009341D02*
X045583Y009341D01*
X045682Y009439D02*
X045976Y009439D01*
X046030Y010300D02*
X048530Y010300D01*
X049600Y009230D01*
X049810Y009230D01*
X050150Y009330D02*
X050150Y008700D01*
X050700Y008150D01*
X052930Y008150D01*
X053050Y008270D01*
X052838Y008553D02*
X052773Y008553D01*
X052747Y008454D02*
X050679Y008454D01*
X050777Y008356D02*
X052707Y008356D01*
X052527Y008553D02*
X050580Y008553D01*
X050482Y008651D02*
X052378Y008651D01*
X052650Y008900D02*
X051400Y008900D01*
X049400Y010900D01*
X048576Y010621D02*
X046404Y010621D01*
X046502Y010720D02*
X048478Y010720D01*
X048340Y011140D02*
X050150Y009330D01*
X050350Y009341D02*
X050677Y009341D01*
X050578Y009439D02*
X050324Y009439D01*
X050225Y009538D02*
X050480Y009538D01*
X050381Y009636D02*
X050127Y009636D01*
X050028Y009735D02*
X050283Y009735D01*
X051630Y009940D02*
X052250Y010560D01*
X050550Y011030D02*
X057520Y011030D01*
X059320Y012830D01*
X059397Y012394D02*
X084000Y012394D01*
X084000Y012296D02*
X073857Y012296D01*
X073968Y012197D02*
X084000Y012197D01*
X084000Y012099D02*
X080426Y012099D01*
X080535Y012000D02*
X084000Y012000D01*
X084000Y011902D02*
X080609Y011902D01*
X080649Y011803D02*
X084000Y011803D01*
X084000Y011705D02*
X080670Y011705D01*
X080670Y011606D02*
X084000Y011606D01*
X084000Y011508D02*
X080654Y011508D01*
X080613Y011409D02*
X084000Y011409D01*
X084000Y011311D02*
X080546Y011311D01*
X080447Y011212D02*
X084000Y011212D01*
X084000Y011114D02*
X080390Y011114D01*
X080520Y011015D02*
X084000Y011015D01*
X084000Y010917D02*
X080602Y010917D01*
X080643Y010818D02*
X084000Y010818D01*
X084000Y010720D02*
X080670Y010720D01*
X080670Y010621D02*
X084000Y010621D01*
X084000Y010523D02*
X080660Y010523D01*
X080619Y010424D02*
X084000Y010424D01*
X084000Y010326D02*
X080561Y010326D01*
X080462Y010227D02*
X084000Y010227D01*
X084000Y010129D02*
X080001Y010129D01*
X079903Y010030D02*
X084000Y010030D01*
X084000Y009932D02*
X079804Y009932D01*
X079706Y009833D02*
X084000Y009833D01*
X084000Y009735D02*
X079607Y009735D01*
X079509Y009636D02*
X084000Y009636D01*
X084000Y009538D02*
X079410Y009538D01*
X079312Y009439D02*
X084000Y009439D01*
X084000Y009341D02*
X079213Y009341D01*
X079115Y009242D02*
X084000Y009242D01*
X084000Y009144D02*
X079016Y009144D01*
X078918Y009045D02*
X084000Y009045D01*
X084000Y008947D02*
X078850Y008947D01*
X078850Y008848D02*
X084000Y008848D01*
X084000Y008750D02*
X078850Y008750D01*
X078850Y008651D02*
X084000Y008651D01*
X084000Y008553D02*
X078850Y008553D01*
X078850Y008454D02*
X084000Y008454D01*
X084000Y008356D02*
X078850Y008356D01*
X078850Y008257D02*
X084000Y008257D01*
X084000Y008159D02*
X078850Y008159D01*
X078850Y008060D02*
X084000Y008060D01*
X084000Y007962D02*
X078850Y007962D01*
X078850Y007863D02*
X084000Y007863D01*
X084000Y007765D02*
X078850Y007765D01*
X078850Y007666D02*
X084000Y007666D01*
X084000Y007568D02*
X078850Y007568D01*
X078850Y007469D02*
X084000Y007469D01*
X084000Y007371D02*
X078850Y007371D01*
X078850Y007272D02*
X084000Y007272D01*
X084000Y007174D02*
X078850Y007174D01*
X078850Y007075D02*
X084000Y007075D01*
X084000Y006977D02*
X078850Y006977D01*
X078850Y006878D02*
X084000Y006878D01*
X084000Y006780D02*
X078850Y006780D01*
X078850Y006681D02*
X084000Y006681D01*
X084000Y006583D02*
X078850Y006583D01*
X078850Y006484D02*
X084000Y006484D01*
X084000Y006386D02*
X078850Y006386D01*
X078850Y006287D02*
X084000Y006287D01*
X084000Y006189D02*
X078850Y006189D01*
X078850Y006090D02*
X084000Y006090D01*
X084000Y005992D02*
X078850Y005992D01*
X078850Y005893D02*
X084000Y005893D01*
X084000Y005795D02*
X078850Y005795D01*
X078850Y005696D02*
X084000Y005696D01*
X084000Y005598D02*
X078850Y005598D01*
X078850Y005499D02*
X084000Y005499D01*
X084000Y005401D02*
X078850Y005401D01*
X078850Y005302D02*
X084000Y005302D01*
X084000Y005204D02*
X078850Y005204D01*
X078850Y005105D02*
X084000Y005105D01*
X084000Y005007D02*
X078850Y005007D01*
X078850Y004908D02*
X084000Y004908D01*
X084000Y004810D02*
X078850Y004810D01*
X078850Y004711D02*
X084000Y004711D01*
X084000Y004613D02*
X080923Y004613D01*
X081021Y004514D02*
X084000Y004514D01*
X084000Y004416D02*
X081120Y004416D01*
X081170Y004317D02*
X084000Y004317D01*
X084000Y004219D02*
X081170Y004219D01*
X081170Y004120D02*
X084000Y004120D01*
X084000Y004022D02*
X081170Y004022D01*
X081158Y003923D02*
X084000Y003923D01*
X084000Y003825D02*
X081060Y003825D01*
X080961Y003726D02*
X084000Y003726D01*
X083999Y003628D02*
X080908Y003628D01*
X081006Y003529D02*
X083992Y003529D01*
X083977Y003431D02*
X081105Y003431D01*
X081170Y003332D02*
X083950Y003332D01*
X083924Y003234D02*
X081170Y003234D01*
X081170Y003135D02*
X083898Y003135D01*
X083841Y003037D02*
X081170Y003037D01*
X081170Y002938D02*
X083784Y002938D01*
X083728Y002840D02*
X081075Y002840D01*
X080976Y002741D02*
X083634Y002741D01*
X083241Y002446D02*
X073198Y002446D01*
X073100Y002347D02*
X082959Y002347D01*
X078650Y004150D02*
X078650Y009060D01*
X080150Y010560D01*
X080150Y010650D01*
X079630Y010621D02*
X077820Y010621D01*
X077820Y010523D02*
X079640Y010523D01*
X079681Y010424D02*
X077820Y010424D01*
X077820Y010326D02*
X079633Y010326D01*
X079534Y010227D02*
X077820Y010227D01*
X077820Y010129D02*
X079436Y010129D01*
X079337Y010030D02*
X077820Y010030D01*
X077820Y009932D02*
X079239Y009932D01*
X079140Y009833D02*
X077820Y009833D01*
X077820Y009735D02*
X079042Y009735D01*
X078943Y009636D02*
X077820Y009636D01*
X077820Y009538D02*
X078845Y009538D01*
X078746Y009439D02*
X077820Y009439D01*
X077820Y009341D02*
X078648Y009341D01*
X078549Y009242D02*
X077820Y009242D01*
X077820Y009144D02*
X078451Y009144D01*
X078450Y009045D02*
X077820Y009045D01*
X077820Y008947D02*
X078450Y008947D01*
X078450Y008848D02*
X077820Y008848D01*
X077820Y008750D02*
X078450Y008750D01*
X078450Y008651D02*
X077820Y008651D01*
X077820Y008553D02*
X078450Y008553D01*
X078450Y008454D02*
X077820Y008454D01*
X077820Y008356D02*
X078450Y008356D01*
X078450Y008257D02*
X077820Y008257D01*
X077820Y008159D02*
X078450Y008159D01*
X078450Y008060D02*
X077820Y008060D01*
X077820Y007962D02*
X078450Y007962D01*
X078450Y007863D02*
X077820Y007863D01*
X077820Y007765D02*
X078450Y007765D01*
X078450Y007666D02*
X077820Y007666D01*
X077820Y007568D02*
X078450Y007568D01*
X078450Y007469D02*
X077820Y007469D01*
X077820Y007371D02*
X078450Y007371D01*
X078450Y007272D02*
X077820Y007272D01*
X077820Y007174D02*
X078450Y007174D01*
X078450Y007075D02*
X077820Y007075D01*
X077820Y006977D02*
X078450Y006977D01*
X078450Y006878D02*
X077820Y006878D01*
X077820Y006780D02*
X078450Y006780D01*
X078450Y006681D02*
X077820Y006681D01*
X077820Y006583D02*
X078450Y006583D01*
X078450Y006484D02*
X077820Y006484D01*
X077820Y006386D02*
X078450Y006386D01*
X078450Y006287D02*
X077820Y006287D01*
X077820Y006189D02*
X078450Y006189D01*
X078450Y006090D02*
X077820Y006090D01*
X077820Y005992D02*
X078450Y005992D01*
X078450Y005893D02*
X077820Y005893D01*
X077820Y005795D02*
X078450Y005795D01*
X078450Y005696D02*
X077820Y005696D01*
X077820Y005598D02*
X078450Y005598D01*
X078923Y004613D02*
X079377Y004613D01*
X079279Y004514D02*
X079021Y004514D01*
X079120Y004416D02*
X079180Y004416D01*
X079923Y004613D02*
X080377Y004613D01*
X080279Y004514D02*
X080021Y004514D01*
X080120Y004416D02*
X080180Y004416D01*
X077620Y004120D02*
X077620Y011160D01*
X076790Y011990D01*
X073680Y011990D01*
X073330Y012000D02*
X059003Y012000D01*
X059101Y012099D02*
X073346Y012099D01*
X073392Y012197D02*
X059200Y012197D01*
X059298Y012296D02*
X073503Y012296D01*
X073338Y011902D02*
X070131Y011902D01*
X070230Y011803D02*
X073379Y011803D01*
X074000Y011650D02*
X074000Y011250D01*
X069460Y006710D01*
X069460Y006500D01*
X067717Y006450D02*
X067650Y006450D01*
X067522Y006397D01*
X067475Y006350D01*
X064233Y006350D01*
X066025Y008142D01*
X067717Y006450D01*
X067683Y006484D02*
X064367Y006484D01*
X064465Y006583D02*
X067585Y006583D01*
X067486Y006681D02*
X064564Y006681D01*
X064662Y006780D02*
X067388Y006780D01*
X067289Y006878D02*
X064761Y006878D01*
X064859Y006977D02*
X067191Y006977D01*
X067092Y007075D02*
X064958Y007075D01*
X065056Y007174D02*
X066994Y007174D01*
X066895Y007272D02*
X065155Y007272D01*
X065253Y007371D02*
X066797Y007371D01*
X066698Y007469D02*
X065352Y007469D01*
X065450Y007568D02*
X066600Y007568D01*
X066501Y007666D02*
X065549Y007666D01*
X065647Y007765D02*
X066403Y007765D01*
X066304Y007863D02*
X065746Y007863D01*
X065844Y007962D02*
X066206Y007962D01*
X066107Y008060D02*
X065943Y008060D01*
X065137Y008257D02*
X064610Y008257D01*
X064708Y008356D02*
X065236Y008356D01*
X065334Y008454D02*
X064807Y008454D01*
X064905Y008553D02*
X065433Y008553D01*
X065532Y008651D02*
X065004Y008651D01*
X065102Y008750D02*
X065630Y008750D01*
X065729Y008848D02*
X065201Y008848D01*
X065299Y008947D02*
X065828Y008947D01*
X065926Y009045D02*
X065398Y009045D01*
X065496Y009144D02*
X066025Y009144D01*
X066124Y009242D02*
X065595Y009242D01*
X065693Y009341D02*
X065875Y009341D01*
X065798Y009439D02*
X065792Y009439D01*
X066110Y009600D02*
X066770Y010260D01*
X066367Y010580D02*
X063917Y008130D01*
X059913Y008130D01*
X059930Y008170D01*
X059930Y008310D01*
X059877Y008438D01*
X059778Y008537D01*
X059650Y008590D01*
X059510Y008590D01*
X059382Y008537D01*
X059369Y008524D01*
X059267Y008626D01*
X059308Y008643D01*
X059405Y008740D01*
X064143Y008740D01*
X064260Y008857D01*
X065983Y010580D01*
X066367Y010580D01*
X066310Y010523D02*
X065925Y010523D01*
X065827Y010424D02*
X066211Y010424D01*
X066113Y010326D02*
X065728Y010326D01*
X065630Y010227D02*
X066014Y010227D01*
X065916Y010129D02*
X065531Y010129D01*
X065433Y010030D02*
X065817Y010030D01*
X065719Y009932D02*
X065334Y009932D01*
X065236Y009833D02*
X065620Y009833D01*
X065522Y009735D02*
X065137Y009735D01*
X065039Y009636D02*
X065423Y009636D01*
X065325Y009538D02*
X064940Y009538D01*
X064842Y009439D02*
X065226Y009439D01*
X065128Y009341D02*
X064743Y009341D01*
X064645Y009242D02*
X065029Y009242D01*
X064931Y009144D02*
X064546Y009144D01*
X064448Y009045D02*
X064832Y009045D01*
X064734Y008947D02*
X064349Y008947D01*
X064251Y008848D02*
X064635Y008848D01*
X064537Y008750D02*
X064152Y008750D01*
X064340Y008553D02*
X059740Y008553D01*
X059861Y008454D02*
X064241Y008454D01*
X064143Y008356D02*
X059911Y008356D01*
X059930Y008257D02*
X064044Y008257D01*
X063946Y008159D02*
X059925Y008159D01*
X059580Y008240D02*
X059370Y008240D01*
X058260Y009350D01*
X057450Y009350D01*
X057140Y009950D02*
X058770Y011580D01*
X068330Y011580D01*
X068480Y011430D01*
X065704Y012591D02*
X084000Y012591D01*
X084000Y012493D02*
X065605Y012493D01*
X065802Y012690D02*
X084000Y012690D01*
X084000Y012788D02*
X065901Y012788D01*
X065999Y012887D02*
X084000Y012887D01*
X084000Y012985D02*
X066098Y012985D01*
X066196Y013084D02*
X084000Y013084D01*
X084000Y013182D02*
X066295Y013182D01*
X066350Y013281D02*
X084000Y013281D01*
X084000Y013379D02*
X066350Y013379D01*
X066350Y013478D02*
X084000Y013478D01*
X084000Y013576D02*
X066350Y013576D01*
X058371Y012394D02*
X056951Y012394D01*
X057007Y012296D02*
X058273Y012296D01*
X058174Y012197D02*
X057030Y012197D01*
X057029Y012099D02*
X058076Y012099D01*
X057977Y012000D02*
X056988Y012000D01*
X056906Y011902D02*
X057879Y011902D01*
X056454Y011902D02*
X047684Y011902D01*
X048850Y013281D02*
X051450Y013281D01*
X051450Y013379D02*
X048850Y013379D01*
X048850Y013478D02*
X051450Y013478D01*
X051450Y013576D02*
X048850Y013576D01*
X048850Y013675D02*
X051450Y013675D01*
X051450Y013773D02*
X048850Y013773D01*
X048850Y013872D02*
X051450Y013872D01*
X051450Y013970D02*
X051253Y013970D01*
X051350Y014069D02*
X051450Y014069D01*
X051450Y014167D02*
X051350Y014167D01*
X051350Y014266D02*
X051450Y014266D01*
X051450Y014364D02*
X051350Y014364D01*
X051350Y014463D02*
X051450Y014463D01*
X051450Y014561D02*
X051350Y014561D01*
X051350Y014660D02*
X051450Y014660D01*
X051450Y014758D02*
X051350Y014758D01*
X051350Y014857D02*
X051450Y014857D01*
X051450Y014955D02*
X051350Y014955D01*
X051350Y015054D02*
X051450Y015054D01*
X051450Y015152D02*
X051350Y015152D01*
X051350Y015251D02*
X051450Y015251D01*
X051450Y015349D02*
X051350Y015349D01*
X051350Y015448D02*
X051450Y015448D01*
X051450Y015546D02*
X051350Y015546D01*
X051350Y015645D02*
X051450Y015645D01*
X051450Y015743D02*
X051350Y015743D01*
X051350Y015842D02*
X051450Y015842D01*
X051450Y015940D02*
X051350Y015940D01*
X051350Y016039D02*
X051450Y016039D01*
X051450Y016137D02*
X051350Y016137D01*
X051350Y016236D02*
X051453Y016236D01*
X051551Y016334D02*
X051350Y016334D01*
X051350Y016433D02*
X051650Y016433D01*
X051748Y016531D02*
X051350Y016531D01*
X051350Y016630D02*
X051847Y016630D01*
X051945Y016728D02*
X051350Y016728D01*
X051350Y016827D02*
X052044Y016827D01*
X052142Y016925D02*
X051350Y016925D01*
X051350Y017024D02*
X052241Y017024D01*
X052339Y017122D02*
X051350Y017122D01*
X051350Y017221D02*
X052438Y017221D01*
X052450Y017319D02*
X051264Y017319D01*
X051165Y017418D02*
X052450Y017418D01*
X052450Y017516D02*
X051067Y017516D01*
X050968Y017615D02*
X051173Y017615D01*
X051188Y017600D02*
X051100Y017688D01*
X051100Y018612D01*
X051188Y018700D01*
X052112Y018700D01*
X052200Y018612D01*
X052200Y017688D01*
X052112Y017600D01*
X051188Y017600D01*
X051100Y017713D02*
X050870Y017713D01*
X050850Y017812D02*
X051100Y017812D01*
X051100Y017910D02*
X050850Y017910D01*
X050850Y018009D02*
X051100Y018009D01*
X051100Y018107D02*
X050850Y018107D01*
X050850Y018206D02*
X051100Y018206D01*
X051100Y018304D02*
X050850Y018304D01*
X050850Y018403D02*
X051100Y018403D01*
X051100Y018501D02*
X050850Y018501D01*
X050882Y018600D02*
X051100Y018600D01*
X051186Y018698D02*
X050981Y018698D01*
X051079Y018797D02*
X053014Y018797D01*
X052915Y018698D02*
X052114Y018698D01*
X052200Y018600D02*
X052817Y018600D01*
X052718Y018501D02*
X052200Y018501D01*
X052200Y018403D02*
X052620Y018403D01*
X052521Y018304D02*
X052200Y018304D01*
X052200Y018206D02*
X052450Y018206D01*
X052450Y018107D02*
X052200Y018107D01*
X052200Y018009D02*
X052450Y018009D01*
X052450Y017910D02*
X052200Y017910D01*
X052200Y017812D02*
X052450Y017812D01*
X052450Y017713D02*
X052200Y017713D01*
X052127Y017615D02*
X052450Y017615D01*
X052706Y018206D02*
X053070Y018206D01*
X053090Y018304D02*
X052804Y018304D01*
X052903Y018403D02*
X053130Y018403D01*
X053194Y018501D02*
X053001Y018501D01*
X053100Y018600D02*
X053302Y018600D01*
X053935Y018600D02*
X054200Y018600D01*
X054299Y018501D02*
X054043Y018501D01*
X054107Y018403D02*
X054397Y018403D01*
X054496Y018304D02*
X054147Y018304D01*
X054167Y018206D02*
X054594Y018206D01*
X054779Y018304D02*
X054950Y018304D01*
X054950Y018206D02*
X054850Y018206D01*
X054850Y018107D02*
X054950Y018107D01*
X054950Y018009D02*
X054850Y018009D01*
X054850Y017910D02*
X054950Y017910D01*
X054950Y017812D02*
X054850Y017812D01*
X053669Y017812D02*
X053569Y017812D01*
X053569Y017910D02*
X053669Y017910D01*
X053669Y017713D02*
X053569Y017713D01*
X054582Y018501D02*
X054950Y018501D01*
X054950Y018403D02*
X054680Y018403D01*
X054483Y018600D02*
X054950Y018600D01*
X054950Y018698D02*
X054385Y018698D01*
X054286Y018797D02*
X054950Y018797D01*
X054950Y018895D02*
X051178Y018895D01*
X050994Y018994D02*
X049150Y018994D01*
X049150Y019092D02*
X051092Y019092D01*
X050895Y018895D02*
X049150Y018895D01*
X049150Y018797D02*
X050797Y018797D01*
X050698Y018698D02*
X049150Y018698D01*
X049150Y018600D02*
X050650Y018600D01*
X050650Y018501D02*
X049150Y018501D01*
X049150Y018403D02*
X050650Y018403D01*
X050650Y018304D02*
X049150Y018304D01*
X049150Y018206D02*
X050650Y018206D01*
X050650Y018107D02*
X049150Y018107D01*
X049150Y018009D02*
X050650Y018009D01*
X050650Y017910D02*
X049150Y017910D01*
X049150Y017812D02*
X050650Y017812D01*
X050650Y017713D02*
X049150Y017713D01*
X049150Y017615D02*
X050685Y017615D01*
X050784Y017516D02*
X049150Y017516D01*
X049150Y017418D02*
X050882Y017418D01*
X050981Y017319D02*
X049150Y017319D01*
X049150Y017221D02*
X051079Y017221D01*
X051150Y017122D02*
X049150Y017122D01*
X049150Y017024D02*
X051150Y017024D01*
X051150Y016925D02*
X049150Y016925D01*
X049150Y016827D02*
X051150Y016827D01*
X051150Y016728D02*
X049150Y016728D01*
X049150Y016630D02*
X051150Y016630D01*
X051150Y016531D02*
X049150Y016531D01*
X049150Y016433D02*
X051150Y016433D01*
X051150Y016334D02*
X049150Y016334D01*
X049150Y016236D02*
X051150Y016236D01*
X051150Y016137D02*
X049150Y016137D01*
X049150Y016039D02*
X051150Y016039D01*
X051150Y015940D02*
X049150Y015940D01*
X049150Y015842D02*
X051150Y015842D01*
X051150Y015743D02*
X049150Y015743D01*
X049150Y015645D02*
X051150Y015645D01*
X051150Y015546D02*
X049150Y015546D01*
X049150Y015448D02*
X051150Y015448D01*
X051150Y015349D02*
X049150Y015349D01*
X049150Y015251D02*
X051150Y015251D01*
X051150Y015152D02*
X049150Y015152D01*
X049150Y015054D02*
X051150Y015054D01*
X051150Y014955D02*
X049150Y014955D01*
X049150Y014857D02*
X051150Y014857D01*
X051150Y014758D02*
X049150Y014758D01*
X049150Y014660D02*
X051150Y014660D01*
X051150Y014561D02*
X049150Y014561D01*
X049150Y014463D02*
X051150Y014463D01*
X051150Y014364D02*
X049150Y014364D01*
X049150Y014266D02*
X051150Y014266D01*
X051150Y014167D02*
X049150Y014167D01*
X048950Y014167D02*
X048850Y014167D01*
X048850Y014069D02*
X048950Y014069D01*
X049047Y013970D02*
X048850Y013970D01*
X048650Y014069D02*
X045650Y014069D01*
X045650Y014167D02*
X048650Y014167D01*
X048650Y014266D02*
X045650Y014266D01*
X045650Y014364D02*
X048650Y014364D01*
X048650Y014463D02*
X045650Y014463D01*
X045650Y014561D02*
X048650Y014561D01*
X048650Y014660D02*
X045650Y014660D01*
X045650Y014758D02*
X048650Y014758D01*
X048650Y014857D02*
X045650Y014857D01*
X045650Y014955D02*
X048650Y014955D01*
X048650Y015054D02*
X045650Y015054D01*
X045650Y015152D02*
X048650Y015152D01*
X048650Y015251D02*
X045650Y015251D01*
X045650Y015349D02*
X048650Y015349D01*
X048650Y015448D02*
X045650Y015448D01*
X045650Y015546D02*
X048650Y015546D01*
X048650Y015645D02*
X045650Y015645D01*
X045650Y015743D02*
X048650Y015743D01*
X048650Y015842D02*
X045650Y015842D01*
X045650Y015940D02*
X048650Y015940D01*
X048650Y016039D02*
X045650Y016039D01*
X045650Y016137D02*
X048650Y016137D01*
X048650Y016236D02*
X045736Y016236D01*
X045834Y016334D02*
X048650Y016334D01*
X048650Y016433D02*
X045933Y016433D01*
X046031Y016531D02*
X048650Y016531D01*
X048650Y016630D02*
X046130Y016630D01*
X046228Y016728D02*
X048650Y016728D01*
X048650Y016827D02*
X046327Y016827D01*
X046425Y016925D02*
X048650Y016925D01*
X048650Y017024D02*
X046524Y017024D01*
X046622Y017122D02*
X048650Y017122D01*
X048650Y017221D02*
X046650Y017221D01*
X046650Y017319D02*
X048650Y017319D01*
X048650Y017418D02*
X046650Y017418D01*
X046650Y017516D02*
X048650Y017516D01*
X048650Y017615D02*
X047750Y017615D01*
X047747Y017614D02*
X047830Y017640D01*
X047907Y017680D01*
X047977Y017730D01*
X048038Y017792D01*
X048089Y017862D01*
X048128Y017939D01*
X048155Y018021D01*
X048167Y018100D01*
X047669Y018100D01*
X047669Y017601D01*
X047747Y017614D01*
X047669Y017615D02*
X047569Y017615D01*
X047487Y017615D02*
X046650Y017615D01*
X046650Y017713D02*
X047284Y017713D01*
X047185Y017812D02*
X046650Y017812D01*
X046650Y017910D02*
X047123Y017910D01*
X047086Y018009D02*
X046650Y018009D01*
X046650Y018107D02*
X047568Y018107D01*
X047569Y018009D02*
X047669Y018009D01*
X047669Y018107D02*
X048650Y018107D01*
X048650Y018009D02*
X048151Y018009D01*
X048114Y017910D02*
X048650Y017910D01*
X048650Y017812D02*
X048052Y017812D01*
X047953Y017713D02*
X048650Y017713D01*
X048850Y017713D02*
X048950Y017713D01*
X048950Y017615D02*
X048850Y017615D01*
X048850Y017516D02*
X048950Y017516D01*
X048950Y017418D02*
X048850Y017418D01*
X048850Y017319D02*
X048950Y017319D01*
X048950Y017221D02*
X048850Y017221D01*
X048850Y017122D02*
X048950Y017122D01*
X048950Y017024D02*
X048850Y017024D01*
X048850Y016925D02*
X048950Y016925D01*
X048950Y016827D02*
X048850Y016827D01*
X048850Y016728D02*
X048950Y016728D01*
X048950Y016630D02*
X048850Y016630D01*
X048850Y016531D02*
X048950Y016531D01*
X048950Y016433D02*
X048850Y016433D01*
X048850Y016334D02*
X048950Y016334D01*
X048950Y016236D02*
X048850Y016236D01*
X048850Y016137D02*
X048950Y016137D01*
X048950Y016039D02*
X048850Y016039D01*
X048850Y015940D02*
X048950Y015940D01*
X048950Y015842D02*
X048850Y015842D01*
X048850Y015743D02*
X048950Y015743D01*
X048950Y015645D02*
X048850Y015645D01*
X048850Y015546D02*
X048950Y015546D01*
X048950Y015448D02*
X048850Y015448D01*
X048850Y015349D02*
X048950Y015349D01*
X048950Y015251D02*
X048850Y015251D01*
X048850Y015152D02*
X048950Y015152D01*
X048950Y015054D02*
X048850Y015054D01*
X048850Y014955D02*
X048950Y014955D01*
X048950Y014857D02*
X048850Y014857D01*
X048850Y014758D02*
X048950Y014758D01*
X048950Y014660D02*
X048850Y014660D01*
X048850Y014561D02*
X048950Y014561D01*
X048950Y014463D02*
X048850Y014463D01*
X048850Y014364D02*
X048950Y014364D01*
X048950Y014266D02*
X048850Y014266D01*
X045450Y014266D02*
X045350Y014266D01*
X045350Y014364D02*
X045450Y014364D01*
X045450Y014463D02*
X045350Y014463D01*
X045350Y014561D02*
X045450Y014561D01*
X045450Y014660D02*
X045350Y014660D01*
X045350Y014758D02*
X045450Y014758D01*
X045450Y014857D02*
X045350Y014857D01*
X045350Y014955D02*
X045450Y014955D01*
X045450Y015054D02*
X045350Y015054D01*
X045350Y015152D02*
X045450Y015152D01*
X045450Y015251D02*
X045350Y015251D01*
X045350Y015349D02*
X045450Y015349D01*
X045450Y015448D02*
X045350Y015448D01*
X045350Y015546D02*
X045450Y015546D01*
X045450Y015645D02*
X045350Y015645D01*
X045350Y015743D02*
X045450Y015743D01*
X045450Y015842D02*
X045350Y015842D01*
X045350Y015940D02*
X045450Y015940D01*
X045450Y016039D02*
X045350Y016039D01*
X045350Y016137D02*
X045450Y016137D01*
X045453Y016236D02*
X045350Y016236D01*
X045350Y016334D02*
X045551Y016334D01*
X045650Y016433D02*
X045350Y016433D01*
X045350Y016531D02*
X045748Y016531D01*
X045847Y016630D02*
X045350Y016630D01*
X045350Y016728D02*
X045945Y016728D01*
X046044Y016827D02*
X045350Y016827D01*
X045350Y016925D02*
X046142Y016925D01*
X046241Y017024D02*
X045350Y017024D01*
X045350Y017122D02*
X046339Y017122D01*
X046438Y017221D02*
X045350Y017221D01*
X045264Y017319D02*
X046450Y017319D01*
X046450Y017418D02*
X045165Y017418D01*
X045067Y017516D02*
X046450Y017516D01*
X046450Y017615D02*
X046127Y017615D01*
X046112Y017600D02*
X046200Y017688D01*
X046200Y018612D01*
X046112Y018700D01*
X045188Y018700D01*
X045100Y018612D01*
X045100Y017688D01*
X045188Y017600D01*
X046112Y017600D01*
X046200Y017713D02*
X046450Y017713D01*
X046450Y017812D02*
X046200Y017812D01*
X046200Y017910D02*
X046450Y017910D01*
X046450Y018009D02*
X046200Y018009D01*
X046200Y018107D02*
X046450Y018107D01*
X046450Y018206D02*
X046200Y018206D01*
X046200Y018304D02*
X046521Y018304D01*
X046620Y018403D02*
X046200Y018403D01*
X046200Y018501D02*
X046718Y018501D01*
X046817Y018600D02*
X046200Y018600D01*
X046114Y018698D02*
X046915Y018698D01*
X047014Y018797D02*
X045079Y018797D01*
X045178Y018895D02*
X048950Y018895D01*
X048950Y018797D02*
X048286Y018797D01*
X048350Y018733D02*
X048350Y018733D01*
X048385Y018698D02*
X048950Y018698D01*
X048950Y018600D02*
X048483Y018600D01*
X048582Y018501D02*
X048950Y018501D01*
X048950Y018403D02*
X048680Y018403D01*
X048779Y018304D02*
X048950Y018304D01*
X048950Y018206D02*
X048850Y018206D01*
X048850Y018107D02*
X048950Y018107D01*
X048950Y018009D02*
X048850Y018009D01*
X048850Y017910D02*
X048950Y017910D01*
X048950Y017812D02*
X048850Y017812D01*
X047669Y017812D02*
X047569Y017812D01*
X047569Y017910D02*
X047669Y017910D01*
X047669Y017713D02*
X047569Y017713D01*
X047070Y018206D02*
X046706Y018206D01*
X046804Y018304D02*
X047090Y018304D01*
X047130Y018403D02*
X046903Y018403D01*
X047001Y018501D02*
X047194Y018501D01*
X047100Y018600D02*
X047302Y018600D01*
X047935Y018600D02*
X048200Y018600D01*
X048299Y018501D02*
X048043Y018501D01*
X048107Y018403D02*
X048397Y018403D01*
X048496Y018304D02*
X048147Y018304D01*
X048167Y018206D02*
X048594Y018206D01*
X045186Y018698D02*
X044981Y018698D01*
X044882Y018600D02*
X045100Y018600D01*
X045100Y018501D02*
X044850Y018501D01*
X044850Y018403D02*
X045100Y018403D01*
X045100Y018304D02*
X044850Y018304D01*
X044850Y018206D02*
X045100Y018206D01*
X045100Y018107D02*
X044850Y018107D01*
X044850Y018009D02*
X045100Y018009D01*
X045100Y017910D02*
X044850Y017910D01*
X044850Y017812D02*
X045100Y017812D01*
X045100Y017713D02*
X044870Y017713D01*
X044968Y017615D02*
X045173Y017615D01*
X044685Y017615D02*
X043150Y017615D01*
X043150Y017713D02*
X044650Y017713D01*
X044650Y017812D02*
X043150Y017812D01*
X043150Y017910D02*
X044650Y017910D01*
X044650Y018009D02*
X043150Y018009D01*
X043150Y018107D02*
X044650Y018107D01*
X044650Y018206D02*
X043150Y018206D01*
X043150Y018304D02*
X044650Y018304D01*
X044650Y018403D02*
X043150Y018403D01*
X043150Y018501D02*
X044650Y018501D01*
X044650Y018600D02*
X043150Y018600D01*
X043150Y018698D02*
X044698Y018698D01*
X044797Y018797D02*
X043150Y018797D01*
X043150Y018895D02*
X044895Y018895D01*
X044994Y018994D02*
X043150Y018994D01*
X043150Y019092D02*
X045092Y019092D01*
X034956Y018600D02*
X034234Y018600D01*
X034333Y018501D02*
X034857Y018501D01*
X034793Y018403D02*
X034397Y018403D01*
X034437Y018304D02*
X034752Y018304D01*
X034734Y018206D02*
X034456Y018206D01*
X034456Y018107D02*
X034734Y018107D01*
X034747Y018009D02*
X034443Y018009D01*
X034402Y017910D02*
X034788Y017910D01*
X034845Y017812D02*
X034345Y017812D01*
X034247Y017713D02*
X034943Y017713D01*
X033565Y017713D02*
X032869Y017713D01*
X032967Y017812D02*
X033467Y017812D01*
X033410Y017910D02*
X033024Y017910D01*
X033065Y018009D02*
X033369Y018009D01*
X033356Y018107D02*
X033078Y018107D01*
X033078Y018206D02*
X033356Y018206D01*
X033374Y018304D02*
X033059Y018304D01*
X033019Y018403D02*
X033415Y018403D01*
X033479Y018501D02*
X032955Y018501D01*
X032856Y018600D02*
X033578Y018600D01*
X030686Y018698D02*
X026898Y018698D01*
X026893Y018700D02*
X026674Y018700D01*
X026472Y018616D01*
X026318Y018462D01*
X026234Y018259D01*
X026234Y018041D01*
X026318Y017838D01*
X026472Y017684D01*
X026674Y017600D01*
X026893Y017600D01*
X027095Y017684D01*
X027250Y017838D01*
X027334Y018041D01*
X027334Y018259D01*
X027250Y018462D01*
X027095Y018616D01*
X026893Y018700D01*
X026670Y018698D02*
X025520Y018698D01*
X025515Y018700D02*
X025297Y018700D01*
X025094Y018616D01*
X024940Y018462D01*
X024856Y018259D01*
X024856Y018041D01*
X024940Y017838D01*
X025094Y017684D01*
X025297Y017600D01*
X025515Y017600D01*
X025717Y017684D01*
X025872Y017838D01*
X025956Y018041D01*
X025956Y018259D01*
X025872Y018462D01*
X025717Y018616D01*
X025515Y018700D01*
X025292Y018698D02*
X024142Y018698D01*
X024137Y018700D02*
X023919Y018700D01*
X023716Y018616D01*
X023562Y018462D01*
X023478Y018259D01*
X023478Y018041D01*
X023562Y017838D01*
X023716Y017684D01*
X023919Y017600D01*
X024137Y017600D01*
X024340Y017684D01*
X024494Y017838D01*
X024578Y018041D01*
X024578Y018259D01*
X024494Y018462D01*
X024340Y018616D01*
X024137Y018700D01*
X023914Y018698D02*
X023114Y018698D01*
X023112Y018700D02*
X022188Y018700D01*
X022100Y018612D01*
X022100Y017688D01*
X022188Y017600D01*
X023112Y017600D01*
X023200Y017688D01*
X023200Y018612D01*
X023112Y018700D01*
X023200Y018600D02*
X023700Y018600D01*
X023601Y018501D02*
X023200Y018501D01*
X023200Y018403D02*
X023537Y018403D01*
X023496Y018304D02*
X023200Y018304D01*
X023200Y018206D02*
X023478Y018206D01*
X023478Y018107D02*
X023200Y018107D01*
X023200Y018009D02*
X023491Y018009D01*
X023532Y017910D02*
X023200Y017910D01*
X023200Y017812D02*
X023589Y017812D01*
X023687Y017713D02*
X023200Y017713D01*
X023127Y017615D02*
X023883Y017615D01*
X024172Y017615D02*
X025261Y017615D01*
X025065Y017713D02*
X024369Y017713D01*
X024467Y017812D02*
X024967Y017812D01*
X024910Y017910D02*
X024524Y017910D01*
X024565Y018009D02*
X024869Y018009D01*
X024856Y018107D02*
X024578Y018107D01*
X024578Y018206D02*
X024856Y018206D01*
X024874Y018304D02*
X024559Y018304D01*
X024519Y018403D02*
X024915Y018403D01*
X024979Y018501D02*
X024455Y018501D01*
X024356Y018600D02*
X025078Y018600D01*
X025734Y018600D02*
X026456Y018600D01*
X026357Y018501D02*
X025833Y018501D01*
X025897Y018403D02*
X026293Y018403D01*
X026252Y018304D02*
X025937Y018304D01*
X025956Y018206D02*
X026234Y018206D01*
X026234Y018107D02*
X025956Y018107D01*
X025943Y018009D02*
X026247Y018009D01*
X026288Y017910D02*
X025902Y017910D01*
X025845Y017812D02*
X026345Y017812D01*
X026443Y017713D02*
X025747Y017713D01*
X025550Y017615D02*
X026639Y017615D01*
X026928Y017615D02*
X030673Y017615D01*
X030600Y017713D02*
X027125Y017713D01*
X027223Y017812D02*
X030600Y017812D01*
X030600Y017910D02*
X027280Y017910D01*
X027321Y018009D02*
X030600Y018009D01*
X030600Y018107D02*
X027334Y018107D01*
X027334Y018206D02*
X030600Y018206D01*
X030600Y018304D02*
X027315Y018304D01*
X027275Y018403D02*
X030600Y018403D01*
X030600Y018501D02*
X027211Y018501D01*
X027112Y018600D02*
X030600Y018600D01*
X022186Y018698D02*
X018398Y018698D01*
X018393Y018700D02*
X018174Y018700D01*
X017972Y018616D01*
X017818Y018462D01*
X017734Y018259D01*
X017734Y018041D01*
X017818Y017838D01*
X017972Y017684D01*
X018174Y017600D01*
X018393Y017600D01*
X018595Y017684D01*
X018750Y017838D01*
X018834Y018041D01*
X018834Y018259D01*
X018750Y018462D01*
X018595Y018616D01*
X018393Y018700D01*
X018170Y018698D02*
X017020Y018698D01*
X017015Y018700D02*
X016797Y018700D01*
X016594Y018616D01*
X016440Y018462D01*
X016356Y018259D01*
X016356Y018041D01*
X016440Y017838D01*
X016594Y017684D01*
X016797Y017600D01*
X017015Y017600D01*
X017217Y017684D01*
X017372Y017838D01*
X017456Y018041D01*
X017456Y018259D01*
X017372Y018462D01*
X017217Y018616D01*
X017015Y018700D01*
X016792Y018698D02*
X015642Y018698D01*
X015637Y018700D02*
X015419Y018700D01*
X015216Y018616D01*
X015062Y018462D01*
X014978Y018259D01*
X014978Y018041D01*
X015062Y017838D01*
X015216Y017684D01*
X015419Y017600D01*
X015637Y017600D01*
X015840Y017684D01*
X015994Y017838D01*
X016078Y018041D01*
X016078Y018259D01*
X015994Y018462D01*
X015840Y018616D01*
X015637Y018700D01*
X015414Y018698D02*
X014614Y018698D01*
X014612Y018700D02*
X013688Y018700D01*
X013600Y018612D01*
X013600Y017688D01*
X013688Y017600D01*
X014612Y017600D01*
X014700Y017688D01*
X014700Y018612D01*
X014612Y018700D01*
X014700Y018600D02*
X015200Y018600D01*
X015101Y018501D02*
X014700Y018501D01*
X014700Y018403D02*
X015037Y018403D01*
X014996Y018304D02*
X014700Y018304D01*
X014700Y018206D02*
X014978Y018206D01*
X014978Y018107D02*
X014700Y018107D01*
X014700Y018009D02*
X014991Y018009D01*
X015032Y017910D02*
X014700Y017910D01*
X014700Y017812D02*
X015089Y017812D01*
X015187Y017713D02*
X014700Y017713D01*
X014627Y017615D02*
X015383Y017615D01*
X015672Y017615D02*
X016761Y017615D01*
X016565Y017713D02*
X015869Y017713D01*
X015967Y017812D02*
X016467Y017812D01*
X016410Y017910D02*
X016024Y017910D01*
X016065Y018009D02*
X016369Y018009D01*
X016356Y018107D02*
X016078Y018107D01*
X016078Y018206D02*
X016356Y018206D01*
X016374Y018304D02*
X016059Y018304D01*
X016019Y018403D02*
X016415Y018403D01*
X016479Y018501D02*
X015955Y018501D01*
X015856Y018600D02*
X016578Y018600D01*
X017234Y018600D02*
X017956Y018600D01*
X017857Y018501D02*
X017333Y018501D01*
X017397Y018403D02*
X017793Y018403D01*
X017752Y018304D02*
X017437Y018304D01*
X017456Y018206D02*
X017734Y018206D01*
X017734Y018107D02*
X017456Y018107D01*
X017443Y018009D02*
X017747Y018009D01*
X017788Y017910D02*
X017402Y017910D01*
X017345Y017812D02*
X017845Y017812D01*
X017943Y017713D02*
X017247Y017713D01*
X017050Y017615D02*
X018139Y017615D01*
X018428Y017615D02*
X022173Y017615D01*
X022100Y017713D02*
X018625Y017713D01*
X018723Y017812D02*
X022100Y017812D01*
X022100Y017910D02*
X018780Y017910D01*
X018821Y018009D02*
X022100Y018009D01*
X022100Y018107D02*
X018834Y018107D01*
X018834Y018206D02*
X022100Y018206D01*
X022100Y018304D02*
X018815Y018304D01*
X018775Y018403D02*
X022100Y018403D01*
X022100Y018501D02*
X018711Y018501D01*
X018612Y018600D02*
X022100Y018600D01*
X013686Y018698D02*
X009898Y018698D01*
X009893Y018700D02*
X009674Y018700D01*
X009472Y018616D01*
X009318Y018462D01*
X009234Y018259D01*
X009234Y018041D01*
X009318Y017838D01*
X009472Y017684D01*
X009674Y017600D01*
X009893Y017600D01*
X010095Y017684D01*
X010250Y017838D01*
X010334Y018041D01*
X010334Y018259D01*
X010250Y018462D01*
X010095Y018616D01*
X009893Y018700D01*
X009670Y018698D02*
X008520Y018698D01*
X008515Y018700D02*
X008297Y018700D01*
X008094Y018616D01*
X007940Y018462D01*
X007856Y018259D01*
X007856Y018041D01*
X007940Y017838D01*
X008094Y017684D01*
X008297Y017600D01*
X008515Y017600D01*
X008717Y017684D01*
X008872Y017838D01*
X008956Y018041D01*
X008956Y018259D01*
X008872Y018462D01*
X008717Y018616D01*
X008515Y018700D01*
X008292Y018698D02*
X007142Y018698D01*
X007137Y018700D02*
X006919Y018700D01*
X006716Y018616D01*
X006562Y018462D01*
X006478Y018259D01*
X006478Y018041D01*
X006562Y017838D01*
X006716Y017684D01*
X006919Y017600D01*
X007137Y017600D01*
X007340Y017684D01*
X007494Y017838D01*
X007578Y018041D01*
X007578Y018259D01*
X007494Y018462D01*
X007340Y018616D01*
X007137Y018700D01*
X006914Y018698D02*
X006114Y018698D01*
X006112Y018700D02*
X005188Y018700D01*
X005100Y018612D01*
X005100Y017688D01*
X005188Y017600D01*
X006112Y017600D01*
X006200Y017688D01*
X006200Y018612D01*
X006112Y018700D01*
X006200Y018600D02*
X006700Y018600D01*
X006601Y018501D02*
X006200Y018501D01*
X006200Y018403D02*
X006537Y018403D01*
X006496Y018304D02*
X006200Y018304D01*
X006200Y018206D02*
X006478Y018206D01*
X006478Y018107D02*
X006200Y018107D01*
X006200Y018009D02*
X006491Y018009D01*
X006532Y017910D02*
X006200Y017910D01*
X006200Y017812D02*
X006589Y017812D01*
X006687Y017713D02*
X006200Y017713D01*
X006127Y017615D02*
X006883Y017615D01*
X007172Y017615D02*
X008261Y017615D01*
X008065Y017713D02*
X007369Y017713D01*
X007467Y017812D02*
X007967Y017812D01*
X007910Y017910D02*
X007524Y017910D01*
X007565Y018009D02*
X007869Y018009D01*
X007856Y018107D02*
X007578Y018107D01*
X007578Y018206D02*
X007856Y018206D01*
X007874Y018304D02*
X007559Y018304D01*
X007519Y018403D02*
X007915Y018403D01*
X007979Y018501D02*
X007455Y018501D01*
X007356Y018600D02*
X008078Y018600D01*
X008734Y018600D02*
X009456Y018600D01*
X009357Y018501D02*
X008833Y018501D01*
X008897Y018403D02*
X009293Y018403D01*
X009252Y018304D02*
X008937Y018304D01*
X008956Y018206D02*
X009234Y018206D01*
X009234Y018107D02*
X008956Y018107D01*
X008943Y018009D02*
X009247Y018009D01*
X009288Y017910D02*
X008902Y017910D01*
X008845Y017812D02*
X009345Y017812D01*
X009443Y017713D02*
X008747Y017713D01*
X008550Y017615D02*
X009639Y017615D01*
X009928Y017615D02*
X013673Y017615D01*
X013600Y017713D02*
X010125Y017713D01*
X010223Y017812D02*
X013600Y017812D01*
X013600Y017910D02*
X010280Y017910D01*
X010321Y018009D02*
X013600Y018009D01*
X013600Y018107D02*
X010334Y018107D01*
X010334Y018206D02*
X013600Y018206D01*
X013600Y018304D02*
X010315Y018304D01*
X010275Y018403D02*
X013600Y018403D01*
X013600Y018501D02*
X010211Y018501D01*
X010112Y018600D02*
X013600Y018600D01*
X011524Y018994D02*
X002300Y018994D01*
X002300Y019092D02*
X011425Y019092D01*
X011327Y019191D02*
X002300Y019191D01*
X002300Y019289D02*
X011228Y019289D01*
X011130Y019388D02*
X002300Y019388D01*
X002300Y019486D02*
X011031Y019486D01*
X010950Y019585D02*
X002300Y019585D01*
X002300Y019683D02*
X010950Y019683D01*
X010950Y019782D02*
X002300Y019782D01*
X002300Y019880D02*
X010950Y019880D01*
X010950Y019979D02*
X002300Y019979D01*
X002300Y020077D02*
X010950Y020077D01*
X010950Y020176D02*
X002302Y020176D01*
X002308Y020274D02*
X010950Y020274D01*
X010950Y020373D02*
X002324Y020373D01*
X002350Y020471D02*
X010950Y020471D01*
X010950Y020570D02*
X002377Y020570D01*
X002404Y020668D02*
X010950Y020668D01*
X010950Y020767D02*
X002460Y020767D01*
X002517Y020865D02*
X010950Y020865D01*
X010950Y020964D02*
X002574Y020964D01*
X002669Y021062D02*
X010950Y021062D01*
X010950Y021161D02*
X002768Y021161D01*
X002894Y021259D02*
X010950Y021259D01*
X010950Y021358D02*
X003065Y021358D01*
X003353Y021456D02*
X010950Y021456D01*
X005186Y018698D02*
X002300Y018698D01*
X002300Y018600D02*
X005100Y018600D01*
X005100Y018501D02*
X002300Y018501D01*
X002300Y018403D02*
X005100Y018403D01*
X005100Y018304D02*
X002300Y018304D01*
X002300Y018206D02*
X005100Y018206D01*
X005100Y018107D02*
X002300Y018107D01*
X002300Y018009D02*
X005100Y018009D01*
X005100Y017910D02*
X002300Y017910D01*
X002300Y017812D02*
X005100Y017812D01*
X005100Y017713D02*
X002300Y017713D01*
X002300Y017615D02*
X005173Y017615D01*
X004862Y014758D02*
X002300Y014758D01*
X002300Y014660D02*
X004807Y014660D01*
X004782Y014561D02*
X002300Y014561D01*
X002300Y014463D02*
X004782Y014463D01*
X004818Y014364D02*
X002300Y014364D01*
X002300Y014266D02*
X004889Y014266D01*
X005052Y014167D02*
X002300Y014167D01*
X002300Y014069D02*
X009910Y014069D01*
X009907Y014167D02*
X008873Y014167D01*
X008677Y014167D02*
X006691Y014167D01*
X006496Y014167D02*
X005248Y014167D01*
X002300Y013970D02*
X009951Y013970D01*
X010033Y013872D02*
X002300Y013872D01*
X002300Y013773D02*
X018429Y013773D01*
X018407Y013872D02*
X010517Y013872D01*
X010599Y013970D02*
X018407Y013970D01*
X018480Y013675D02*
X002300Y013675D01*
X002300Y013576D02*
X018595Y013576D01*
X018955Y013576D02*
X021430Y013576D01*
X021441Y013587D02*
X021338Y013484D01*
X021282Y013348D01*
X021282Y013202D01*
X021338Y013066D01*
X021441Y012963D01*
X021577Y012907D01*
X021723Y012907D01*
X021859Y012963D01*
X021962Y013066D01*
X021966Y013075D01*
X022584Y013075D01*
X022588Y013066D01*
X022691Y012963D01*
X022827Y012907D01*
X022973Y012907D01*
X023109Y012963D01*
X023212Y013066D01*
X023268Y013202D01*
X023268Y013348D01*
X023212Y013484D01*
X023109Y013587D01*
X022973Y013643D01*
X022827Y013643D01*
X022691Y013587D01*
X022588Y013484D01*
X022584Y013475D01*
X021966Y013475D01*
X021962Y013484D01*
X021859Y013587D01*
X021723Y013643D01*
X021577Y013643D01*
X021441Y013587D01*
X021335Y013478D02*
X002300Y013478D01*
X002300Y013379D02*
X021295Y013379D01*
X021282Y013281D02*
X002300Y013281D01*
X002300Y013182D02*
X021290Y013182D01*
X021331Y013084D02*
X002300Y013084D01*
X002300Y012985D02*
X021419Y012985D01*
X021650Y013275D02*
X022900Y013275D01*
X023268Y013281D02*
X030782Y013281D01*
X030795Y013379D02*
X023255Y013379D01*
X023215Y013478D02*
X030835Y013478D01*
X030930Y013576D02*
X023120Y013576D01*
X022680Y013576D02*
X021870Y013576D01*
X021965Y013478D02*
X022585Y013478D01*
X023260Y013182D02*
X030790Y013182D01*
X030831Y013084D02*
X023219Y013084D01*
X023131Y012985D02*
X030919Y012985D01*
X030950Y012887D02*
X002300Y012887D01*
X002300Y012788D02*
X030950Y012788D01*
X030950Y012690D02*
X002300Y012690D01*
X002300Y010424D02*
X014075Y010424D01*
X014075Y010326D02*
X002300Y010326D01*
X002300Y010227D02*
X008853Y010227D01*
X008816Y010212D02*
X008713Y010109D01*
X008657Y009973D01*
X008657Y009827D01*
X008713Y009691D01*
X008816Y009588D01*
X008952Y009532D01*
X009098Y009532D01*
X009234Y009588D01*
X009337Y009691D01*
X009341Y009700D01*
X010075Y009700D01*
X010075Y007317D01*
X010192Y007200D01*
X011334Y007200D01*
X011338Y007191D01*
X011441Y007088D01*
X011577Y007032D01*
X011723Y007032D01*
X011859Y007088D01*
X011962Y007191D01*
X012018Y007327D01*
X012018Y007473D01*
X011962Y007609D01*
X011859Y007712D01*
X011723Y007768D01*
X011577Y007768D01*
X011441Y007712D01*
X011338Y007609D01*
X011334Y007600D01*
X010475Y007600D01*
X010475Y009983D01*
X010358Y010100D01*
X009341Y010100D01*
X009337Y010109D01*
X009234Y010212D01*
X009098Y010268D01*
X008952Y010268D01*
X008816Y010212D01*
X008733Y010129D02*
X002300Y010129D01*
X002300Y010030D02*
X008680Y010030D01*
X008657Y009932D02*
X002300Y009932D01*
X002300Y009833D02*
X007687Y009833D01*
X007691Y009837D02*
X007588Y009734D01*
X007532Y009598D01*
X007532Y009452D01*
X007588Y009316D01*
X007691Y009213D01*
X007825Y009158D01*
X007825Y008143D01*
X007702Y008143D01*
X007566Y008087D01*
X007463Y007984D01*
X007407Y007848D01*
X007407Y007702D01*
X007463Y007566D01*
X007566Y007463D01*
X007702Y007407D01*
X007848Y007407D01*
X007984Y007463D01*
X008087Y007566D01*
X008091Y007575D01*
X008108Y007575D01*
X008225Y007692D01*
X008225Y009348D01*
X008268Y009452D01*
X008268Y009598D01*
X008212Y009734D01*
X008109Y009837D01*
X007973Y009893D01*
X007827Y009893D01*
X007691Y009837D01*
X007589Y009735D02*
X002300Y009735D01*
X002300Y009636D02*
X007548Y009636D01*
X007532Y009538D02*
X002300Y009538D01*
X002300Y009439D02*
X007537Y009439D01*
X007578Y009341D02*
X002300Y009341D01*
X002300Y009242D02*
X007662Y009242D01*
X007825Y009144D02*
X002300Y009144D01*
X002300Y009045D02*
X007825Y009045D01*
X007825Y008947D02*
X002300Y008947D01*
X002300Y008848D02*
X007825Y008848D01*
X007825Y008750D02*
X002300Y008750D01*
X002300Y008651D02*
X007825Y008651D01*
X007825Y008553D02*
X002300Y008553D01*
X002300Y008454D02*
X007825Y008454D01*
X007825Y008356D02*
X002300Y008356D01*
X002300Y008257D02*
X007825Y008257D01*
X007825Y008159D02*
X002300Y008159D01*
X002300Y008060D02*
X007539Y008060D01*
X007454Y007962D02*
X002300Y007962D01*
X002300Y007863D02*
X007413Y007863D01*
X007407Y007765D02*
X002300Y007765D01*
X002300Y007666D02*
X007422Y007666D01*
X007463Y007568D02*
X002300Y007568D01*
X002300Y007469D02*
X007560Y007469D01*
X007775Y007775D02*
X008025Y007775D01*
X008025Y009525D01*
X007900Y009525D01*
X008268Y009538D02*
X008938Y009538D01*
X009112Y009538D02*
X010075Y009538D01*
X010075Y009636D02*
X009282Y009636D01*
X009025Y009900D02*
X010275Y009900D01*
X010275Y007400D01*
X011650Y007400D01*
X011905Y007666D02*
X014075Y007666D01*
X014075Y007568D02*
X011979Y007568D01*
X012018Y007469D02*
X014075Y007469D01*
X014075Y007371D02*
X012018Y007371D01*
X011995Y007272D02*
X014075Y007272D01*
X014075Y007174D02*
X011944Y007174D01*
X011827Y007075D02*
X014075Y007075D01*
X014075Y006977D02*
X002300Y006977D01*
X002300Y007075D02*
X011473Y007075D01*
X011356Y007174D02*
X002300Y007174D01*
X002300Y007272D02*
X010120Y007272D01*
X010075Y007371D02*
X002300Y007371D01*
X002300Y006878D02*
X014075Y006878D01*
X014075Y006780D02*
X002300Y006780D01*
X002300Y006681D02*
X014075Y006681D01*
X014075Y006583D02*
X002300Y006583D01*
X002300Y006484D02*
X014075Y006484D01*
X014075Y006386D02*
X002300Y006386D01*
X002300Y006287D02*
X014075Y006287D01*
X014075Y006189D02*
X011632Y006189D01*
X011168Y006189D02*
X002300Y006189D01*
X002300Y006090D02*
X011080Y006090D01*
X011039Y005992D02*
X002300Y005992D01*
X002300Y005893D02*
X011032Y005893D01*
X011012Y005795D02*
X002300Y005795D01*
X002300Y005696D02*
X010913Y005696D01*
X010815Y005598D02*
X002300Y005598D01*
X002300Y005499D02*
X010716Y005499D01*
X010618Y005401D02*
X002300Y005401D01*
X002300Y005302D02*
X010519Y005302D01*
X010421Y005204D02*
X008367Y005204D01*
X008464Y005105D02*
X010322Y005105D01*
X010592Y004810D02*
X027675Y004810D01*
X027577Y004908D02*
X010691Y004908D01*
X010789Y005007D02*
X027478Y005007D01*
X027380Y005105D02*
X010888Y005105D01*
X010986Y005204D02*
X027281Y005204D01*
X027183Y005302D02*
X011085Y005302D01*
X011183Y005401D02*
X027084Y005401D01*
X026903Y005499D02*
X011282Y005499D01*
X011618Y005598D02*
X026824Y005598D01*
X026783Y005696D02*
X011714Y005696D01*
X014275Y005900D02*
X019400Y005900D01*
X019775Y006275D01*
X026275Y006275D01*
X026525Y006525D01*
X026570Y006287D02*
X030950Y006287D01*
X030950Y006189D02*
X026471Y006189D01*
X026373Y006090D02*
X026950Y006090D01*
X026846Y005992D02*
X020012Y005992D01*
X019676Y005893D02*
X026800Y005893D01*
X026781Y005795D02*
X019577Y005795D01*
X019406Y006189D02*
X014475Y006189D01*
X014475Y006287D02*
X019407Y006287D01*
X019407Y006348D02*
X019463Y006484D01*
X019562Y006583D02*
X014475Y006583D01*
X016400Y007025D02*
X016650Y007775D01*
X016650Y009775D01*
X016991Y009636D02*
X024950Y009636D01*
X024950Y009538D02*
X016933Y009538D01*
X016850Y009439D02*
X024950Y009439D01*
X024950Y009341D02*
X016850Y009341D01*
X016850Y009242D02*
X019889Y009242D01*
X019952Y009268D02*
X019816Y009212D01*
X019713Y009109D01*
X019657Y008973D01*
X019657Y008940D01*
X019232Y008515D01*
X019223Y008518D01*
X019077Y008518D01*
X018941Y008462D01*
X018838Y008359D01*
X018782Y008223D01*
X018782Y008077D01*
X018838Y007941D01*
X018941Y007838D01*
X019077Y007782D01*
X019223Y007782D01*
X019359Y007838D01*
X019462Y007941D01*
X019518Y008077D01*
X019518Y008223D01*
X019515Y008232D01*
X019855Y008572D01*
X019952Y008532D01*
X020098Y008532D01*
X020234Y008588D01*
X020337Y008691D01*
X020393Y008827D01*
X020393Y008973D01*
X020337Y009109D01*
X020234Y009212D01*
X020098Y009268D01*
X019952Y009268D01*
X020161Y009242D02*
X024950Y009242D01*
X024950Y009144D02*
X020302Y009144D01*
X020363Y009045D02*
X024950Y009045D01*
X024950Y008947D02*
X020393Y008947D01*
X020393Y008848D02*
X024950Y008848D01*
X024950Y008750D02*
X020361Y008750D01*
X020297Y008651D02*
X024950Y008651D01*
X024950Y008553D02*
X020148Y008553D01*
X019902Y008553D02*
X019835Y008553D01*
X019737Y008454D02*
X024950Y008454D01*
X024950Y008356D02*
X019638Y008356D01*
X019540Y008257D02*
X024950Y008257D01*
X024950Y008159D02*
X019518Y008159D01*
X019511Y008060D02*
X024950Y008060D01*
X024950Y007962D02*
X019470Y007962D01*
X019384Y007863D02*
X024950Y007863D01*
X024950Y007765D02*
X016857Y007765D01*
X016850Y007863D02*
X018916Y007863D01*
X018830Y007962D02*
X016850Y007962D01*
X016850Y008060D02*
X018789Y008060D01*
X018782Y008159D02*
X016850Y008159D01*
X016850Y008257D02*
X018796Y008257D01*
X018837Y008356D02*
X016850Y008356D01*
X016850Y008454D02*
X018933Y008454D01*
X019270Y008553D02*
X016850Y008553D01*
X016850Y008651D02*
X019368Y008651D01*
X019467Y008750D02*
X016850Y008750D01*
X016850Y008848D02*
X019565Y008848D01*
X019657Y008947D02*
X016850Y008947D01*
X016850Y009045D02*
X019687Y009045D01*
X019748Y009144D02*
X016850Y009144D01*
X017018Y009735D02*
X024945Y009735D01*
X024907Y009833D02*
X017018Y009833D01*
X016984Y009932D02*
X024907Y009932D01*
X024930Y010030D02*
X016916Y010030D01*
X014075Y010030D02*
X010428Y010030D01*
X010475Y009932D02*
X014075Y009932D01*
X014075Y009833D02*
X010475Y009833D01*
X010475Y009735D02*
X014075Y009735D01*
X014075Y009636D02*
X010475Y009636D01*
X010475Y009538D02*
X014075Y009538D01*
X014075Y009439D02*
X010475Y009439D01*
X010475Y009341D02*
X014075Y009341D01*
X014075Y009242D02*
X010475Y009242D01*
X010475Y009144D02*
X014075Y009144D01*
X014075Y009045D02*
X010475Y009045D01*
X010475Y008947D02*
X014075Y008947D01*
X014075Y008848D02*
X010475Y008848D01*
X010475Y008750D02*
X014075Y008750D01*
X014075Y008651D02*
X010475Y008651D01*
X010475Y008553D02*
X014075Y008553D01*
X014075Y008454D02*
X010475Y008454D01*
X010475Y008356D02*
X014075Y008356D01*
X014075Y008257D02*
X010475Y008257D01*
X010475Y008159D02*
X014075Y008159D01*
X014075Y008060D02*
X010475Y008060D01*
X010475Y007962D02*
X014075Y007962D01*
X014075Y007863D02*
X010475Y007863D01*
X010475Y007765D02*
X011568Y007765D01*
X011732Y007765D02*
X014075Y007765D01*
X016693Y007272D02*
X024552Y007272D01*
X024532Y007174D02*
X016737Y007174D01*
X016768Y007075D02*
X024533Y007075D01*
X024573Y006977D02*
X016768Y006977D01*
X016738Y006878D02*
X024651Y006878D01*
X025149Y006878D02*
X030950Y006878D01*
X030950Y006780D02*
X016675Y006780D01*
X016726Y007371D02*
X024600Y007371D01*
X024708Y007469D02*
X016759Y007469D01*
X016792Y007568D02*
X024910Y007568D01*
X024950Y007666D02*
X016824Y007666D01*
X019150Y008150D02*
X019900Y008900D01*
X020025Y008900D01*
X024900Y007275D02*
X025150Y007525D01*
X025150Y009775D01*
X025275Y009900D01*
X025532Y009636D02*
X030950Y009636D01*
X030950Y009538D02*
X025362Y009538D01*
X025350Y009439D02*
X030950Y009439D01*
X030950Y009341D02*
X025350Y009341D01*
X025350Y009242D02*
X030950Y009242D01*
X030950Y009144D02*
X025350Y009144D01*
X025350Y009045D02*
X030950Y009045D01*
X030950Y008947D02*
X025350Y008947D01*
X025350Y008848D02*
X030950Y008848D01*
X030950Y008750D02*
X025350Y008750D01*
X025350Y008651D02*
X030950Y008651D01*
X030950Y008553D02*
X025350Y008553D01*
X025350Y008454D02*
X030950Y008454D01*
X030950Y008356D02*
X025350Y008356D01*
X025350Y008257D02*
X030950Y008257D01*
X030950Y008159D02*
X025350Y008159D01*
X025350Y008060D02*
X030950Y008060D01*
X030950Y007962D02*
X025350Y007962D01*
X025350Y007863D02*
X030950Y007863D01*
X030950Y007765D02*
X025350Y007765D01*
X025350Y007666D02*
X030950Y007666D01*
X030950Y007568D02*
X025350Y007568D01*
X025350Y007469D02*
X030950Y007469D01*
X030950Y007371D02*
X025278Y007371D01*
X025248Y007272D02*
X030950Y007272D01*
X030950Y007174D02*
X025268Y007174D01*
X025267Y007075D02*
X030950Y007075D01*
X030950Y006977D02*
X025227Y006977D01*
X024900Y007150D02*
X024900Y007275D01*
X027348Y006090D02*
X030950Y006090D01*
X030950Y005992D02*
X027452Y005992D01*
X031350Y006977D02*
X032803Y006977D01*
X032709Y007075D02*
X031350Y007075D01*
X031350Y007174D02*
X032669Y007174D01*
X032657Y007272D02*
X031350Y007272D01*
X031350Y007371D02*
X032666Y007371D01*
X032707Y007469D02*
X031350Y007469D01*
X031350Y007568D02*
X032797Y007568D01*
X033133Y007666D02*
X031350Y007666D01*
X031350Y007765D02*
X033232Y007765D01*
X033325Y007863D02*
X031350Y007863D01*
X031350Y007962D02*
X033325Y007962D01*
X033325Y008060D02*
X031350Y008060D01*
X031350Y008159D02*
X033325Y008159D01*
X033325Y008257D02*
X031350Y008257D01*
X031350Y008356D02*
X033325Y008356D01*
X033325Y008454D02*
X031350Y008454D01*
X031350Y008553D02*
X033325Y008553D01*
X033325Y008651D02*
X031350Y008651D01*
X031350Y008750D02*
X033325Y008750D01*
X033325Y008848D02*
X031350Y008848D01*
X031350Y008947D02*
X033325Y008947D01*
X033325Y009045D02*
X031350Y009045D01*
X031350Y009144D02*
X033325Y009144D01*
X033325Y009242D02*
X031350Y009242D01*
X031350Y009341D02*
X033325Y009341D01*
X033325Y009439D02*
X031350Y009439D01*
X031350Y009538D02*
X033242Y009538D01*
X033184Y009636D02*
X031350Y009636D01*
X031350Y009735D02*
X033157Y009735D01*
X033157Y009833D02*
X031350Y009833D01*
X031350Y009932D02*
X033191Y009932D01*
X033259Y010030D02*
X031350Y010030D01*
X031350Y010129D02*
X033417Y010129D01*
X033633Y010129D02*
X037946Y010129D01*
X037795Y010030D02*
X033791Y010030D01*
X033859Y009932D02*
X037704Y009932D01*
X037663Y009833D02*
X033893Y009833D01*
X033893Y009735D02*
X037630Y009735D01*
X037630Y009636D02*
X033866Y009636D01*
X033808Y009538D02*
X037634Y009538D01*
X037675Y009439D02*
X033725Y009439D01*
X033725Y009341D02*
X037724Y009341D01*
X037823Y009242D02*
X033725Y009242D01*
X033725Y009144D02*
X037983Y009144D01*
X037810Y009045D02*
X033725Y009045D01*
X033725Y008947D02*
X036952Y008947D01*
X036853Y008848D01*
X036952Y008947D02*
X037080Y009000D01*
X037220Y009000D01*
X037348Y008947D01*
X037447Y008848D01*
X037348Y008947D02*
X037711Y008947D01*
X038317Y009144D02*
X038451Y009144D01*
X038477Y009242D02*
X038549Y009242D01*
X038576Y009341D02*
X038648Y009341D01*
X038625Y009439D02*
X040734Y009439D01*
X040689Y008947D02*
X038819Y008947D01*
X038721Y008848D02*
X040823Y008848D01*
X038775Y009935D02*
X038150Y010560D01*
X037650Y010560D01*
X037327Y010424D02*
X031350Y010424D01*
X031350Y010326D02*
X037390Y010326D01*
X037539Y010227D02*
X031350Y010227D01*
X030950Y010227D02*
X025447Y010227D01*
X025567Y010129D02*
X030950Y010129D01*
X030950Y010030D02*
X025620Y010030D01*
X025643Y009932D02*
X030950Y009932D01*
X030950Y009833D02*
X025643Y009833D01*
X025605Y009735D02*
X030950Y009735D01*
X033525Y009775D02*
X033525Y007775D01*
X033025Y007275D01*
X027850Y004613D02*
X008383Y004613D01*
X010494Y004711D02*
X027774Y004711D01*
X027850Y004120D02*
X015703Y004120D01*
X015768Y004022D02*
X027850Y004022D01*
X027850Y003923D02*
X015768Y003923D01*
X015768Y003825D02*
X027823Y003825D01*
X027800Y003726D02*
X015768Y003726D01*
X015768Y003628D02*
X027801Y003628D01*
X027842Y003529D02*
X015768Y003529D01*
X015704Y003431D02*
X027925Y003431D01*
X020087Y006484D02*
X019984Y006587D01*
X015097Y004120D02*
X011578Y004120D01*
X011579Y003431D02*
X015096Y003431D01*
X003341Y002347D02*
X061190Y002347D01*
X060937Y003229D02*
X061770Y003210D01*
X061960Y003400D01*
X061960Y003660D01*
X060880Y004740D01*
X060700Y004740D01*
X060041Y004786D01*
X061290Y005030D02*
X061500Y005030D01*
X062690Y003840D01*
X063680Y003840D01*
X062627Y004416D02*
X067630Y004416D01*
X067630Y004514D02*
X062529Y004514D01*
X062430Y004613D02*
X067630Y004613D01*
X067630Y004711D02*
X062332Y004711D01*
X062245Y004810D02*
X067630Y004810D01*
X067630Y004908D02*
X062363Y004908D01*
X062412Y005007D02*
X065509Y005007D01*
X065435Y005105D02*
X062430Y005105D01*
X062446Y005204D02*
X065400Y005204D01*
X065400Y005302D02*
X062545Y005302D01*
X062700Y005740D02*
X062080Y005120D01*
X063050Y005795D02*
X067543Y005795D01*
X067511Y006386D02*
X064268Y006386D01*
X063756Y006878D02*
X059878Y006878D01*
X059890Y006780D02*
X063657Y006780D01*
X063558Y006681D02*
X059878Y006681D01*
X064117Y007765D02*
X064644Y007765D01*
X064742Y007863D02*
X064216Y007863D01*
X064314Y007962D02*
X064841Y007962D01*
X064940Y008060D02*
X064413Y008060D01*
X064511Y008159D02*
X065038Y008159D01*
X066025Y008425D02*
X066712Y009099D01*
X066956Y008848D02*
X069159Y008848D01*
X069061Y008947D02*
X067028Y008947D01*
X067062Y009045D02*
X068962Y009045D01*
X068864Y009144D02*
X067062Y009144D01*
X067032Y009242D02*
X068765Y009242D01*
X068667Y009341D02*
X066966Y009341D01*
X066887Y009439D02*
X068568Y009439D01*
X068470Y009538D02*
X066986Y009538D01*
X067084Y009636D02*
X068371Y009636D01*
X068273Y009735D02*
X067183Y009735D01*
X067282Y009833D02*
X068029Y009833D01*
X067872Y009932D02*
X067380Y009932D01*
X064079Y009242D02*
X059295Y009242D01*
X059401Y009144D02*
X063981Y009144D01*
X064438Y008651D02*
X059316Y008651D01*
X059340Y008553D02*
X059420Y008553D01*
X055710Y009520D02*
X052510Y009520D01*
X052127Y009867D02*
X057140Y009950D01*
X054414Y008947D02*
X053341Y008947D01*
X051268Y008750D02*
X050383Y008750D01*
X050350Y008848D02*
X051169Y008848D01*
X051071Y008947D02*
X050350Y008947D01*
X050350Y009045D02*
X050972Y009045D01*
X050874Y009144D02*
X050350Y009144D01*
X050350Y009242D02*
X050775Y009242D01*
X043075Y010720D02*
X041411Y010720D01*
X041232Y010818D02*
X043075Y010818D01*
X041679Y010917D02*
X041053Y010917D01*
X040874Y011015D02*
X041580Y011015D01*
X041490Y011114D02*
X040695Y011114D01*
X040516Y011212D02*
X041490Y011212D01*
X041490Y011311D02*
X040337Y011311D01*
X040158Y011409D02*
X041490Y011409D01*
X041553Y011508D02*
X039978Y011508D01*
X038122Y011015D02*
X031350Y011015D01*
X031350Y010917D02*
X038230Y010917D01*
X038338Y010818D02*
X037887Y010818D01*
X038014Y011114D02*
X031350Y011114D01*
X031350Y011212D02*
X037906Y011212D01*
X037798Y011311D02*
X031350Y011311D01*
X031350Y011409D02*
X037466Y011409D01*
X037388Y011508D02*
X031350Y011508D01*
X031350Y011606D02*
X037350Y011606D01*
X037350Y011705D02*
X031350Y011705D01*
X031350Y011803D02*
X037376Y011803D01*
X037437Y011902D02*
X031350Y011902D01*
X031350Y012000D02*
X037582Y012000D01*
X037700Y011670D02*
X039105Y010390D01*
X038755Y010424D02*
X038569Y010424D01*
X038663Y010523D02*
X038470Y010523D01*
X038554Y010621D02*
X038372Y010621D01*
X038446Y010720D02*
X038273Y010720D01*
X037413Y010818D02*
X031350Y010818D01*
X031350Y010720D02*
X037337Y010720D01*
X037300Y010621D02*
X031350Y010621D01*
X031350Y010523D02*
X037300Y010523D01*
X037910Y010326D02*
X038102Y010326D01*
X038200Y010227D02*
X037761Y010227D01*
X038667Y010326D02*
X038755Y010326D01*
X043075Y012099D02*
X031350Y012099D01*
X031350Y012197D02*
X043075Y012197D01*
X043075Y012296D02*
X031350Y012296D01*
X031350Y012394D02*
X043075Y012394D01*
X043075Y012493D02*
X031350Y012493D01*
X031350Y012591D02*
X043075Y012591D01*
X043075Y012690D02*
X031350Y012690D01*
X031350Y012788D02*
X043075Y012788D01*
X043075Y012887D02*
X031350Y012887D01*
X031381Y012985D02*
X043075Y012985D01*
X031096Y014660D02*
X027454Y014660D01*
X027544Y014561D02*
X030915Y014561D01*
X030829Y014463D02*
X027585Y014463D01*
X027585Y014364D02*
X030788Y014364D01*
X030782Y014266D02*
X027585Y014266D01*
X027615Y014167D02*
X030796Y014167D01*
X030837Y014069D02*
X027643Y014069D01*
X027643Y013970D02*
X030934Y013970D01*
X026907Y013970D02*
X023724Y013970D01*
X023937Y014069D02*
X025613Y014069D01*
X025937Y014069D02*
X026907Y014069D01*
X022669Y012985D02*
X021881Y012985D01*
X014075Y010227D02*
X009197Y010227D01*
X009317Y010129D02*
X014075Y010129D01*
X010075Y009439D02*
X008263Y009439D01*
X008225Y009341D02*
X010075Y009341D01*
X010075Y009242D02*
X008225Y009242D01*
X008225Y009144D02*
X010075Y009144D01*
X010075Y009045D02*
X008225Y009045D01*
X008225Y008947D02*
X010075Y008947D01*
X010075Y008848D02*
X008225Y008848D01*
X008225Y008750D02*
X010075Y008750D01*
X010075Y008651D02*
X008225Y008651D01*
X008225Y008553D02*
X010075Y008553D01*
X010075Y008454D02*
X008225Y008454D01*
X008225Y008356D02*
X010075Y008356D01*
X010075Y008257D02*
X008225Y008257D01*
X008225Y008159D02*
X010075Y008159D01*
X010075Y008060D02*
X008225Y008060D01*
X008225Y007962D02*
X010075Y007962D01*
X010075Y007863D02*
X008225Y007863D01*
X008225Y007765D02*
X010075Y007765D01*
X010075Y007666D02*
X008199Y007666D01*
X008087Y007568D02*
X010075Y007568D01*
X010075Y007469D02*
X007990Y007469D01*
X010475Y007666D02*
X011395Y007666D01*
X008768Y009636D02*
X008252Y009636D01*
X008211Y009735D02*
X008695Y009735D01*
X008657Y009833D02*
X008113Y009833D01*
X057278Y003593D02*
X061549Y003588D01*
X065991Y005007D02*
X072084Y005007D01*
X071985Y004908D02*
X069670Y004908D01*
X069670Y004810D02*
X071887Y004810D01*
X071788Y004711D02*
X069670Y004711D01*
X069670Y004613D02*
X071690Y004613D01*
X073755Y005580D02*
X071385Y007825D01*
X070314Y008651D02*
X066541Y008651D01*
X066641Y008750D02*
X066642Y008750D01*
X066782Y008750D02*
X069258Y008750D01*
X072373Y009341D02*
X072425Y009341D01*
X073063Y010030D02*
X077192Y010030D01*
X077420Y010129D02*
X073161Y010129D01*
X073260Y010227D02*
X077420Y010227D01*
X077420Y010326D02*
X073358Y010326D01*
X073457Y010424D02*
X077420Y010424D01*
X077420Y010523D02*
X073555Y010523D01*
X073654Y010621D02*
X077420Y010621D01*
X077420Y010720D02*
X073752Y010720D01*
X073851Y010818D02*
X077420Y010818D01*
X077420Y010917D02*
X073949Y010917D01*
X074048Y011015D02*
X077420Y011015D01*
X077384Y011114D02*
X074146Y011114D01*
X074200Y011212D02*
X077285Y011212D01*
X077187Y011311D02*
X074200Y011311D01*
X074254Y011409D02*
X077088Y011409D01*
X076990Y011508D02*
X074320Y011508D01*
X074350Y011606D02*
X076891Y011606D01*
X076793Y011705D02*
X074350Y011705D01*
X073160Y011360D02*
X073160Y010640D01*
X077260Y011803D02*
X079651Y011803D01*
X079630Y011705D02*
X077358Y011705D01*
X077457Y011606D02*
X079630Y011606D01*
X079646Y011508D02*
X077555Y011508D01*
X077654Y011409D02*
X079687Y011409D01*
X079754Y011311D02*
X077752Y011311D01*
X077820Y011212D02*
X079853Y011212D01*
X079910Y011114D02*
X077820Y011114D01*
X077820Y011015D02*
X079780Y011015D01*
X079698Y010917D02*
X077820Y010917D01*
X077820Y010818D02*
X079657Y010818D01*
X079630Y010720D02*
X077820Y010720D01*
X077161Y011902D02*
X079691Y011902D01*
X079765Y012000D02*
X077063Y012000D01*
X076964Y012099D02*
X079874Y012099D01*
X064657Y017614D02*
X064578Y017601D01*
X064578Y018100D01*
X064578Y018200D01*
X065077Y018200D01*
X065064Y018279D01*
X065038Y018361D01*
X064998Y018438D01*
X064947Y018508D01*
X064886Y018570D01*
X064816Y018620D01*
X064739Y018660D01*
X064657Y018686D01*
X064578Y018699D01*
X064578Y018200D01*
X064478Y018200D01*
X064478Y018699D01*
X064399Y018686D01*
X064317Y018660D01*
X064240Y018620D01*
X064170Y018570D01*
X064108Y018508D01*
X064058Y018438D01*
X064018Y018361D01*
X063991Y018279D01*
X063979Y018200D01*
X064478Y018200D01*
X064478Y018100D01*
X064578Y018100D01*
X065077Y018100D01*
X065064Y018021D01*
X065038Y017939D01*
X064998Y017862D01*
X064947Y017792D01*
X064886Y017730D01*
X064816Y017680D01*
X064739Y017640D01*
X064657Y017614D01*
X064660Y017615D02*
X065052Y017615D01*
X065150Y017713D02*
X064862Y017713D01*
X064962Y017812D02*
X065249Y017812D01*
X065347Y017910D02*
X065023Y017910D01*
X065060Y018009D02*
X065446Y018009D01*
X065544Y018107D02*
X064578Y018107D01*
X064578Y018009D02*
X064478Y018009D01*
X064478Y018100D02*
X064478Y017601D01*
X064399Y017614D01*
X064317Y017640D01*
X064240Y017680D01*
X064170Y017730D01*
X064108Y017792D01*
X064058Y017862D01*
X064018Y017939D01*
X063991Y018021D01*
X063979Y018100D01*
X064478Y018100D01*
X064478Y018107D02*
X063700Y018107D01*
X063700Y018009D02*
X063996Y018009D01*
X064033Y017910D02*
X063700Y017910D01*
X063700Y017812D02*
X064094Y017812D01*
X064194Y017713D02*
X063700Y017713D01*
X063627Y017615D02*
X064396Y017615D01*
X064478Y017615D02*
X064578Y017615D01*
X064578Y017713D02*
X064478Y017713D01*
X064478Y017812D02*
X064578Y017812D01*
X064578Y017910D02*
X064478Y017910D01*
X064478Y018206D02*
X064578Y018206D01*
X064578Y018304D02*
X064478Y018304D01*
X064478Y018403D02*
X064578Y018403D01*
X064578Y018501D02*
X064478Y018501D01*
X064478Y018600D02*
X064578Y018600D01*
X064578Y018698D02*
X064478Y018698D01*
X064472Y018698D02*
X063614Y018698D01*
X063700Y018600D02*
X064211Y018600D01*
X064103Y018501D02*
X063700Y018501D01*
X063700Y018403D02*
X064039Y018403D01*
X064000Y018304D02*
X063700Y018304D01*
X063700Y018206D02*
X063980Y018206D01*
X064953Y018501D02*
X065938Y018501D01*
X065840Y018403D02*
X065017Y018403D01*
X065056Y018304D02*
X065741Y018304D01*
X065643Y018206D02*
X065076Y018206D01*
X064845Y018600D02*
X066037Y018600D01*
X066135Y018698D02*
X064584Y018698D01*
X066332Y018895D02*
X057178Y018895D01*
X057276Y018994D02*
X066431Y018994D01*
X060594Y018206D02*
X060167Y018206D01*
X060147Y018304D02*
X060496Y018304D01*
X060397Y018403D02*
X060107Y018403D01*
X060043Y018501D02*
X060299Y018501D01*
X060200Y018600D02*
X059935Y018600D01*
X059302Y018600D02*
X059100Y018600D01*
X059194Y018501D02*
X059001Y018501D01*
X058903Y018403D02*
X059130Y018403D01*
X059090Y018304D02*
X058804Y018304D01*
X058706Y018206D02*
X059070Y018206D01*
X059569Y017910D02*
X059669Y017910D01*
X059669Y017812D02*
X059569Y017812D01*
X059569Y017713D02*
X059669Y017713D01*
X068290Y004908D02*
X069010Y004908D01*
X069010Y004810D02*
X068290Y004810D01*
X068290Y004711D02*
X069010Y004711D01*
X069010Y004613D02*
X068290Y004613D01*
X068290Y004514D02*
X069010Y004514D01*
X069010Y004416D02*
X068290Y004416D01*
D18*
X037150Y004050D02*
X036750Y003650D01*
X037150Y004050D02*
X037150Y008650D01*
X028150Y004800D02*
X028150Y003700D01*
D19*
X015400Y003775D03*
X011275Y003775D03*
X038963Y011713D03*
X045025Y010650D03*
D20*
X041900Y010275D02*
X041838Y010338D01*
X041463Y010338D01*
X038963Y011713D01*
X035780Y013952D02*
X035775Y014400D01*
X033986Y014400D01*
X032150Y014400D01*
X031275Y014400D01*
X031150Y014275D01*
X027275Y014400D02*
X027275Y014025D01*
X027275Y014400D02*
X025775Y014400D01*
X023775Y014400D01*
X023650Y014275D01*
X022775Y014275D01*
X018775Y014400D02*
X018775Y013900D01*
X018775Y014400D02*
X017150Y014400D01*
X015275Y014400D01*
X014025Y014400D01*
X010275Y014525D02*
X010275Y014150D01*
X010275Y014525D02*
X008775Y014525D01*
X006593Y014525D01*
X005150Y014525D01*
X027149Y005774D02*
X028123Y004800D01*
X028150Y004800D01*
X035275Y005400D02*
X036775Y003900D01*
X036775Y003650D01*
X037150Y004025D01*
X037150Y008650D01*
X015400Y003775D02*
X011275Y003775D01*
D21*
X008150Y004900D03*
X011400Y005900D03*
X016400Y007025D03*
X019775Y006275D03*
X024900Y007150D03*
X027149Y005774D03*
X033025Y007275D03*
X036025Y005650D03*
X035275Y005400D03*
X020025Y008900D03*
X019150Y008150D03*
X016650Y009775D03*
X009025Y009900D03*
X007900Y009525D03*
X004150Y010900D03*
X005650Y011400D03*
X014275Y012275D03*
X018775Y013900D03*
X017150Y014400D03*
X015275Y014400D03*
X014025Y014400D03*
X010275Y014150D03*
X008775Y014525D03*
X006593Y014525D03*
X005150Y014525D03*
X021650Y013275D03*
X022900Y013275D03*
X022775Y014275D03*
X023775Y014400D03*
X025775Y014400D03*
X027275Y014025D03*
X031150Y014275D03*
X032150Y014400D03*
X033986Y014400D03*
X035780Y013952D03*
X031150Y013275D03*
X033525Y009775D03*
X025275Y009900D03*
X011650Y007400D03*
X007775Y007775D03*
X049025Y011025D03*
X052650Y008900D03*
D22*
X050150Y014650D03*
X049650Y014650D03*
X049650Y015150D03*
X050150Y015150D03*
X050150Y015650D03*
X049650Y015650D03*
X044150Y015650D03*
X043650Y015650D03*
X043650Y015150D03*
X044150Y015150D03*
X044150Y014650D03*
X043650Y014650D03*
X055650Y014650D03*
X056150Y014650D03*
X056150Y015150D03*
X055650Y015150D03*
X055650Y015650D03*
X056150Y015650D03*
X056150Y019650D03*
X056650Y019650D03*
X055650Y019650D03*
X055650Y020150D03*
X056150Y020150D03*
X056650Y020150D03*
X056650Y020650D03*
X056150Y020650D03*
X055650Y020650D03*
X050650Y020650D03*
X050150Y020650D03*
X049650Y020650D03*
X049650Y020150D03*
X050150Y020150D03*
X050650Y020150D03*
X050650Y019650D03*
X050150Y019650D03*
X049650Y019650D03*
X044650Y019650D03*
X044150Y019650D03*
X043650Y019650D03*
X043650Y020150D03*
X044150Y020150D03*
X044650Y020150D03*
X044650Y020650D03*
X044150Y020650D03*
X043650Y020650D03*
X037650Y020650D03*
X037150Y020650D03*
X036650Y020650D03*
X036650Y020150D03*
X037150Y020150D03*
X037650Y020150D03*
X037650Y019650D03*
X036650Y019650D03*
X029150Y019650D03*
X028150Y019650D03*
X028150Y020150D03*
X028650Y020150D03*
X029150Y020150D03*
X029150Y020650D03*
X028650Y020650D03*
X028150Y020650D03*
X020650Y020650D03*
X020150Y020650D03*
X019650Y020650D03*
X019650Y020150D03*
X020150Y020150D03*
X020650Y020150D03*
X020650Y019650D03*
X019650Y019650D03*
X012150Y019650D03*
X012150Y020150D03*
X011650Y020150D03*
X011650Y020650D03*
X012150Y020650D03*
D23*
X038150Y007650D02*
X039420Y007650D01*
X040970Y006100D01*
X067720Y006100D01*
M02*
